{
.appVersion = "3151";
.formatVersion = 3;
classes = (
{
automatic = 1;

glyphs = (
{
glyphname = A;
lastChange = "2023-01-21 07:50:23 +0000";
layers = (
{
anchors = (
{
name = bottom;
pos = (540,0);
},
{
name = ogonek;
pos = (1135,10);
},
{
name = top;
pos = (540,1690);
}
);
background = {
anchors = (
{
name = btm;
pos = (540,-170);
},
{
name = top;
pos = (540,1700);
}
);
shapes = (
{
closed = 1;
nodes = (
(322,1696,o),
(300,1681,o),
(288,1605,c),
(23,78,ls),
(11,7,o),
(48,0,o),
(152,0,cs),
(279,0,o),
(296,7,o),
(308,78,cs),
(535,1394,l),
(544,1394,l),
(771,78,ls),
(783,7,o),
(800,0,o),
(927,0,cs),
(1032,0,o),
(1068,7,o),
(1056,78,cs),
(791,1605,l),
(779,1681,o),
(757,1696,o),
(540,1696,cs)
);
},
{
closed = 1;
nodes = (
(801,317,l),
(801,507,l),
(267,507,l),
(267,317,l)
);
}
);
};
layerId = "3E12A9BE-1094-4827-ACE3-4E9390329AA7";
shapes = (
{
closed = 1;
nodes = (
(279,0,o),
(296,7,o),
(308,78,cs),
(535,1394,l),
(544,1394,l),
(771,78,ls),
(783,7,o),
(800,0,o),
(927,0,cs),
(1032,0,o),
(1068,7,o),
(1056,78,cs),
(791,1605,l),
(779,1681,o),
(757,1696,o),
(540,1696,cs),
(322,1696,o),
(300,1681,o),
(288,1605,c),
(23,78,ls),
(11,7,o),
(48,0,o),
(152,0,cs)
);
},
{
closed = 1;
nodes = (
(801,317,l),
(801,507,l),
(267,507,l),
(267,317,l)
);
}
);
userData = {
com.typemytype.robofont.guides = (
{
angle = 0;
isGlobal = 0;
magnetic = 5;
x = 0;
y = 1696;
},
{
angle = 90;
isGlobal = 0;
magnetic = 5;
x = 541;
y = 0;
}
);
};
vertWidth = 0;
width = 1079;
}
);
unicode = 65;
userData = {
KernOnName = A;
};
},
{
glyphname = Aacute;
lastChange = "2023-01-19 09:31:25 +0000";
layers = (
{
background = {
anchors = (
{
name = btm;
pos = (540,-170);
},
{
name = top;
pos = (540,1700);
}
);
shapes = (
{
closed = 1;
nodes = (
(322,1696,o),
(300,1681,o),
(288,1605,c),
(23,78,ls),
(11,7,o),
(48,0,o),
(152,0,cs),
(279,0,o),
(296,7,o),
(308,78,cs),
(535,1394,l),
(544,1394,l),
(771,78,ls),
(783,7,o),
(800,0,o),
(927,0,cs),
(1032,0,o),
(1068,7,o),
(1056,78,cs),
(791,1605,l),
(779,1681,o),
(757,1696,o),
(540,1696,cs)
);
},
{
closed = 1;
nodes = (
(801,317,l),
(801,507,l),
(267,507,l),
(267,317,l)
);
},
{
closed = 1;
nodes = (
(449,1861,o),
(423,1827,o),
(423,1804,cs),
(423,1778,o),
(453,1770,o),
(521,1770,cs),
(617,1770,o),
(623,1780,o),
(661,1827,cs),
(805,2005,ls),
(830,2037,o),
(850,2062,o),
(850,2083,cs),
(850,2110,o),
(820,2118,o),
(718,2118,cs),
(605,2118,o),
(589,2109,o),
(559,2056,cs),
(477,1910,l)
);
}
);
};
layerId = "3E12A9BE-1094-4827-ACE3-4E9390329AA7";
shapes = (
{
ref = A;
},
{
pos = (443,0);
ref = acutecomb.case;
}
);
width = 1079;
}
);
unicode = 193;
},
{
glyphname = Abreve;
lastChange = "2023-01-18 14:59:52 +0000";
layers = (
{
background = {
anchors = (
{
name = btm;
pos = (540,-170);
},
{
name = top;
pos = (540,1700);
}
);
shapes = (
{
closed = 1;
nodes = (
(322,1696,o),
(300,1681,o),
(288,1605,c),
(23,78,ls),
(11,7,o),
(48,0,o),
(152,0,cs),
(279,0,o),
(296,7,o),
(308,78,cs),
(535,1394,l),
(544,1394,l),
(771,78,ls),
(783,7,o),
(800,0,o),
(927,0,cs),
(1032,0,o),
(1068,7,o),
(1056,78,cs),
(791,1605,l),
(779,1681,o),
(757,1696,o),
(540,1696,cs)
);
},
{
closed = 1;
nodes = (
(801,317,l),
(801,507,l),
(267,507,l),
(267,317,l)
);
},
{
closed = 1;
nodes = (
(411,2117,o),
(353,2118,o),
(265,2118,cs),
(163,2118,o),
(164,2088,o),
(164,2061,cs),
(164,1876,o),
(340,1776,o),
(531,1776,cs),
(548,1776,ls),
(740,1776,o),
(918,1835,o),
(918,2061,cs),
(918,2088,o),
(919,2118,o),
(817,2118,cs),
(726,2118,o),
(673,2116,o),
(673,2056,cs),
(673,1988,o),
(640,1957,o),
(541,1957,cs),
(440,1957,o),
(411,1989,o),
(411,2056,cs)
);
}
);
};
layerId = "3E12A9BE-1094-4827-ACE3-4E9390329AA7";
shapes = (
{
ref = A;
},
{
pos = (539,0);
ref = brevecomb.case;
}
);
width = 1079;
}
);
unicode = 258;
},
{
glyphname = Acircumflex;
lastChange = "2023-01-18 14:59:52 +0000";
layers = (
{
background = {
anchors = (
{
name = btm;
pos = (540,-170);
},
{
name = top;
pos = (540,1700);
}
);
shapes = (
{
closed = 1;
nodes = (
(322,1696,o),
(300,1681,o),
(288,1605,c),
(23,78,ls),
(11,7,o),
(48,0,o),
(152,0,cs),
(279,0,o),
(296,7,o),
(308,78,cs),
(535,1394,l),
(544,1394,l),
(771,78,ls),
(783,7,o),
(800,0,o),
(927,0,cs),
(1032,0,o),
(1068,7,o),
(1056,78,cs),
(791,1605,l),
(779,1681,o),
(757,1696,o),
(540,1696,cs)
);
},
{
closed = 1;
nodes = (
(801,317,l),
(801,507,l),
(267,507,l),
(267,317,l)
);
},
{
closed = 1;
nodes = (
(194,1848,o),
(176,1827,o),
(176,1806,cs),
(176,1780,o),
(196,1770,o),
(269,1770,cs),
(345,1770,o),
(354,1779,o),
(409,1832,cs),
(498,1917,ls),
(517,1935,o),
(529,1944,o),
(541,1944,cs),
(553,1944,o),
(565,1935,o),
(582,1918,cs),
(674,1832,ls),
(728,1781,o),
(742,1770,o),
(812,1770,cs),
(894,1770,o),
(905,1780,o),
(905,1806,cs),
(905,1827,o),
(888,1848,o),
(855,1894,cs),
(736,2056,ls),
(695,2112,o),
(667,2118,o),
(622,2118,cs),
(467,2118,ls),
(411,2118,o),
(382,2112,o),
(342,2056,cs),
(226,1894,ls)
);
}
);
};
layerId = "3E12A9BE-1094-4827-ACE3-4E9390329AA7";
shapes = (
{
ref = A;
},
{
pos = (539,0);
ref = circumflexcomb.case;
}
);
width = 1079;
}
);
unicode = 194;
},
{
glyphname = Adieresis;
lastChange = "2023-01-13 14:20:01 +0000";
layers = (
{
background = {
anchors = (
{
name = btm;
pos = (540,-170);
},
{
name = top;
pos = (540,1700);
}
);
shapes = (
{
closed = 1;
nodes = (
(322,1696,o),
(300,1681,o),
(288,1605,c),
(23,78,ls),
(11,7,o),
(48,0,o),
(152,0,cs),
(279,0,o),
(296,7,o),
(308,78,cs),
(535,1394,l),
(544,1394,l),
(771,78,ls),
(783,7,o),
(800,0,o),
(927,0,cs),
(1032,0,o),
(1068,7,o),
(1056,78,cs),
(791,1605,l),
(779,1681,o),
(757,1696,o),
(540,1696,cs)
);
},
{
closed = 1;
nodes = (
(801,317,l),
(801,507,l),
(267,507,l),
(267,317,l)
);
},
{
closed = 1;
nodes = (
(429,1817,o),
(445,1824,o),
(448,1874,cs),
(459,2037,ls),
(462,2094,o),
(444,2110,o),
(317,2110,cs),
(190,2110,o),
(171,2094,o),
(175,2037,cs),
(187,1874,ls),
(190,1824,o),
(205,1817,o),
(317,1817,cs)
);
},
{
closed = 1;
nodes = (
(875,1817,o),
(891,1824,o),
(894,1874,cs),
(905,2037,ls),
(908,2094,o),
(890,2110,o),
(763,2110,cs),
(636,2110,o),
(617,2094,o),
(621,2037,cs),
(633,1874,ls),
(636,1824,o),
(651,1817,o),
(763,1817,cs)
);
}
);
};
layerId = "3E12A9BE-1094-4827-ACE3-4E9390329AA7";
shapes = (
{
ref = A;
},
{
pos = (540,0);
ref = dieresiscomb.case;
}
);
width = 1079;
}
);
unicode = 196;
},
{
glyphname = Agrave;
lastChange = "2023-01-18 15:24:40 +0000";
layers = (
{
background = {
anchors = (
{
name = btm;
pos = (540,-170);
},
{
name = top;
pos = (540,1700);
}
);
shapes = (
{
closed = 1;
nodes = (
(322,1696,o),
(300,1681,o),
(288,1605,c),
(23,78,ls),
(11,7,o),
(48,0,o),
(152,0,cs),
(279,0,o),
(296,7,o),
(308,78,cs),
(535,1394,l),
(544,1394,l),
(771,78,ls),
(783,7,o),
(800,0,o),
(927,0,cs),
(1032,0,o),
(1068,7,o),
(1056,78,cs),
(791,1605,l),
(779,1681,o),
(757,1696,o),
(540,1696,cs)
);
},
{
closed = 1;
nodes = (
(801,317,l),
(801,507,l),
(267,507,l),
(267,317,l)
);
},
{
closed = 1;
nodes = (
(644,1861,o),
(670,1827,o),
(670,1804,cs),
(670,1778,o),
(640,1770,o),
(572,1770,cs),
(476,1770,o),
(470,1780,o),
(432,1827,cs),
(288,2005,ls),
(263,2037,o),
(243,2062,o),
(243,2083,cs),
(243,2110,o),
(273,2118,o),
(375,2118,cs),
(488,2118,o),
(504,2109,o),
(534,2056,cs),
(616,1910,l)
);
}
);
};
layerId = "3E12A9BE-1094-4827-ACE3-4E9390329AA7";
shapes = (
{
ref = A;
},
{
pos = (523,0);
ref = gravecomb.case;
}
);
width = 1079;
}
);
unicode = 192;
},
{
glyphname = Amacron;
lastChange = "2023-01-18 14:59:52 +0000";
layers = (
{
background = {
anchors = (
{
name = btm;
pos = (540,-170);
},
{
name = top;
pos = (540,1700);
}
);
shapes = (
{
closed = 1;
nodes = (
(322,1696,o),
(300,1681,o),
(288,1605,c),
(23,78,ls),
(11,7,o),
(48,0,o),
(152,0,cs),
(279,0,o),
(296,7,o),
(308,78,cs),
(535,1394,l),
(544,1394,l),
(771,78,ls),
(783,7,o),
(800,0,o),
(927,0,cs),
(1032,0,o),
(1068,7,o),
(1056,78,cs),
(791,1605,l),
(779,1681,o),
(757,1696,o),
(540,1696,cs)
);
},
{
closed = 1;
nodes = (
(801,317,l),
(801,507,l),
(267,507,l),
(267,317,l)
);
},
{
closed = 1;
nodes = (
(897,1839,o),
(899,1864,o),
(899,1946,cs),
(899,2036,o),
(897,2065,o),
(827,2065,cs),
(259,2065,ls),
(189,2065,o),
(187,2037,o),
(187,1947,cs),
(187,1865,o),
(189,1839,o),
(259,1839,cs),
(827,1839,l)
);
}
);
};
layerId = "3E12A9BE-1094-4827-ACE3-4E9390329AA7";
shapes = (
{
ref = A;
},
{
pos = (537,0);
ref = macroncomb.case;
}
);
width = 1079;
}
);
unicode = 256;
},
{
color = 4;
glyphname = Aogonek;
lastChange = "2023-01-19 20:30:59 +0000";
layers = (
{
background = {
anchors = (
{
name = btm;
pos = (540,-170);
},
{
name = top;
pos = (540,1700);
}
);
shapes = (
{
closed = 1;
nodes = (
(322,1696,o),
(300,1681,o),
(288,1605,c),
(23,78,ls),
(11,7,o),
(48,0,o),
(152,0,cs),
(279,0,o),
(296,7,o),
(308,78,cs),
(535,1394,l),
(544,1394,l),
(771,78,ls),
(783,7,o),
(800,0,o),
(927,0,cs),
(1032,0,o),
(1068,7,o),
(1056,78,cs),
(791,1605,l),
(779,1681,o),
(757,1696,o),
(540,1696,cs)
);
},
{
closed = 1;
nodes = (
(801,317,l),
(801,507,l),
(267,507,l),
(267,317,l)
);
},
{
closed = 1;
nodes = (
(1108,28,o),
(1043,29,o),
(1007,29,cs),
(950,29,o),
(860,-104,o),
(860,-226,cs),
(860,-380,o),
(963,-466,o),
(1098,-466,cs),
(1192,-466,o),
(1277,-448,o),
(1322,-396,cs),
(1332,-383,o),
(1331,-359,o),
(1324,-333,cs),
(1304,-266,o),
(1296,-206,o),
(1264,-206,cs),
(1217,-206,o),
(1203,-230,o),
(1137,-230,cs),
(1096,-230,o),
(1047,-184,o),
(1047,-112,cs),
(1047,-60,o),
(1074,7,o),
(1167,28,c)
);
}
);
};
layerId = "3E12A9BE-1094-4827-ACE3-4E9390329AA7";
shapes = (
{
ref = A;
},
{
pos = (542,-19);
ref = ogonekcomb;
}
);
width = 1079;
}
);
unicode = 260;
},
{
glyphname = Aring;
lastChange = "2023-01-13 14:20:01 +0000";
layers = (
{
background = {
shapes = (
{
closed = 1;
nodes = (
(217,1705,o),
(355,1643,o),
(531,1643,cs),
(707,1643,o),
(845,1705,o),
(845,1844,cs),
(845,1917,ls),
(845,2056,o),
(707,2118,o),
(531,2118,cs),
(355,2118,o),
(217,2056,o),
(217,1917,cs),
(217,1844,l)
);
},
{
closed = 1;
nodes = (
(14,78,ls),
(1,7,o),
(39,0,o),
(143,0,cs),
(270,0,o),
(287,7,o),
(299,78,cs),
(526,1426,l),
(535,1426,l),
(762,78,ls),
(774,7,o),
(791,0,o),
(918,0,cs),
(1023,0,o),
(1060,7,o),
(1047,78,cs),
(741,1719,l),
(320,1719,l)
);
},
{
closed = 1;
nodes = (
(792,317,l),
(792,507,l),
(258,507,l),
(258,317,l)
);
},
{
closed = 1;
nodes = (
(631,1778,o),
(599,1747,o),
(531,1747,cs),
(463,1747,o),
(431,1778,o),
(431,1829,cs),
(431,1900,ls),
(431,1951,o),
(463,1982,o),
(531,1982,cs),
(599,1982,o),
(631,1951,o),
(631,1900,cs),
(631,1829,l)
);
}
);
};
layerId = "3E12A9BE-1094-4827-ACE3-4E9390329AA7";
shapes = (
{
ref = A;
},
{
pos = (540,0);
ref = ringcomb.case;
}
);
width = 1079;
}
);
unicode = 197;
},
{
glyphname = Atilde;
lastChange = "2023-01-18 14:59:52 +0000";
layers = (
{
background = {
anchors = (
{
name = btm;
pos = (540,-170);
},
{
name = top;
pos = (540,1700);
}
);
shapes = (
{
closed = 1;
nodes = (
(322,1696,o),
(300,1681,o),
(288,1605,c),
(23,78,ls),
(11,7,o),
(48,0,o),
(152,0,cs),
(279,0,o),
(296,7,o),
(308,78,cs),
(535,1394,l),
(544,1394,l),
(771,78,ls),
(783,7,o),
(800,0,o),
(927,0,cs),
(1032,0,o),
(1068,7,o),
(1056,78,cs),
(791,1605,l),
(779,1681,o),
(757,1696,o),
(540,1696,cs)
);
},
{
closed = 1;
nodes = (
(801,317,l),
(801,507,l),
(267,507,l),
(267,317,l)
);
},
{
closed = 1;
nodes = (
(786,1781,o),
(810,1792,o),
(834,1840,cs),
(919,2008,ls),
(937,2044,o),
(947,2067,o),
(947,2087,cs),
(947,2116,o),
(917,2118,o),
(837,2118,cs),
(751,2118,o),
(740,2117,o),
(724,2073,cs),
(702,2012,ls),
(689,1977,o),
(680,1967,o),
(667,1967,cs),
(652,1967,o),
(636,1982,o),
(611,2007,cs),
(547,2074,ls),
(517,2104,o),
(503,2118,o),
(441,2118,cs),
(383,2118,ls),
(326,2118,o),
(289,2116,o),
(264,2060,cs),
(186,1883,ls),
(172,1852,o),
(162,1833,o),
(162,1815,cs),
(162,1790,o),
(183,1782,o),
(242,1782,cs),
(325,1782,o),
(337,1783,o),
(358,1823,cs),
(383,1871,ls),
(400,1903,o),
(407,1914,o),
(421,1914,cs),
(429,1914,o),
(435,1913,o),
(458,1890,cs),
(515,1834,ls),
(563,1786,o),
(580,1781,o),
(638,1781,cs),
(725,1781,l)
);
}
);
};
layerId = "3E12A9BE-1094-4827-ACE3-4E9390329AA7";
shapes = (
{
ref = A;
},
{
pos = (525,0);
ref = tildecomb.case;
}
);
width = 1079;
}
);
unicode = 195;
},
{
glyphname = AE;
lastChange = "2023-01-19 19:32:52 +0000";
layers = (
{
anchors = (
{
name = bottom;
pos = (720,0);
},
{
name = top;
pos = (720,1690);
}
);
background = {
anchors = (
{
name = btm;
pos = (719,-170);
},
{
name = top;
pos = (719,1700);
}
);
shapes = (
{
closed = 1;
nodes = (
(425,1690,o),
(402,1673,o),
(385,1598,cs),
(43,78,ls),
(31,7,o),
(67,0,o),
(172,0,cs),
(283,0,o),
(298,8,o),
(316,78,cs),
(678,1494,l),
(938,1494,l),
(938,1690,l),
(617,1690,l)
);
},
{
closed = 1;
nodes = (
(878,317,l),
(878,507,l),
(287,507,l),
(287,317,l)
);
},
{
closed = 1;
nodes = (
(987,1,o),
(1001,12,o),
(1003,64,cs),
(1046,1608,ls),
(1048,1677,o),
(1023,1690,o),
(864,1690,cs),
(715,1690,o),
(690,1677,o),
(692,1608,cs),
(736,69,ls),
(738,8,o),
(750,1,o),
(864,1,c)
);
},
{
closed = 1;
nodes = (
(1328,1494,ls),
(1397,1494,o),
(1399,1511,o),
(1399,1592,cs),
(1399,1672,o),
(1397,1690,o),
(1328,1690,cs),
(865,1690,l),
(865,1494,l)
);
},
{
closed = 1;
nodes = (
(1266,690,ls),
(1336,690,o),
(1337,707,o),
(1337,785,cs),
(1337,863,o),
(1336,880,o),
(1266,880,cs),
(804,880,l),
(804,690,l)
);
},
{
closed = 1;
nodes = (
(1290,1,ls),
(1359,1,o),
(1361,22,o),
(1361,94,cs),
(1361,167,o),
(1359,187,o),
(1290,187,cs),
(864,187,l),
(864,1,l)
);
}
);
};
layerId = "3E12A9BE-1094-4827-ACE3-4E9390329AA7";
shapes = (
{
closed = 1;
nodes = (
(283,0,o),
(298,8,o),
(316,78,cs),
(678,1494,l),
(938,1494,l),
(938,1690,l),
(617,1690,l),
(425,1690,o),
(402,1673,o),
(385,1598,cs),
(43,78,ls),
(31,7,o),
(67,0,o),
(172,0,cs)
);
},
{
closed = 1;
nodes = (
(878,317,l),
(878,507,l),
(287,507,l),
(287,317,l)
);
},
{
closed = 1;
nodes = (
(1290,1,ls),
(1359,1,o),
(1361,22,o),
(1361,94,cs),
(1361,167,o),
(1359,187,o),
(1290,187,cs),
(864,187,l),
(864,1,l)
);
},
{
closed = 1;
nodes = (
(987,1,o),
(1001,12,o),
(1003,64,cs),
(1046,1608,ls),
(1048,1677,o),
(1023,1690,o),
(864,1690,cs),
(715,1690,o),
(690,1677,o),
(692,1608,cs),
(736,69,ls),
(738,8,o),
(750,1,o),
(864,1,c)
);
},
{
closed = 1;
nodes = (
(1266,690,ls),
(1336,690,o),
(1337,707,o),
(1337,785,cs),
(1337,863,o),
(1336,880,o),
(1266,880,cs),
(804,880,l),
(804,690,l)
);
},
{
closed = 1;
nodes = (
(1328,1494,ls),
(1397,1494,o),
(1399,1511,o),
(1399,1592,cs),
(1399,1672,o),
(1397,1690,o),
(1328,1690,cs),
(865,1690,l),
(865,1494,l)
);
}
);
userData = {
com.typemytype.robofont.guides = (
{
angle = 0;
isGlobal = 0;
magnetic = 5;
x = 0;
y = 1696;
},
{
angle = 90;
isGlobal = 0;
magnetic = 5;
x = 635;
y = 0;
}
);
};
vertWidth = 0;
width = 1459;
}
);
metricRight = E;
unicode = 198;
},
{
glyphname = AEacute;
lastChange = "2023-01-19 19:42:04 +0000";
layers = (
{
background = {
anchors = (
{
name = btm;
pos = (719,-170);
},
{
name = top;
pos = (719,1700);
}
);
shapes = (
{
closed = 1;
nodes = (
(425,1690,o),
(402,1673,o),
(385,1598,cs),
(43,78,ls),
(31,7,o),
(67,0,o),
(172,0,cs),
(283,0,o),
(298,8,o),
(316,78,cs),
(678,1494,l),
(938,1494,l),
(938,1690,l),
(617,1690,l)
);
},
{
closed = 1;
nodes = (
(878,317,l),
(878,507,l),
(287,507,l),
(287,317,l)
);
},
{
closed = 1;
nodes = (
(987,1,o),
(1001,12,o),
(1003,64,cs),
(1046,1608,ls),
(1048,1677,o),
(1023,1690,o),
(864,1690,cs),
(715,1690,o),
(690,1677,o),
(692,1608,cs),
(736,69,ls),
(738,8,o),
(750,1,o),
(864,1,c)
);
},
{
closed = 1;
nodes = (
(1328,1494,ls),
(1397,1494,o),
(1399,1511,o),
(1399,1592,cs),
(1399,1672,o),
(1397,1690,o),
(1328,1690,cs),
(865,1690,l),
(865,1494,l)
);
},
{
closed = 1;
nodes = (
(1266,690,ls),
(1336,690,o),
(1337,707,o),
(1337,785,cs),
(1337,863,o),
(1336,880,o),
(1266,880,cs),
(804,880,l),
(804,690,l)
);
},
{
closed = 1;
nodes = (
(1290,1,ls),
(1359,1,o),
(1361,22,o),
(1361,94,cs),
(1361,167,o),
(1359,187,o),
(1290,187,cs),
(864,187,l),
(864,1,l)
);
},
{
closed = 1;
nodes = (
(628,1861,o),
(602,1827,o),
(602,1804,cs),
(602,1778,o),
(632,1770,o),
(700,1770,cs),
(796,1770,o),
(802,1780,o),
(840,1827,cs),
(984,2005,ls),
(1009,2037,o),
(1029,2062,o),
(1029,2083,cs),
(1029,2110,o),
(999,2118,o),
(897,2118,cs),
(784,2118,o),
(768,2109,o),
(738,2056,cs),
(656,1910,l)
);
}
);
};
layerId = "3E12A9BE-1094-4827-ACE3-4E9390329AA7";
shapes = (
{
ref = AE;
},
{
pos = (623,0);
ref = acutecomb.case;
}
);
width = 1459;
}
);
unicode = 508;
},
{
glyphname = B;
lastChange = "2023-01-21 07:50:23 +0000";
layers = (
{
anchors = (
{
name = bottom;
pos = (570,0);
},
{
name = center;
pos = (570,845);
},
{
name = hook;
pos = (148,1690);
},
{
name = top;
pos = (570,1690);
}
);
background = {
anchors = (
{
name = btm;
pos = (582,-170);
},
{
name = top;
pos = (582,1700);
}
);
shapes = (
{
closed = 1;
nodes = (
(591,750,ls),
(925,750,o),
(1030,934,o),
(1034,1087,cs),
(1040,1364,ls),
(1046,1595,o),
(834,1690,o),
(560,1690,cs),
(332,1690,l),
(332,1517,l),
(528,1517,ls),
(656,1517,o),
(685,1499,o),
(688,1396,cs),
(702,1019,ls),
(705,907,o),
(667,872,o),
(539,872,cs),
(238,872,l),
(238,750,l)
);
},
{
closed = 1;
nodes = (
(430,0,o),
(444,7,o),
(445,68,cs),
(489,1607,ls),
(491,1676,o),
(465,1690,o),
(307,1690,cs),
(148,1690,o),
(123,1676,o),
(125,1607,cs),
(168,68,ls),
(170,7,o),
(184,0,o),
(307,0,cs)
);
},
{
closed = 1;
nodes = (
(568,0,ls),
(902,0,o),
(1007,165,o),
(1012,317,cs),
(1018,494,ls),
(1026,725,o),
(803,833,o),
(522,833,cs),
(347,833,l),
(347,697,l),
(544,697,ls),
(672,697,o),
(707,675,o),
(712,571,cs),
(718,311,ls),
(723,199,o),
(683,163,o),
(554,163,cs),
(325,163,l),
(325,0,l)
);
}
);
};
layerId = "3E12A9BE-1094-4827-ACE3-4E9390329AA7";
shapes = (
{
closed = 1;
nodes = (
(591,750,ls),
(925,750,o),
(1031,934,o),
(1034,1087,cs),
(1040,1364,ls),
(1045,1595,o),
(834,1690,o),
(560,1690,cs),
(332,1690,l),
(332,1517,l),
(528,1517,ls),
(656,1517,o),
(684,1499,o),
(688,1396,cs),
(702,1019,ls),
(706,907,o),
(667,872,o),
(539,872,cs),
(238,872,l),
(238,750,l)
);
},
{
closed = 1;
nodes = (
(568,0,ls),
(902,0,o),
(1007,165,o),
(1012,317,cs),
(1018,494,ls),
(1026,725,o),
(803,833,o),
(522,833,cs),
(347,833,l),
(347,697,l),
(544,697,ls),
(672,697,o),
(710,675,o),
(712,571,cs),
(718,311,ls),
(721,199,o),
(683,163,o),
(554,163,cs),
(325,163,l),
(325,0,l)
);
},
{
closed = 1;
nodes = (
(430,0,o),
(443,7,o),
(445,68,cs),
(489,1607,ls),
(491,1676,o),
(465,1690,o),
(307,1690,cs),
(148,1690,o),
(123,1676,o),
(125,1607,cs),
(168,68,ls),
(170,7,o),
(184,0,o),
(307,0,cs)
);
}
);
userData = {
com.typemytype.robofont.guides = (
{
angle = 0;
isGlobal = 0;
magnetic = 5;
x = 0;
y = 689;
},
{
angle = 0;
isGlobal = 0;
magnetic = 5;
x = 0;
y = 880;
},
{
angle = 90;
isGlobal = 0;
magnetic = 5;
x = 591;
y = 0;
}
);
};
vertWidth = 0;
width = 1140;
}
);
metricLeft = H;
unicode = 66;
userData = {
KernOnName = B;
};
},
{
glyphname = Bdotaccent;
lastChange = "2023-01-18 14:59:52 +0000";
layers = (
{
background = {
anchors = (
{
name = btm;
pos = (582,-170);
},
{
name = top;
pos = (582,1700);
}
);
shapes = (
{
closed = 1;
nodes = (
(591,750,ls),
(925,750,o),
(1030,934,o),
(1034,1087,cs),
(1040,1364,ls),
(1046,1595,o),
(834,1690,o),
(560,1690,cs),
(332,1690,l),
(332,1517,l),
(528,1517,ls),
(656,1517,o),
(685,1499,o),
(688,1396,cs),
(702,1019,ls),
(705,907,o),
(667,872,o),
(539,872,cs),
(238,872,l),
(238,750,l)
);
},
{
closed = 1;
nodes = (
(430,0,o),
(444,7,o),
(445,68,cs),
(489,1607,ls),
(491,1676,o),
(465,1690,o),
(307,1690,cs),
(148,1690,o),
(123,1676,o),
(125,1607,cs),
(168,68,ls),
(170,7,o),
(184,0,o),
(307,0,cs)
);
},
{
closed = 1;
nodes = (
(568,0,ls),
(902,0,o),
(1007,165,o),
(1012,317,cs),
(1018,494,ls),
(1026,725,o),
(803,833,o),
(522,833,cs),
(347,833,l),
(347,697,l),
(544,697,ls),
(672,697,o),
(707,675,o),
(712,571,cs),
(718,311,ls),
(723,199,o),
(683,163,o),
(554,163,cs),
(325,163,l),
(325,0,l)
);
},
{
closed = 1;
nodes = (
(712,1788,o),
(732,1795,o),
(733,1845,c),
(744,2040,l),
(745,2097,o),
(727,2113,o),
(582,2113,cs),
(437,2113,o),
(419,2097,o),
(420,2040,c),
(432,1845,l),
(433,1795,o),
(452,1788,o),
(582,1788,cs)
);
}
);
};
layerId = "3E12A9BE-1094-4827-ACE3-4E9390329AA7";
shapes = (
{
ref = B;
},
{
pos = (570,0);
ref = dotaccentcomb.case;
}
);
width = 1140;
}
);
unicode = 7682;
},
{
glyphname = C;
lastChange = "2023-01-21 06:16:39 +0000";
layers = (
{
anchors = (
{
name = bottom;
pos = (599,0);
},
{
name = hook;
pos = (1088,1365);
},
{
name = top;
pos = (599,1690);
}
);
background = {
anchors = (
{
name = btm;
pos = (604,-170);
},
{
name = top;
pos = (604,1700);
}
);
shapes = (
{
closed = 1;
nodes = (
(1064,496,o),
(1041,507,o),
(920,507,cs),
(797,507,o),
(758,496,o),
(761,415,cs),
(765,296,ls),
(769,184,o),
(722,151,o),
(604,151,cs),
(486,151,o),
(440,184,o),
(443,296,cs),
(472,1396,ls),
(475,1513,o),
(519,1529,o),
(604,1529,cs),
(689,1529,o),
(733,1513,o),
(736,1396,c),
(749,879,ls),
(751,798,o),
(787,787,o),
(912,787,cs),
(1036,787,o),
(1074,798,o),
(1076,879,cs),
(1088,1365,ls),
(1093,1565,o),
(949,1701,o),
(604,1701,cs),
(258,1701,o),
(115,1565,o),
(120,1365,cs),
(148,305,ls),
(153,131,o),
(281,-12,o),
(604,-12,cs),
(927,-12,o),
(1054,129,o),
(1059,303,c),
(1062,415,l)
);
}
);
};
layerId = "3E12A9BE-1094-4827-ACE3-4E9390329AA7";
shapes = (
{
closed = 1;
nodes = (
(927,-12,o),
(1054,129,o),
(1059,303,c),
(1062,415,l),
(1064,496,o),
(1041,507,o),
(920,507,cs),
(797,507,o),
(758,496,o),
(761,415,cs),
(765,296,ls),
(769,184,o),
(722,151,o),
(604,151,cs),
(486,151,o),
(440,184,o),
(443,296,cs),
(472,1396,ls),
(475,1513,o),
(519,1529,o),
(604,1529,cs),
(689,1529,o),
(733,1513,o),
(736,1396,c),
(749,879,ls),
(751,798,o),
(787,787,o),
(912,787,cs),
(1036,787,o),
(1074,798,o),
(1076,879,cs),
(1088,1365,ls),
(1093,1565,o),
(949,1701,o),
(604,1701,cs),
(258,1701,o),
(115,1565,o),
(120,1365,cs),
(148,305,ls),
(153,131,o),
(281,-12,o),
(604,-12,cs)
);
}
);
vertWidth = 0;
width = 1198;
}
);
unicode = 67;
},
{
glyphname = Cacute;
lastChange = "2023-01-18 14:59:52 +0000";
layers = (
{
background = {
anchors = (
{
name = btm;
pos = (604,-170);
},
{
name = top;
pos = (604,1700);
}
);
shapes = (
{
closed = 1;
nodes = (
(1064,496,o),
(1041,507,o),
(920,507,cs),
(797,507,o),
(758,496,o),
(761,415,cs),
(765,296,ls),
(769,184,o),
(722,151,o),
(604,151,cs),
(486,151,o),
(440,184,o),
(443,296,cs),
(472,1396,ls),
(475,1513,o),
(519,1529,o),
(604,1529,cs),
(689,1529,o),
(733,1513,o),
(736,1396,c),
(749,879,ls),
(751,798,o),
(787,787,o),
(912,787,cs),
(1036,787,o),
(1074,798,o),
(1076,879,cs),
(1088,1365,ls),
(1093,1565,o),
(949,1701,o),
(604,1701,cs),
(258,1701,o),
(115,1565,o),
(120,1365,cs),
(148,305,ls),
(153,131,o),
(281,-12,o),
(604,-12,cs),
(927,-12,o),
(1054,129,o),
(1059,303,c),
(1062,415,l)
);
},
{
closed = 1;
nodes = (
(513,1861,o),
(487,1827,o),
(487,1804,cs),
(487,1778,o),
(517,1770,o),
(585,1770,cs),
(681,1770,o),
(687,1780,o),
(725,1827,cs),
(869,2005,ls),
(894,2037,o),
(914,2062,o),
(914,2083,cs),
(914,2110,o),
(884,2118,o),
(782,2118,cs),
(669,2118,o),
(653,2109,o),
(623,2056,cs),
(541,1910,l)
);
}
);
};
layerId = "3E12A9BE-1094-4827-ACE3-4E9390329AA7";
shapes = (
{
ref = C;
},
{
pos = (502,0);
ref = acutecomb.case;
}
);
width = 1198;
}
);
unicode = 262;
},
{
glyphname = Ccaron;
lastChange = "2023-01-18 14:59:52 +0000";
layers = (
{
background = {
anchors = (
{
name = btm;
pos = (604,-170);
},
{
name = top;
pos = (604,1700);
}
);
shapes = (
{
closed = 1;
nodes = (
(1064,496,o),
(1041,507,o),
(920,507,cs),
(797,507,o),
(758,496,o),
(761,415,cs),
(765,296,ls),
(769,184,o),
(722,151,o),
(604,151,cs),
(486,151,o),
(440,184,o),
(443,296,cs),
(472,1396,ls),
(475,1513,o),
(519,1529,o),
(604,1529,cs),
(689,1529,o),
(733,1513,o),
(736,1396,c),
(749,879,ls),
(751,798,o),
(787,787,o),
(912,787,cs),
(1036,787,o),
(1074,798,o),
(1076,879,cs),
(1088,1365,ls),
(1093,1565,o),
(949,1701,o),
(604,1701,cs),
(258,1701,o),
(115,1565,o),
(120,1365,cs),
(148,305,ls),
(153,131,o),
(281,-12,o),
(604,-12,cs),
(927,-12,o),
(1054,129,o),
(1059,303,c),
(1062,415,l)
);
},
{
closed = 1;
nodes = (
(475,2114,o),
(460,2118,o),
(349,2118,cs),
(247,2118,o),
(228,2108,o),
(228,2081,cs),
(228,2060,o),
(259,2026,o),
(279,2005,cs),
(444,1830,ls),
(485,1786,o),
(501,1784,o),
(595,1784,cs),
(611,1784,ls),
(707,1784,o),
(722,1786,o),
(764,1830,cs),
(931,2005,ls),
(952,2027,o),
(982,2060,o),
(982,2081,cs),
(982,2108,o),
(963,2118,o),
(861,2118,cs),
(758,2118,o),
(743,2112,o),
(707,2064,cs),
(644,1981,ls),
(628,1960,o),
(617,1947,o),
(605,1947,cs),
(592,1947,o),
(582,1959,o),
(564,1985,cs),
(509,2064,l)
);
}
);
};
layerId = "3E12A9BE-1094-4827-ACE3-4E9390329AA7";
shapes = (
{
ref = C;
},
{
pos = (598,0);
ref = caroncomb.case;
}
);
width = 1198;
}
);
unicode = 268;
},
{
glyphname = Ccedilla;
lastChange = "2023-01-19 08:54:57 +0000";
layers = (
{
background = {
anchors = (
{
name = btm;
pos = (604,-170);
},
{
name = top;
pos = (604,1700);
}
);
shapes = (
{
closed = 1;
nodes = (
(1064,496,o),
(1041,507,o),
(920,507,cs),
(797,507,o),
(758,496,o),
(761,415,cs),
(765,296,ls),
(769,184,o),
(722,151,o),
(604,151,cs),
(486,151,o),
(440,184,o),
(443,296,cs),
(472,1396,ls),
(475,1513,o),
(519,1529,o),
(604,1529,cs),
(689,1529,o),
(733,1513,o),
(736,1396,c),
(749,879,ls),
(751,798,o),
(787,787,o),
(912,787,cs),
(1036,787,o),
(1074,798,o),
(1076,879,cs),
(1088,1365,ls),
(1093,1565,o),
(949,1701,o),
(604,1701,cs),
(258,1701,o),
(115,1565,o),
(120,1365,cs),
(148,305,ls),
(153,131,o),
(281,-12,o),
(604,-12,cs),
(927,-12,o),
(1054,129,o),
(1059,303,c),
(1062,415,l)
);
},
{
closed = 1;
nodes = (
(386,-330,o),
(396,-340,o),
(427,-340,cs),
(525,-340,ls),
(564,-340,o),
(577,-337,o),
(595,-292,cs),
(761,86,l),
(525,86,l),
(406,-249,ls),
(397,-276,o),
(386,-297,o),
(386,-309,cs)
);
}
);
};
layerId = "3E12A9BE-1094-4827-ACE3-4E9390329AA7";
shapes = (
{
ref = C;
},
{
pos = (147,0);
ref = cedillacomb;
}
);
width = 1198;
}
);
unicode = 199;
},
{
glyphname = Ccircumflex;
lastChange = "2023-01-18 14:59:52 +0000";
layers = (
{
background = {
anchors = (
{
name = btm;
pos = (604,-170);
},
{
name = top;
pos = (604,1700);
}
);
shapes = (
{
closed = 1;
nodes = (
(1064,496,o),
(1041,507,o),
(920,507,cs),
(797,507,o),
(758,496,o),
(761,415,cs),
(765,296,ls),
(769,184,o),
(722,151,o),
(604,151,cs),
(486,151,o),
(440,184,o),
(443,296,cs),
(472,1396,ls),
(475,1513,o),
(519,1529,o),
(604,1529,cs),
(689,1529,o),
(733,1513,o),
(736,1396,c),
(749,879,ls),
(751,798,o),
(787,787,o),
(912,787,cs),
(1036,787,o),
(1074,798,o),
(1076,879,cs),
(1088,1365,ls),
(1093,1565,o),
(949,1701,o),
(604,1701,cs),
(258,1701,o),
(115,1565,o),
(120,1365,cs),
(148,305,ls),
(153,131,o),
(281,-12,o),
(604,-12,cs),
(927,-12,o),
(1054,129,o),
(1059,303,c),
(1062,415,l)
);
},
{
closed = 1;
nodes = (
(258,1848,o),
(240,1827,o),
(240,1806,cs),
(240,1780,o),
(260,1770,o),
(333,1770,cs),
(409,1770,o),
(418,1779,o),
(473,1832,cs),
(562,1917,ls),
(581,1935,o),
(593,1944,o),
(605,1944,cs),
(617,1944,o),
(629,1935,o),
(646,1918,cs),
(738,1832,ls),
(792,1781,o),
(806,1770,o),
(876,1770,cs),
(958,1770,o),
(969,1780,o),
(969,1806,cs),
(969,1827,o),
(952,1848,o),
(919,1894,cs),
(800,2056,ls),
(759,2112,o),
(731,2118,o),
(686,2118,cs),
(531,2118,ls),
(475,2118,o),
(446,2112,o),
(406,2056,cs),
(290,1894,ls)
);
}
);
};
layerId = "3E12A9BE-1094-4827-ACE3-4E9390329AA7";
shapes = (
{
ref = C;
},
{
pos = (598,0);
ref = circumflexcomb.case;
}
);
width = 1198;
}
);
unicode = 264;
},
{
glyphname = Cdotaccent;
lastChange = "2023-01-18 14:59:52 +0000";
layers = (
{
background = {
anchors = (
{
name = btm;
pos = (604,-170);
},
{
name = top;
pos = (604,1700);
}
);
shapes = (
{
closed = 1;
nodes = (
(1064,496,o),
(1041,507,o),
(920,507,cs),
(797,507,o),
(758,496,o),
(761,415,cs),
(765,296,ls),
(769,184,o),
(722,151,o),
(604,151,cs),
(486,151,o),
(440,184,o),
(443,296,cs),
(472,1396,ls),
(475,1513,o),
(519,1529,o),
(604,1529,cs),
(689,1529,o),
(733,1513,o),
(736,1396,c),
(749,879,ls),
(751,798,o),
(787,787,o),
(912,787,cs),
(1036,787,o),
(1074,798,o),
(1076,879,cs),
(1088,1365,ls),
(1093,1565,o),
(949,1701,o),
(604,1701,cs),
(258,1701,o),
(115,1565,o),
(120,1365,cs),
(148,305,ls),
(153,131,o),
(281,-12,o),
(604,-12,cs),
(927,-12,o),
(1054,129,o),
(1059,303,c),
(1062,415,l)
);
},
{
closed = 1;
nodes = (
(734,1788,o),
(754,1795,o),
(755,1845,c),
(766,2040,l),
(767,2097,o),
(749,2113,o),
(604,2113,cs),
(459,2113,o),
(441,2097,o),
(442,2040,c),
(454,1845,l),
(455,1795,o),
(474,1788,o),
(604,1788,cs)
);
}
);
};
layerId = "3E12A9BE-1094-4827-ACE3-4E9390329AA7";
shapes = (
{
ref = C;
},
{
pos = (599,0);
ref = dotaccentcomb.case;
}
);
width = 1198;
}
);
unicode = 266;
},
{
glyphname = D;
lastChange = "2023-01-21 07:52:04 +0000";
layers = (
{
anchors = (
{
name = bottom;
pos = (611,0);
},
{
name = center;
pos = (611,845);
},
{
name = hook;
pos = (148,1690);
},
{
name = top;
pos = (611,1690);
}
);
background = {
anchors = (
{
name = btm;
pos = (611,-170);
},
{
name = top;
pos = (611,1700);
}
);
shapes = (
{
closed = 1;
nodes = (
(602,0,ls),
(922,0,o),
(1063,124,o),
(1069,324,cs),
(1098,1334,ls),
(1105,1566,o),
(957,1690,o),
(599,1690,cs),
(304,1690,l),
(304,1517,l),
(617,1517,ls),
(702,1517,o),
(744,1498,o),
(747,1382,cs),
(776,311,ls),
(779,199,o),
(738,163,o),
(612,163,cs),
(297,163,l),
(280,0,l)
);
},
{
closed = 1;
nodes = (
(430,0,o),
(444,7,o),
(445,68,cs),
(489,1607,ls),
(491,1676,o),
(465,1690,o),
(307,1690,cs),
(148,1690,o),
(123,1676,o),
(125,1607,cs),
(168,68,ls),
(170,7,o),
(184,0,o),
(307,0,cs)
);
}
);
};
layerId = "3E12A9BE-1094-4827-ACE3-4E9390329AA7";
shapes = (
{
closed = 1;
nodes = (
(602,0,ls),
(922,0,o),
(1063,124,o),
(1069,324,cs),
(1098,1334,ls),
(1105,1566,o),
(957,1690,o),
(599,1690,cs),
(304,1690,l),
(304,1517,l),
(617,1517,ls),
(702,1517,o),
(744,1498,o),
(747,1382,cs),
(776,311,ls),
(779,199,o),
(738,163,o),
(612,163,cs),
(297,163,l),
(280,0,l)
);
},
{
closed = 1;
nodes = (
(430,0,o),
(443,7,o),
(445,68,cs),
(489,1607,ls),
(491,1676,o),
(465,1690,o),
(307,1690,cs),
(148,1690,o),
(123,1676,o),
(125,1607,cs),
(168,68,ls),
(170,7,o),
(184,0,o),
(307,0,cs)
);
}
);
userData = {
com.typemytype.robofont.guides = (
{
angle = 90;
isGlobal = 0;
magnetic = 5;
x = 575;
y = 0;
}
);
};
vertWidth = 0;
width = 1222;
}
);
metricLeft = H;
unicode = 68;
userData = {
KernOnName = D;
};
},
{
color = 4;
glyphname = DZ;
lastChange = "2023-01-25 09:18:37 +0000";
layers = (
{
background = {
anchors = (
{
name = btm;
pos = (1719,-170);
},
{
name = top;
pos = (1719,1700);
}
);
shapes = (
{
closed = 1;
nodes = (
(602,0,ls),
(922,0,o),
(1063,124,o),
(1069,324,cs),
(1098,1334,ls),
(1105,1566,o),
(957,1690,o),
(599,1690,cs),
(304,1690,l),
(304,1517,l),
(617,1517,ls),
(702,1517,o),
(744,1498,o),
(747,1382,cs),
(776,311,ls),
(779,199,o),
(738,163,o),
(612,163,cs),
(297,163,l),
(280,0,l)
);
},
{
closed = 1;
nodes = (
(430,0,o),
(444,7,o),
(445,68,cs),
(489,1607,ls),
(491,1676,o),
(465,1690,o),
(307,1690,cs),
(148,1690,o),
(123,1676,o),
(125,1607,cs),
(168,68,ls),
(170,7,o),
(184,0,o),
(307,0,cs)
);
},
{
closed = 1;
nodes = (
(1582,0,o),
(1571,15,o),
(1589,63,cs),
(2152,1523,l),
(1972,1690,l),
(1832,1690,o),
(1831,1673,o),
(1810,1607,cs),
(1329,166,l),
(1469,0,l)
);
},
{
closed = 1;
nodes = (
(2155,1494,o),
(2157,1511,o),
(2157,1592,cs),
(2157,1672,o),
(2155,1690,o),
(2085,1690,cs),
(1353,1690,ls),
(1283,1690,o),
(1281,1672,o),
(1281,1592,cs),
(1281,1511,o),
(1283,1494,o),
(1353,1494,cs),
(2085,1494,l)
);
},
{
closed = 1;
nodes = (
(2111,0,o),
(2113,18,o),
(2113,98,cs),
(2113,178,o),
(2111,196,o),
(2042,196,cs),
(1395,196,ls),
(1326,196,o),
(1324,178,o),
(1324,98,cs),
(1324,18,o),
(1326,0,o),
(1395,0,cs),
(2042,0,l)
);
}
);
};
layerId = "3E12A9BE-1094-4827-ACE3-4E9390329AA7";
shapes = (
{
alignment = -1;
ref = D;
},
{
alignment = -1;
pos = (1191,0);
ref = Z;
}
);
width = 2185;
}
);
unicode = 497;
},
{
color = 4;
glyphname = DZcaron;
lastChange = "2023-01-25 09:18:37 +0000";
layers = (
{
background = {
anchors = (
{
name = btm;
pos = (1719,-170);
},
{
name = top;
pos = (1719,1700);
}
);
shapes = (
{
closed = 1;
nodes = (
(602,0,ls),
(922,0,o),
(1063,124,o),
(1069,324,cs),
(1098,1334,ls),
(1105,1566,o),
(957,1690,o),
(599,1690,cs),
(304,1690,l),
(304,1517,l),
(617,1517,ls),
(702,1517,o),
(744,1498,o),
(747,1382,cs),
(776,311,ls),
(779,199,o),
(738,163,o),
(612,163,cs),
(297,163,l),
(280,0,l)
);
},
{
closed = 1;
nodes = (
(430,0,o),
(444,7,o),
(445,68,cs),
(489,1607,ls),
(491,1676,o),
(465,1690,o),
(307,1690,cs),
(148,1690,o),
(123,1676,o),
(125,1607,cs),
(168,68,ls),
(170,7,o),
(184,0,o),
(307,0,cs)
);
},
{
closed = 1;
nodes = (
(1582,0,o),
(1571,15,o),
(1589,63,cs),
(2152,1523,l),
(1972,1690,l),
(1832,1690,o),
(1831,1673,o),
(1810,1607,cs),
(1329,166,l),
(1469,0,l)
);
},
{
closed = 1;
nodes = (
(2155,1494,o),
(2157,1511,o),
(2157,1592,cs),
(2157,1672,o),
(2155,1690,o),
(2085,1690,cs),
(1353,1690,ls),
(1283,1690,o),
(1281,1672,o),
(1281,1592,cs),
(1281,1511,o),
(1283,1494,o),
(1353,1494,cs),
(2085,1494,l)
);
},
{
closed = 1;
nodes = (
(2111,0,o),
(2113,18,o),
(2113,98,cs),
(2113,178,o),
(2111,196,o),
(2042,196,cs),
(1395,196,ls),
(1326,196,o),
(1324,178,o),
(1324,98,cs),
(1324,18,o),
(1326,0,o),
(1395,0,cs),
(2042,0,l)
);
},
{
closed = 1;
nodes = (
(1590,2114,o),
(1575,2118,o),
(1464,2118,cs),
(1362,2118,o),
(1343,2108,o),
(1343,2081,cs),
(1343,2060,o),
(1374,2026,o),
(1394,2005,cs),
(1559,1830,ls),
(1600,1786,o),
(1616,1784,o),
(1710,1784,cs),
(1726,1784,ls),
(1822,1784,o),
(1837,1786,o),
(1879,1830,cs),
(2046,2005,ls),
(2067,2027,o),
(2097,2060,o),
(2097,2081,cs),
(2097,2108,o),
(2078,2118,o),
(1976,2118,cs),
(1873,2118,o),
(1858,2112,o),
(1822,2064,cs),
(1759,1981,ls),
(1743,1960,o),
(1732,1947,o),
(1720,1947,cs),
(1707,1947,o),
(1697,1959,o),
(1679,1985,cs),
(1624,2064,l)
);
}
);
};
layerId = "3E12A9BE-1094-4827-ACE3-4E9390329AA7";
shapes = (
{
alignment = -1;
ref = D;
},
{
alignment = -1;
pos = (1191,0);
ref = Z;
},
{
alignment = -1;
pos = (1687,0);
ref = caroncomb.case;
}
);
width = 2185;
}
);
unicode = 452;
},
{
glyphname = Eth;
lastChange = "2023-01-18 14:51:08 +0000";
layers = (
{
background = {
shapes = (
{
closed = 1;
nodes = (
(602,0,ls),
(922,0,o),
(1063,124,o),
(1069,324,cs),
(1098,1334,ls),
(1105,1566,o),
(957,1690,o),
(599,1690,cs),
(304,1690,l),
(304,1517,l),
(617,1517,ls),
(702,1517,o),
(744,1498,o),
(747,1382,cs),
(776,311,ls),
(779,199,o),
(738,163,o),
(612,163,cs),
(297,163,l),
(280,0,l)
);
},
{
closed = 1;
nodes = (
(430,0,o),
(444,7,o),
(445,68,cs),
(489,1607,ls),
(491,1676,o),
(465,1690,o),
(307,1690,cs),
(148,1690,o),
(123,1676,o),
(125,1607,cs),
(168,68,ls),
(170,7,o),
(184,0,o),
(307,0,cs)
);
},
{
closed = 1;
nodes = (
(648,781,o),
(650,797,o),
(650,871,cs),
(650,945,o),
(648,961,o),
(578,961,cs),
(89,961,ls),
(19,961,o),
(17,945,o),
(17,871,cs),
(17,797,o),
(19,781,o),
(89,781,cs),
(578,781,l)
);
}
);
};
layerId = "3E12A9BE-1094-4827-ACE3-4E9390329AA7";
shapes = (
{
closed = 1;
nodes = (
(602,0,ls),
(922,0,o),
(1063,124,o),
(1069,324,cs),
(1098,1334,ls),
(1105,1566,o),
(957,1690,o),
(599,1690,cs),
(304,1690,l),
(304,1517,l),
(617,1517,ls),
(702,1517,o),
(744,1498,o),
(747,1382,cs),
(776,311,ls),
(779,199,o),
(738,163,o),
(612,163,cs),
(297,163,l),
(280,0,l)
);
},
{
closed = 1;
nodes = (
(430,0,o),
(444,7,o),
(445,68,cs),
(489,1607,ls),
(491,1676,o),
(465,1690,o),
(307,1690,cs),
(148,1690,o),
(123,1676,o),
(125,1607,cs),
(168,68,ls),
(170,7,o),
(184,0,o),
(307,0,cs)
);
},
{
closed = 1;
nodes = (
(578,781,l),
(648,781,o),
(650,797,o),
(650,871,cs),
(650,945,o),
(648,961,o),
(578,961,cs),
(89,961,ls),
(19,961,o),
(17,945,o),
(17,871,cs),
(17,797,o),
(19,781,o),
(89,781,cs)
);
}
);
vertWidth = 0;
width = 1222;
}
);
unicode = 208;
},
{
glyphname = Dcaron;
lastChange = "2023-01-18 14:59:52 +0000";
layers = (
{
background = {
anchors = (
{
name = btm;
pos = (611,-170);
},
{
name = top;
pos = (611,1700);
}
);
shapes = (
{
closed = 1;
nodes = (
(602,0,ls),
(922,0,o),
(1063,124,o),
(1069,324,cs),
(1098,1334,ls),
(1105,1566,o),
(957,1690,o),
(599,1690,cs),
(304,1690,l),
(304,1517,l),
(617,1517,ls),
(702,1517,o),
(744,1498,o),
(747,1382,cs),
(776,311,ls),
(779,199,o),
(738,163,o),
(612,163,cs),
(297,163,l),
(280,0,l)
);
},
{
closed = 1;
nodes = (
(430,0,o),
(444,7,o),
(445,68,cs),
(489,1607,ls),
(491,1676,o),
(465,1690,o),
(307,1690,cs),
(148,1690,o),
(123,1676,o),
(125,1607,cs),
(168,68,ls),
(170,7,o),
(184,0,o),
(307,0,cs)
);
},
{
closed = 1;
nodes = (
(482,2114,o),
(467,2118,o),
(356,2118,cs),
(254,2118,o),
(235,2108,o),
(235,2081,cs),
(235,2060,o),
(266,2026,o),
(286,2005,cs),
(451,1830,ls),
(492,1786,o),
(508,1784,o),
(602,1784,cs),
(618,1784,ls),
(714,1784,o),
(729,1786,o),
(771,1830,cs),
(938,2005,ls),
(959,2027,o),
(989,2060,o),
(989,2081,cs),
(989,2108,o),
(970,2118,o),
(868,2118,cs),
(765,2118,o),
(750,2112,o),
(714,2064,cs),
(651,1981,ls),
(635,1960,o),
(624,1947,o),
(612,1947,cs),
(599,1947,o),
(589,1959,o),
(571,1985,cs),
(516,2064,l)
);
}
);
};
layerId = "3E12A9BE-1094-4827-ACE3-4E9390329AA7";
shapes = (
{
ref = D;
},
{
pos = (610,0);
ref = caroncomb.case;
}
);
width = 1222;
}
);
unicode = 270;
},
{
glyphname = Dcroat;
lastChange = "2023-01-13 14:20:01 +0000";
layers = (
{
background = {
shapes = (
{
closed = 1;
nodes = (
(602,0,ls),
(922,0,o),
(1063,124,o),
(1069,324,cs),
(1098,1334,ls),
(1105,1566,o),
(957,1690,o),
(599,1690,cs),
(304,1690,l),
(304,1517,l),
(617,1517,ls),
(702,1517,o),
(744,1498,o),
(747,1382,cs),
(776,311,ls),
(779,199,o),
(738,163,o),
(612,163,cs),
(297,163,l),
(280,0,l)
);
},
{
closed = 1;
nodes = (
(430,0,o),
(444,7,o),
(445,68,cs),
(489,1607,ls),
(491,1676,o),
(465,1690,o),
(307,1690,cs),
(148,1690,o),
(123,1676,o),
(125,1607,cs),
(168,68,ls),
(170,7,o),
(184,0,o),
(307,0,cs)
);
},
{
closed = 1;
nodes = (
(648,781,o),
(650,797,o),
(650,871,cs),
(650,945,o),
(648,961,o),
(578,961,cs),
(89,961,ls),
(19,961,o),
(17,945,o),
(17,871,cs),
(17,797,o),
(19,781,o),
(89,781,cs),
(578,781,l)
);
}
);
};
layerId = "3E12A9BE-1094-4827-ACE3-4E9390329AA7";
shapes = (
{
ref = Eth;
}
);
width = 1222;
}
);
unicode = 272;
},
{
glyphname = Ddotaccent;
lastChange = "2023-01-13 14:20:01 +0000";
layers = (
{
background = {
anchors = (
{
name = btm;
pos = (611,-170);
},
{
name = top;
pos = (611,1700);
}
);
shapes = (
{
closed = 1;
nodes = (
(602,0,ls),
(922,0,o),
(1063,124,o),
(1069,324,cs),
(1098,1334,ls),
(1105,1566,o),
(957,1690,o),
(599,1690,cs),
(304,1690,l),
(304,1517,l),
(617,1517,ls),
(702,1517,o),
(744,1498,o),
(747,1382,cs),
(776,311,ls),
(779,199,o),
(738,163,o),
(612,163,cs),
(297,163,l),
(280,0,l)
);
},
{
closed = 1;
nodes = (
(430,0,o),
(444,7,o),
(445,68,cs),
(489,1607,ls),
(491,1676,o),
(465,1690,o),
(307,1690,cs),
(148,1690,o),
(123,1676,o),
(125,1607,cs),
(168,68,ls),
(170,7,o),
(184,0,o),
(307,0,cs)
);
},
{
closed = 1;
nodes = (
(741,1788,o),
(761,1795,o),
(762,1845,c),
(773,2040,l),
(774,2097,o),
(756,2113,o),
(611,2113,cs),
(466,2113,o),
(448,2097,o),
(449,2040,c),
(461,1845,l),
(462,1795,o),
(481,1788,o),
(611,1788,cs)
);
}
);
};
layerId = "3E12A9BE-1094-4827-ACE3-4E9390329AA7";
shapes = (
{
ref = D;
},
{
pos = (611,0);
ref = dotaccentcomb.case;
}
);
width = 1222;
}
);
unicode = 7690;
},
{
color = 4;
glyphname = Dz;
lastChange = "2023-01-25 09:18:37 +0000";
layers = (
{
background = {
anchors = (
{
name = btm;
pos = (1633,-170);
},
{
name = top;
pos = (1633,1700);
}
);
shapes = (
{
closed = 1;
nodes = (
(602,0,ls),
(922,0,o),
(1063,124,o),
(1069,324,cs),
(1098,1334,ls),
(1105,1566,o),
(957,1690,o),
(599,1690,cs),
(304,1690,l),
(304,1517,l),
(617,1517,ls),
(702,1517,o),
(744,1498,o),
(747,1382,cs),
(776,311,ls),
(779,199,o),
(738,163,o),
(612,163,cs),
(297,163,l),
(280,0,l)
);
},
{
closed = 1;
nodes = (
(430,0,o),
(444,7,o),
(445,68,cs),
(489,1607,ls),
(491,1676,o),
(465,1690,o),
(307,1690,cs),
(148,1690,o),
(123,1676,o),
(125,1607,cs),
(168,68,ls),
(170,7,o),
(184,0,o),
(307,0,cs)
);
},
{
closed = 1;
nodes = (
(2003,1081,ls),
(2026,1144,o),
(2017,1202,o),
(1938,1202,cs),
(1852,1202,l),
(1695,1129,l),
(1294,116,ls),
(1269,53,o),
(1278,0,o),
(1390,0,cs),
(1453,0,l),
(1539,57,l)
);
},
{
closed = 1;
nodes = (
(1909,1202,l),
(1324,1202,ls),
(1254,1202,o),
(1252,1182,o),
(1252,1092,cs),
(1252,1010,o),
(1254,992,o),
(1324,992,cs),
(1909,992,l)
);
},
{
closed = 1;
nodes = (
(1982,0,o),
(1984,16,o),
(1984,90,cs),
(1984,164,o),
(1982,180,o),
(1912,180,cs),
(1401,180,l),
(1401,0,l),
(1912,0,l)
);
}
);
};
layerId = "3E12A9BE-1094-4827-ACE3-4E9390329AA7";
shapes = (
{
alignment = -1;
ref = D;
},
{
alignment = -1;
pos = (1222,0);
ref = z;
}
);
width = 2045;
}
);
unicode = 498;
},
{
color = 4;
glyphname = Dzcaron;
lastChange = "2023-01-25 09:18:37 +0000";
layers = (
{
background = {
anchors = (
{
name = btm;
pos = (1633,-170);
},
{
name = top;
pos = (1633,1700);
}
);
shapes = (
{
closed = 1;
nodes = (
(602,0,ls),
(922,0,o),
(1063,124,o),
(1069,324,cs),
(1098,1334,ls),
(1105,1566,o),
(957,1690,o),
(599,1690,cs),
(304,1690,l),
(304,1517,l),
(617,1517,ls),
(702,1517,o),
(744,1498,o),
(747,1382,cs),
(776,311,ls),
(779,199,o),
(738,163,o),
(612,163,cs),
(297,163,l),
(280,0,l)
);
},
{
closed = 1;
nodes = (
(430,0,o),
(444,7,o),
(445,68,cs),
(489,1607,ls),
(491,1676,o),
(465,1690,o),
(307,1690,cs),
(148,1690,o),
(123,1676,o),
(125,1607,cs),
(168,68,ls),
(170,7,o),
(184,0,o),
(307,0,cs)
);
},
{
closed = 1;
nodes = (
(2003,1081,ls),
(2026,1144,o),
(2017,1202,o),
(1938,1202,cs),
(1852,1202,l),
(1695,1129,l),
(1294,116,ls),
(1269,53,o),
(1278,0,o),
(1390,0,cs),
(1453,0,l),
(1539,57,l)
);
},
{
closed = 1;
nodes = (
(1909,1202,l),
(1324,1202,ls),
(1254,1202,o),
(1252,1182,o),
(1252,1092,cs),
(1252,1010,o),
(1254,992,o),
(1324,992,cs),
(1909,992,l)
);
},
{
closed = 1;
nodes = (
(1982,0,o),
(1984,16,o),
(1984,90,cs),
(1984,164,o),
(1982,180,o),
(1912,180,cs),
(1401,180,l),
(1401,0,l),
(1912,0,l)
);
},
{
closed = 1;
nodes = (
(1503,1775,o),
(1489,1784,o),
(1378,1784,cs),
(1276,1784,o),
(1257,1774,o),
(1257,1747,cs),
(1257,1726,o),
(1281,1694,o),
(1299,1671,cs),
(1481,1441,ls),
(1518,1394,o),
(1530,1382,o),
(1624,1382,cs),
(1640,1382,ls),
(1736,1382,o),
(1748,1394,o),
(1785,1441,cs),
(1969,1671,ls),
(1988,1694,o),
(2011,1726,o),
(2011,1747,cs),
(2011,1774,o),
(1992,1784,o),
(1890,1784,cs),
(1779,1784,o),
(1772,1774,o),
(1741,1722,cs),
(1666,1597,ls),
(1653,1574,o),
(1644,1563,o),
(1634,1563,cs),
(1623,1563,o),
(1614,1575,o),
(1600,1601,cs),
(1534,1722,l)
);
}
);
};
layerId = "3E12A9BE-1094-4827-ACE3-4E9390329AA7";
shapes = (
{
alignment = -1;
ref = D;
},
{
alignment = -1;
pos = (1222,0);
ref = z;
},
{
alignment = -1;
pos = (1133,0);
ref = caroncomb;
}
);
width = 2045;
}
);
unicode = 453;
},
{
glyphname = E;
lastChange = "2023-01-21 07:50:23 +0000";
layers = (
{
anchors = (
{
name = bottom;
pos = (451,0);
},
{
name = ogonek;
pos = (811,10);
},
{
name = top;
pos = (451,1690);
},
{
name = topleft;
pos = (20,1690);
}
);
background = {
anchors = (
{
name = btm;
pos = (482,-170);
},
{
name = top;
pos = (482,1700);
}
);
shapes = (
{
closed = 1;
nodes = (
(430,0,o),
(444,11,o),
(445,63,cs),
(489,1607,ls),
(491,1676,o),
(465,1690,o),
(307,1690,cs),
(148,1690,o),
(123,1676,o),
(125,1607,cs),
(168,68,ls),
(170,7,o),
(184,0,o),
(307,0,c)
);
},
{
closed = 1;
nodes = (
(770,1493,ls),
(840,1493,o),
(841,1510,o),
(841,1591,cs),
(841,1671,o),
(840,1689,o),
(770,1689,cs),
(308,1689,l),
(308,1493,l)
);
},
{
closed = 1;
nodes = (
(709,689,ls),
(778,689,o),
(780,706,o),
(780,784,cs),
(780,862,o),
(778,879,o),
(709,879,cs),
(247,879,l),
(247,689,l)
);
},
{
closed = 1;
nodes = (
(733,0,ls),
(802,0,o),
(804,21,o),
(804,93,cs),
(804,166,o),
(802,186,o),
(733,186,cs),
(307,186,l),
(307,0,l)
);
}
);
};
layerId = "3E12A9BE-1094-4827-ACE3-4E9390329AA7";
shapes = (
{
closed = 1;
nodes = (
(733,0,ls),
(802,0,o),
(804,21,o),
(804,93,cs),
(804,166,o),
(802,186,o),
(733,186,cs),
(449,186,l),
(463,689,l),
(709,689,ls),
(778,689,o),
(780,706,o),
(780,784,cs),
(780,862,o),
(778,879,o),
(709,879,cs),
(468,879,l),
(486,1493,l),
(770,1493,ls),
(840,1493,o),
(841,1510,o),
(841,1591,cs),
(841,1671,o),
(840,1689,o),
(770,1689,cs),
(669,1689,o),
(338,1690,o),
(237,1690,cs),
(148,1690,o),
(123,1676,o),
(125,1607,cs),
(168,68,ls),
(170,7,o),
(184,0,o),
(307,0,cs)
);
}
);
vertWidth = 0;
width = 901;
}
);
metricLeft = H;
unicode = 69;
userData = {
KernOnName = E;
};
},
{
glyphname = Eacute;
lastChange = "2023-01-18 14:59:52 +0000";
layers = (
{
background = {
anchors = (
{
name = btm;
pos = (482,-170);
},
{
name = top;
pos = (482,1700);
}
);
shapes = (
{
closed = 1;
nodes = (
(430,0,o),
(444,11,o),
(445,63,cs),
(489,1607,ls),
(491,1676,o),
(465,1690,o),
(307,1690,cs),
(148,1690,o),
(123,1676,o),
(125,1607,cs),
(168,68,ls),
(170,7,o),
(184,0,o),
(307,0,c)
);
},
{
closed = 1;
nodes = (
(770,1493,ls),
(840,1493,o),
(841,1510,o),
(841,1591,cs),
(841,1671,o),
(840,1689,o),
(770,1689,cs),
(308,1689,l),
(308,1493,l)
);
},
{
closed = 1;
nodes = (
(709,689,ls),
(778,689,o),
(780,706,o),
(780,784,cs),
(780,862,o),
(778,879,o),
(709,879,cs),
(247,879,l),
(247,689,l)
);
},
{
closed = 1;
nodes = (
(733,0,ls),
(802,0,o),
(804,21,o),
(804,93,cs),
(804,166,o),
(802,186,o),
(733,186,cs),
(307,186,l),
(307,0,l)
);
},
{
closed = 1;
nodes = (
(391,1861,o),
(365,1827,o),
(365,1804,cs),
(365,1778,o),
(395,1770,o),
(463,1770,cs),
(559,1770,o),
(565,1780,o),
(603,1827,cs),
(747,2005,ls),
(772,2037,o),
(792,2062,o),
(792,2083,cs),
(792,2110,o),
(762,2118,o),
(660,2118,cs),
(547,2118,o),
(531,2109,o),
(501,2056,cs),
(419,1910,l)
);
}
);
};
layerId = "3E12A9BE-1094-4827-ACE3-4E9390329AA7";
shapes = (
{
ref = E;
},
{
pos = (354,0);
ref = acutecomb.case;
}
);
width = 901;
}
);
unicode = 201;
},
{
glyphname = Ebreve;
lastChange = "2023-01-18 14:59:52 +0000";
layers = (
{
background = {
anchors = (
{
name = btm;
pos = (482,-170);
},
{
name = top;
pos = (482,1700);
}
);
shapes = (
{
closed = 1;
nodes = (
(430,0,o),
(444,11,o),
(445,63,cs),
(489,1607,ls),
(491,1676,o),
(465,1690,o),
(307,1690,cs),
(148,1690,o),
(123,1676,o),
(125,1607,cs),
(168,68,ls),
(170,7,o),
(184,0,o),
(307,0,c)
);
},
{
closed = 1;
nodes = (
(770,1493,ls),
(840,1493,o),
(841,1510,o),
(841,1591,cs),
(841,1671,o),
(840,1689,o),
(770,1689,cs),
(308,1689,l),
(308,1493,l)
);
},
{
closed = 1;
nodes = (
(709,689,ls),
(778,689,o),
(780,706,o),
(780,784,cs),
(780,862,o),
(778,879,o),
(709,879,cs),
(247,879,l),
(247,689,l)
);
},
{
closed = 1;
nodes = (
(733,0,ls),
(802,0,o),
(804,21,o),
(804,93,cs),
(804,166,o),
(802,186,o),
(733,186,cs),
(307,186,l),
(307,0,l)
);
},
{
closed = 1;
nodes = (
(353,2117,o),
(295,2118,o),
(207,2118,cs),
(105,2118,o),
(106,2088,o),
(106,2061,cs),
(106,1876,o),
(282,1776,o),
(473,1776,cs),
(490,1776,ls),
(682,1776,o),
(860,1835,o),
(860,2061,cs),
(860,2088,o),
(861,2118,o),
(759,2118,cs),
(668,2118,o),
(615,2116,o),
(615,2056,cs),
(615,1988,o),
(582,1957,o),
(483,1957,cs),
(382,1957,o),
(353,1989,o),
(353,2056,cs)
);
}
);
};
layerId = "3E12A9BE-1094-4827-ACE3-4E9390329AA7";
shapes = (
{
ref = E;
},
{
pos = (450,0);
ref = brevecomb.case;
}
);
width = 901;
}
);
unicode = 276;
},
{
glyphname = Ecaron;
lastChange = "2023-01-18 14:59:52 +0000";
layers = (
{
background = {
anchors = (
{
name = btm;
pos = (482,-170);
},
{
name = top;
pos = (482,1700);
}
);
shapes = (
{
closed = 1;
nodes = (
(430,0,o),
(444,11,o),
(445,63,cs),
(489,1607,ls),
(491,1676,o),
(465,1690,o),
(307,1690,cs),
(148,1690,o),
(123,1676,o),
(125,1607,cs),
(168,68,ls),
(170,7,o),
(184,0,o),
(307,0,c)
);
},
{
closed = 1;
nodes = (
(770,1493,ls),
(840,1493,o),
(841,1510,o),
(841,1591,cs),
(841,1671,o),
(840,1689,o),
(770,1689,cs),
(308,1689,l),
(308,1493,l)
);
},
{
closed = 1;
nodes = (
(709,689,ls),
(778,689,o),
(780,706,o),
(780,784,cs),
(780,862,o),
(778,879,o),
(709,879,cs),
(247,879,l),
(247,689,l)
);
},
{
closed = 1;
nodes = (
(733,0,ls),
(802,0,o),
(804,21,o),
(804,93,cs),
(804,166,o),
(802,186,o),
(733,186,cs),
(307,186,l),
(307,0,l)
);
},
{
closed = 1;
nodes = (
(353,2114,o),
(338,2118,o),
(227,2118,cs),
(125,2118,o),
(106,2108,o),
(106,2081,cs),
(106,2060,o),
(137,2026,o),
(157,2005,cs),
(322,1830,ls),
(363,1786,o),
(379,1784,o),
(473,1784,cs),
(489,1784,ls),
(585,1784,o),
(600,1786,o),
(642,1830,cs),
(809,2005,ls),
(830,2027,o),
(860,2060,o),
(860,2081,cs),
(860,2108,o),
(841,2118,o),
(739,2118,cs),
(636,2118,o),
(621,2112,o),
(585,2064,cs),
(522,1981,ls),
(506,1960,o),
(495,1947,o),
(483,1947,cs),
(470,1947,o),
(460,1959,o),
(442,1985,cs),
(387,2064,l)
);
}
);
};
layerId = "3E12A9BE-1094-4827-ACE3-4E9390329AA7";
shapes = (
{
ref = E;
},
{
pos = (450,0);
ref = caroncomb.case;
}
);
width = 901;
}
);
unicode = 282;
},
{
glyphname = Ecircumflex;
lastChange = "2023-01-18 14:59:52 +0000";
layers = (
{
background = {
anchors = (
{
name = btm;
pos = (482,-170);
},
{
name = top;
pos = (482,1700);
}
);
shapes = (
{
closed = 1;
nodes = (
(430,0,o),
(444,11,o),
(445,63,cs),
(489,1607,ls),
(491,1676,o),
(465,1690,o),
(307,1690,cs),
(148,1690,o),
(123,1676,o),
(125,1607,cs),
(168,68,ls),
(170,7,o),
(184,0,o),
(307,0,c)
);
},
{
closed = 1;
nodes = (
(770,1493,ls),
(840,1493,o),
(841,1510,o),
(841,1591,cs),
(841,1671,o),
(840,1689,o),
(770,1689,cs),
(308,1689,l),
(308,1493,l)
);
},
{
closed = 1;
nodes = (
(709,689,ls),
(778,689,o),
(780,706,o),
(780,784,cs),
(780,862,o),
(778,879,o),
(709,879,cs),
(247,879,l),
(247,689,l)
);
},
{
closed = 1;
nodes = (
(733,0,ls),
(802,0,o),
(804,21,o),
(804,93,cs),
(804,166,o),
(802,186,o),
(733,186,cs),
(307,186,l),
(307,0,l)
);
},
{
closed = 1;
nodes = (
(136,1848,o),
(118,1827,o),
(118,1806,cs),
(118,1780,o),
(138,1770,o),
(211,1770,cs),
(287,1770,o),
(296,1779,o),
(351,1832,cs),
(440,1917,ls),
(459,1935,o),
(471,1944,o),
(483,1944,cs),
(495,1944,o),
(507,1935,o),
(524,1918,cs),
(616,1832,ls),
(670,1781,o),
(684,1770,o),
(754,1770,cs),
(836,1770,o),
(847,1780,o),
(847,1806,cs),
(847,1827,o),
(830,1848,o),
(797,1894,cs),
(678,2056,ls),
(637,2112,o),
(609,2118,o),
(564,2118,cs),
(409,2118,ls),
(353,2118,o),
(324,2112,o),
(284,2056,cs),
(168,1894,ls)
);
}
);
};
layerId = "3E12A9BE-1094-4827-ACE3-4E9390329AA7";
shapes = (
{
ref = E;
},
{
pos = (450,0);
ref = circumflexcomb.case;
}
);
width = 901;
}
);
unicode = 202;
},
{
glyphname = Edieresis;
lastChange = "2023-01-18 14:59:52 +0000";
layers = (
{
background = {
anchors = (
{
name = btm;
pos = (482,-170);
},
{
name = top;
pos = (482,1700);
}
);
shapes = (
{
closed = 1;
nodes = (
(430,0,o),
(444,11,o),
(445,63,cs),
(489,1607,ls),
(491,1676,o),
(465,1690,o),
(307,1690,cs),
(148,1690,o),
(123,1676,o),
(125,1607,cs),
(168,68,ls),
(170,7,o),
(184,0,o),
(307,0,c)
);
},
{
closed = 1;
nodes = (
(770,1493,ls),
(840,1493,o),
(841,1510,o),
(841,1591,cs),
(841,1671,o),
(840,1689,o),
(770,1689,cs),
(308,1689,l),
(308,1493,l)
);
},
{
closed = 1;
nodes = (
(709,689,ls),
(778,689,o),
(780,706,o),
(780,784,cs),
(780,862,o),
(778,879,o),
(709,879,cs),
(247,879,l),
(247,689,l)
);
},
{
closed = 1;
nodes = (
(733,0,ls),
(802,0,o),
(804,21,o),
(804,93,cs),
(804,166,o),
(802,186,o),
(733,186,cs),
(307,186,l),
(307,0,l)
);
},
{
closed = 1;
nodes = (
(371,1817,o),
(387,1824,o),
(390,1874,cs),
(401,2037,ls),
(404,2094,o),
(386,2110,o),
(259,2110,cs),
(132,2110,o),
(113,2094,o),
(117,2037,cs),
(129,1874,ls),
(132,1824,o),
(147,1817,o),
(259,1817,cs)
);
},
{
closed = 1;
nodes = (
(817,1817,o),
(833,1824,o),
(836,1874,cs),
(847,2037,ls),
(850,2094,o),
(832,2110,o),
(705,2110,cs),
(578,2110,o),
(559,2094,o),
(563,2037,cs),
(575,1874,ls),
(578,1824,o),
(593,1817,o),
(705,1817,cs)
);
}
);
};
layerId = "3E12A9BE-1094-4827-ACE3-4E9390329AA7";
shapes = (
{
ref = E;
},
{
pos = (451,0);
ref = dieresiscomb.case;
}
);
width = 901;
}
);
unicode = 203;
},
{
glyphname = Edotaccent;
lastChange = "2023-01-18 14:59:52 +0000";
layers = (
{
background = {
anchors = (
{
name = btm;
pos = (482,-170);
},
{
name = top;
pos = (482,1700);
}
);
shapes = (
{
closed = 1;
nodes = (
(430,0,o),
(444,11,o),
(445,63,cs),
(489,1607,ls),
(491,1676,o),
(465,1690,o),
(307,1690,cs),
(148,1690,o),
(123,1676,o),
(125,1607,cs),
(168,68,ls),
(170,7,o),
(184,0,o),
(307,0,c)
);
},
{
closed = 1;
nodes = (
(770,1493,ls),
(840,1493,o),
(841,1510,o),
(841,1591,cs),
(841,1671,o),
(840,1689,o),
(770,1689,cs),
(308,1689,l),
(308,1493,l)
);
},
{
closed = 1;
nodes = (
(709,689,ls),
(778,689,o),
(780,706,o),
(780,784,cs),
(780,862,o),
(778,879,o),
(709,879,cs),
(247,879,l),
(247,689,l)
);
},
{
closed = 1;
nodes = (
(733,0,ls),
(802,0,o),
(804,21,o),
(804,93,cs),
(804,166,o),
(802,186,o),
(733,186,cs),
(307,186,l),
(307,0,l)
);
},
{
closed = 1;
nodes = (
(612,1788,o),
(632,1795,o),
(633,1845,c),
(644,2040,l),
(645,2097,o),
(627,2113,o),
(482,2113,cs),
(337,2113,o),
(319,2097,o),
(320,2040,c),
(332,1845,l),
(333,1795,o),
(352,1788,o),
(482,1788,cs)
);
}
);
};
layerId = "3E12A9BE-1094-4827-ACE3-4E9390329AA7";
shapes = (
{
ref = E;
},
{
pos = (451,0);
ref = dotaccentcomb.case;
}
);
width = 901;
}
);
unicode = 278;
},
{
glyphname = Egrave;
lastChange = "2023-01-18 15:24:44 +0000";
layers = (
{
background = {
anchors = (
{
name = btm;
pos = (482,-170);
},
{
name = top;
pos = (482,1700);
}
);
shapes = (
{
closed = 1;
nodes = (
(430,0,o),
(444,11,o),
(445,63,cs),
(489,1607,ls),
(491,1676,o),
(465,1690,o),
(307,1690,cs),
(148,1690,o),
(123,1676,o),
(125,1607,cs),
(168,68,ls),
(170,7,o),
(184,0,o),
(307,0,c)
);
},
{
closed = 1;
nodes = (
(770,1493,ls),
(840,1493,o),
(841,1510,o),
(841,1591,cs),
(841,1671,o),
(840,1689,o),
(770,1689,cs),
(308,1689,l),
(308,1493,l)
);
},
{
closed = 1;
nodes = (
(709,689,ls),
(778,689,o),
(780,706,o),
(780,784,cs),
(780,862,o),
(778,879,o),
(709,879,cs),
(247,879,l),
(247,689,l)
);
},
{
closed = 1;
nodes = (
(733,0,ls),
(802,0,o),
(804,21,o),
(804,93,cs),
(804,166,o),
(802,186,o),
(733,186,cs),
(307,186,l),
(307,0,l)
);
},
{
closed = 1;
nodes = (
(586,1861,o),
(612,1827,o),
(612,1804,cs),
(612,1778,o),
(582,1770,o),
(514,1770,cs),
(418,1770,o),
(412,1780,o),
(374,1827,cs),
(230,2005,ls),
(205,2037,o),
(185,2062,o),
(185,2083,cs),
(185,2110,o),
(215,2118,o),
(317,2118,cs),
(430,2118,o),
(446,2109,o),
(476,2056,cs),
(558,1910,l)
);
}
);
};
layerId = "3E12A9BE-1094-4827-ACE3-4E9390329AA7";
shapes = (
{
ref = E;
},
{
pos = (434,0);
ref = gravecomb.case;
}
);
width = 901;
}
);
unicode = 200;
},
{
glyphname = Emacron;
lastChange = "2023-01-18 14:59:52 +0000";
layers = (
{
background = {
anchors = (
{
name = btm;
pos = (482,-170);
},
{
name = top;
pos = (482,1700);
}
);
shapes = (
{
closed = 1;
nodes = (
(430,0,o),
(444,11,o),
(445,63,cs),
(489,1607,ls),
(491,1676,o),
(465,1690,o),
(307,1690,cs),
(148,1690,o),
(123,1676,o),
(125,1607,cs),
(168,68,ls),
(170,7,o),
(184,0,o),
(307,0,c)
);
},
{
closed = 1;
nodes = (
(770,1493,ls),
(840,1493,o),
(841,1510,o),
(841,1591,cs),
(841,1671,o),
(840,1689,o),
(770,1689,cs),
(308,1689,l),
(308,1493,l)
);
},
{
closed = 1;
nodes = (
(709,689,ls),
(778,689,o),
(780,706,o),
(780,784,cs),
(780,862,o),
(778,879,o),
(709,879,cs),
(247,879,l),
(247,689,l)
);
},
{
closed = 1;
nodes = (
(733,0,ls),
(802,0,o),
(804,21,o),
(804,93,cs),
(804,166,o),
(802,186,o),
(733,186,cs),
(307,186,l),
(307,0,l)
);
},
{
closed = 1;
nodes = (
(839,1839,o),
(841,1864,o),
(841,1946,cs),
(841,2036,o),
(839,2065,o),
(769,2065,cs),
(201,2065,ls),
(131,2065,o),
(129,2037,o),
(129,1947,cs),
(129,1865,o),
(131,1839,o),
(201,1839,cs),
(769,1839,l)
);
}
);
};
layerId = "3E12A9BE-1094-4827-ACE3-4E9390329AA7";
shapes = (
{
ref = E;
},
{
pos = (448,0);
ref = macroncomb.case;
}
);
width = 901;
}
);
unicode = 274;
},
{
glyphname = Eogonek;
lastChange = "2023-01-19 08:54:57 +0000";
layers = (
{
background = {
anchors = (
{
name = btm;
pos = (482,-170);
},
{
name = top;
pos = (482,1700);
}
);
shapes = (
{
closed = 1;
nodes = (
(430,0,o),
(444,11,o),
(445,63,cs),
(489,1607,ls),
(491,1676,o),
(465,1690,o),
(307,1690,cs),
(148,1690,o),
(123,1676,o),
(125,1607,cs),
(168,68,ls),
(170,7,o),
(184,0,o),
(307,0,c)
);
},
{
closed = 1;
nodes = (
(770,1493,ls),
(840,1493,o),
(841,1510,o),
(841,1591,cs),
(841,1671,o),
(840,1689,o),
(770,1689,cs),
(308,1689,l),
(308,1493,l)
);
},
{
closed = 1;
nodes = (
(709,689,ls),
(778,689,o),
(780,706,o),
(780,784,cs),
(780,862,o),
(778,879,o),
(709,879,cs),
(247,879,l),
(247,689,l)
);
},
{
closed = 1;
nodes = (
(733,0,ls),
(802,0,o),
(804,21,o),
(804,93,cs),
(804,166,o),
(802,186,o),
(733,186,cs),
(307,186,l),
(307,0,l)
);
},
{
closed = 1;
nodes = (
(930,28,o),
(865,29,o),
(829,29,cs),
(772,29,o),
(682,-104,o),
(682,-226,cs),
(682,-380,o),
(785,-466,o),
(920,-466,cs),
(1014,-466,o),
(1099,-448,o),
(1144,-396,cs),
(1154,-383,o),
(1153,-359,o),
(1146,-333,cs),
(1126,-266,o),
(1118,-206,o),
(1086,-206,cs),
(1039,-206,o),
(1025,-230,o),
(959,-230,cs),
(918,-230,o),
(869,-184,o),
(869,-112,cs),
(869,-60,o),
(896,7,o),
(989,28,c)
);
}
);
};
layerId = "3E12A9BE-1094-4827-ACE3-4E9390329AA7";
shapes = (
{
ref = E;
},
{
pos = (218,-19);
ref = ogonekcomb;
}
);
width = 901;
}
);
unicode = 280;
},
{
glyphname = Eopen;
lastChange = "2023-01-19 19:06:29 +0000";
layers = (
{
anchors = (
{
name = bottom;
pos = (545,0);
},
{
name = center;
pos = (545,845);
},
{
name = top;
pos = (545,1690);
}
);
layerId = "3E12A9BE-1094-4827-ACE3-4E9390329AA7";
shapes = (
{
closed = 1;
nodes = (
(828,0,ls),
(897,0,o),
(899,21,o),
(899,93,cs),
(899,166,o),
(897,186,o),
(828,186,cs),
(586,186,ls),
(457,186,o),
(422,218,o),
(422,330,cs),
(422,562,ls),
(422,666,o),
(468,689,o),
(596,689,cs),
(804,689,ls),
(873,689,o),
(875,706,o),
(875,784,cs),
(875,862,o),
(873,879,o),
(804,879,cs),
(601,879,ls),
(473,879,o),
(438,907,o),
(438,1019,cs),
(438,1374,ls),
(438,1464,o),
(473,1488,o),
(566,1493,c),
(865,1493,ls),
(935,1493,o),
(936,1510,o),
(936,1591,cs),
(936,1671,o),
(935,1690,o),
(865,1690,c),
(493,1690,l),
(263,1690,o),
(96,1570,o),
(100,1364,cs),
(106,1087,ls),
(108,974,o),
(166,845,o),
(330,784,c),
(200,732,o),
(117,636,o),
(122,494,cs),
(128,317,ls),
(133,178,o),
(221,28,o),
(492,3,c),
(492,0,l)
);
}
);
width = 996;
}
);
metricLeft = "=|B";
metricRight = E;
unicode = 400;
},
{
glyphname = Ereversed;
lastChange = "2023-01-19 09:17:29 +0000";
layers = (
{
anchors = (
{
name = bottom;
pos = (450,0);
},
{
name = ogonek;
pos = (90,10);
},
{
name = top;
pos = (450,1690);
},
{
name = topright;
pos = (881,1690);
}
);
layerId = "3E12A9BE-1094-4827-ACE3-4E9390329AA7";
shapes = (
{
closed = 1;
nodes = (
(717,0,o),
(731,7,o),
(733,68,cs),
(776,1607,ls),
(778,1676,o),
(753,1690,o),
(594,1690,cs),
(436,1690,o),
(410,1676,o),
(412,1607,cs),
(456,63,ls),
(457,11,o),
(471,0,o),
(594,0,c)
);
},
{
closed = 1;
nodes = (
(594,186,l),
(168,186,ls),
(99,186,o),
(97,166,o),
(97,93,cs),
(97,21,o),
(99,0,o),
(168,0,cs),
(594,0,l)
);
},
{
closed = 1;
nodes = (
(654,879,l),
(192,879,ls),
(123,879,o),
(121,862,o),
(121,784,cs),
(121,706,o),
(123,689,o),
(192,689,cs),
(654,689,l)
);
},
{
closed = 1;
nodes = (
(593,1689,l),
(131,1689,ls),
(61,1689,o),
(60,1671,o),
(60,1591,cs),
(60,1510,o),
(61,1493,o),
(131,1493,cs),
(593,1493,l)
);
}
);
width = 901;
}
);
unicode = 398;
},
{
color = 5;
glyphname = Esh;
lastChange = "2023-01-21 07:06:32 +0000";
layers = (
{
layerId = "3E12A9BE-1094-4827-ACE3-4E9390329AA7";
shapes = (
{
closed = 1;
nodes = (
(929,1494,ls),
(999,1494,o),
(1001,1511,o),
(1001,1592,cs),
(1001,1672,o),
(999,1690,o),
(929,1690,cs),
(197,1690,ls),
(127,1690,o),
(125,1672,o),
(125,1592,cs),
(125,1560,o),
(125,1538,o),
(130,1523,c),
(466,755,l),
(180,179,l),
(170,165,o),
(169,140,o),
(169,98,cs),
(169,18,o),
(171,0,o),
(240,0,cs),
(887,0,ls),
(956,0,o),
(958,18,o),
(958,98,cs),
(958,178,o),
(956,196,o),
(887,196,cs),
(467,196,l),
(751,797,l),
(472,1494,l)
);
}
);
width = 1061;
}
);
metricLeft = H;
metricRight = E;
unicode = 425;
},
{
glyphname = Schwa;
lastChange = "2023-01-18 14:51:08 +0000";
layers = (
{
background = {
shapes = (
{
closed = 1;
nodes = (
(112,1193,o),
(135,1182,o),
(256,1182,cs),
(379,1182,o),
(448,1193,o),
(445,1274,cs),
(441,1393,ls),
(437,1505,o),
(475,1538,o),
(572,1538,cs),
(666,1538,o),
(707,1505,o),
(704,1393,cs),
(689,293,ls),
(686,176,o),
(650,160,o),
(572,160,cs),
(495,160,o),
(474,176,o),
(471,293,c),
(451,810,ls),
(449,891,o),
(251,901,o),
(126,901,c),
(152,324,ls),
(147,124,o),
(235,-12,o),
(572,-12,cs),
(910,-12,o),
(1011,124,o),
(1006,324,cs),
(1048,1384,ls),
(1053,1558,o),
(916,1701,o),
(572,1701,cs),
(235,1701,o),
(106,1560,o),
(111,1386,cs),
(114,1274,l)
);
},
{
closed = 1;
nodes = (
(938,715,o),
(940,700,o),
(940,782,cs),
(940,872,o),
(938,901,o),
(868,901,cs),
(240,901,ls),
(170,901,o),
(168,873,o),
(168,783,cs),
(168,701,o),
(170,715,o),
(240,715,cs),
(868,715,ls)
);
}
);
};
layerId = "3E12A9BE-1094-4827-ACE3-4E9390329AA7";
shapes = (
{
closed = 1;
nodes = (
(910,-12,o),
(1011,124,o),
(1006,324,cs),
(1048,1384,ls),
(1053,1558,o),
(916,1701,o),
(572,1701,cs),
(235,1701,o),
(106,1560,o),
(111,1386,cs),
(114,1274,l),
(112,1193,o),
(135,1182,o),
(256,1182,cs),
(379,1182,o),
(448,1193,o),
(445,1274,cs),
(441,1393,ls),
(437,1505,o),
(475,1538,o),
(572,1538,cs),
(666,1538,o),
(707,1505,o),
(704,1393,cs),
(689,293,ls),
(686,176,o),
(650,160,o),
(572,160,cs),
(495,160,o),
(474,176,o),
(471,293,c),
(451,810,ls),
(449,891,o),
(251,901,o),
(126,901,c),
(152,324,ls),
(147,124,o),
(235,-12,o),
(572,-12,cs)
);
},
{
closed = 1;
nodes = (
(868,715,ls),
(938,715,o),
(940,700,o),
(940,782,cs),
(940,872,o),
(938,901,o),
(868,901,cs),
(240,901,ls),
(170,901,o),
(168,873,o),
(168,783,cs),
(168,701,o),
(170,715,o),
(240,715,cs)
);
}
);
vertWidth = 0;
width = 1166;
}
);
unicode = 399;
},
{
color = 5;
glyphname = Ezh;
lastChange = "2023-01-21 06:53:33 +0000";
layers = (
{
anchors = (
{
name = bottom;
pos = (544,0);
},
{
name = top;
pos = (544,1690);
}
);
layerId = "3E12A9BE-1094-4827-ACE3-4E9390329AA7";
shapes = (
{
closed = 1;
nodes = (
(829,-12,o),
(931,122,o),
(935,278,cs),
(942,552,ls),
(946,664,o),
(799,790,o),
(636,822,c),
(931,1523,ls),
(936,1538,o),
(936,1560,o),
(936,1592,cs),
(936,1672,o),
(934,1690,o),
(864,1690,cs),
(132,1690,ls),
(62,1690,o),
(60,1672,o),
(60,1592,cs),
(60,1511,o),
(62,1494,o),
(132,1494,cs),
(559,1494,l),
(370,790,l),
(370,725,o),
(372,701,o),
(442,701,cs),
(498,701,ls),
(606,701,o),
(656,680,o),
(658,576,cs),
(664,307,ls),
(666,200,o),
(614,161,o),
(500,161,cs),
(498,161,ls),
(384,161,o),
(331,200,o),
(334,307,cs),
(337,415,ls),
(339,496,o),
(306,507,o),
(198,507,cs),
(84,507,o),
(57,496,o),
(59,415,cs),
(63,278,ls),
(68,122,o),
(171,-12,o),
(498,-12,cs)
);
}
);
width = 1042;
}
);
metricLeft = Z;
metricRight = B;
unicode = 439;
},
{
glyphname = F;
lastChange = "2023-01-21 07:50:23 +0000";
layers = (
{
anchors = (
{
name = bottom;
pos = (451,0);
},
{
name = top;
pos = (451,1690);
}
);
background = {
anchors = (
{
name = btm;
pos = (482,-170);
},
{
name = top;
pos = (482,1700);
}
);
shapes = (
{
closed = 1;
nodes = (
(430,0,o),
(444,11,o),
(445,63,cs),
(489,1607,ls),
(491,1676,o),
(465,1690,o),
(307,1690,cs),
(148,1690,o),
(123,1676,o),
(125,1607,cs),
(168,68,ls),
(170,7,o),
(184,0,o),
(307,0,c)
);
},
{
closed = 1;
nodes = (
(770,1493,ls),
(840,1493,o),
(841,1510,o),
(841,1591,cs),
(841,1671,o),
(840,1689,o),
(770,1689,cs),
(308,1689,l),
(308,1493,l)
);
},
{
closed = 1;
nodes = (
(709,689,ls),
(778,689,o),
(780,706,o),
(780,784,cs),
(780,862,o),
(778,879,o),
(709,879,cs),
(247,879,l),
(247,689,l)
);
}
);
};
layerId = "3E12A9BE-1094-4827-ACE3-4E9390329AA7";
shapes = (
{
closed = 1;
nodes = (
(430,0,o),
(444,11,o),
(445,63,cs),
(463,689,l),
(709,689,ls),
(778,689,o),
(780,706,o),
(780,784,cs),
(780,862,o),
(778,879,o),
(709,879,cs),
(468,879,l),
(486,1493,l),
(770,1493,ls),
(840,1493,o),
(841,1510,o),
(841,1591,cs),
(841,1671,o),
(840,1689,o),
(770,1689,cs),
(706,1689,o),
(371,1690,o),
(257,1690,cs),
(148,1690,o),
(123,1676,o),
(125,1607,cs),
(168,68,ls),
(170,7,o),
(184,0,o),
(307,0,cs)
);
}
);
vertWidth = 0;
width = 901;
}
);
metricLeft = H;
unicode = 70;
userData = {
KernOnName = F;
};
},
{
glyphname = Fdotaccent;
lastChange = "2023-01-18 14:59:52 +0000";
layers = (
{
background = {
anchors = (
{
name = btm;
pos = (482,-170);
},
{
name = top;
pos = (482,1700);
}
);
shapes = (
{
closed = 1;
nodes = (
(430,0,o),
(444,11,o),
(445,63,cs),
(489,1607,ls),
(491,1676,o),
(465,1690,o),
(307,1690,cs),
(148,1690,o),
(123,1676,o),
(125,1607,cs),
(168,68,ls),
(170,7,o),
(184,0,o),
(307,0,c)
);
},
{
closed = 1;
nodes = (
(770,1493,ls),
(840,1493,o),
(841,1510,o),
(841,1591,cs),
(841,1671,o),
(840,1689,o),
(770,1689,cs),
(308,1689,l),
(308,1493,l)
);
},
{
closed = 1;
nodes = (
(709,689,ls),
(778,689,o),
(780,706,o),
(780,784,cs),
(780,862,o),
(778,879,o),
(709,879,cs),
(247,879,l),
(247,689,l)
);
},
{
closed = 1;
nodes = (
(612,1788,o),
(632,1795,o),
(633,1845,c),
(644,2040,l),
(645,2097,o),
(627,2113,o),
(482,2113,cs),
(337,2113,o),
(319,2097,o),
(320,2040,c),
(332,1845,l),
(333,1795,o),
(352,1788,o),
(482,1788,cs)
);
}
);
};
layerId = "3E12A9BE-1094-4827-ACE3-4E9390329AA7";
shapes = (
{
ref = F;
},
{
pos = (451,0);
ref = dotaccentcomb.case;
}
);
width = 901;
}
);
unicode = 7710;
},
{
color = 5;
glyphname = Fhook;
lastChange = "2023-01-21 06:33:03 +0000";
layers = (
{
anchors = (
{
name = top;
pos = (451,1690);
}
);
layerId = "3E12A9BE-1094-4827-ACE3-4E9390329AA7";
shapes = (
{
closed = 1;
nodes = (
(171,-31,o),
(119,-64,o),
(9,-64,cs),
(-51,-64,o),
(-53,-117,o),
(-53,-208,cs),
(-53,-310,o),
(-23,-309,o),
(4,-309,cs),
(278,-309,o),
(436,-205,o),
(442,7,cs),
(462,689,l),
(709,689,ls),
(778,689,o),
(780,706,o),
(780,784,cs),
(780,862,o),
(778,879,o),
(709,879,cs),
(468,879,l),
(486,1493,l),
(770,1493,ls),
(840,1493,o),
(841,1510,o),
(841,1591,cs),
(841,1671,o),
(840,1689,o),
(770,1689,cs),
(368,1690,ls),
(350,1690,o),
(330,1690,o),
(307,1690,cs),
(148,1690,o),
(123,1676,o),
(125,1607,cs),
(168,68,ls)
);
}
);
width = 901;
}
);
unicode = 401;
},
{
glyphname = G;
lastChange = "2023-01-21 07:50:23 +0000";
layers = (
{
anchors = (
{
name = bottom;
pos = (573,0);
},
{
name = hook;
pos = (1012,1372);
},
{
name = top;
pos = (573,1690);
}
);
background = {
anchors = (
{
name = btm;
pos = (584,-170);
},
{
name = top;
pos = (584,1700);
}
);
shapes = (
{
closed = 1;
nodes = (
(999,1486,o),
(1012,1498,o),
(1012,1578,cs),
(1012,1676,o),
(1014,1690,o),
(923,1690,cs),
(625,1690,ls),
(260,1690,o),
(120,1551,o),
(125,1357,cs),
(153,305,ls),
(158,131,o),
(280,-12,o),
(589,-12,cs),
(898,-12,o),
(1020,129,o),
(1025,303,cs),
(1043,938,ls),
(1045,1019,o),
(1025,1030,o),
(885,1030,cs),
(746,1030,o),
(710,1019,o),
(713,938,cs),
(731,296,ls),
(735,184,o),
(693,151,o),
(589,151,cs),
(485,151,o),
(445,184,o),
(447,296,cs),
(477,1355,ls),
(480,1472,o),
(525,1490,o),
(624,1486,cs),
(952,1486,l)
);
}
);
};
layerId = "3E12A9BE-1094-4827-ACE3-4E9390329AA7";
shapes = (
{
closed = 1;
nodes = (
(898,-12,o),
(1020,129,o),
(1025,303,cs),
(1043,938,ls),
(1045,1019,o),
(1025,1030,o),
(885,1030,cs),
(746,1030,o),
(711,1019,o),
(713,938,cs),
(731,296,ls),
(734,184,o),
(693,151,o),
(589,151,cs),
(485,151,o),
(444,184,o),
(447,296,cs),
(477,1355,ls),
(480,1472,o),
(525,1486,o),
(624,1486,cs),
(952,1486,l),
(999,1486,o),
(1012,1498,o),
(1012,1578,cs),
(1012,1676,o),
(1014,1690,o),
(923,1690,cs),
(625,1690,ls),
(260,1690,o),
(120,1551,o),
(125,1357,cs),
(153,305,ls),
(158,131,o),
(280,-12,o),
(589,-12,cs)
);
}
);
userData = {
com.typemytype.robofont.guides = (
{
angle = 90;
isGlobal = 0;
magnetic = 5;
x = 1043;
y = 0;
}
);
};
vertWidth = 0;
width = 1145;
}
);
unicode = 71;
userData = {
KernOnName = G;
};
},
{
glyphname = Gbreve;
lastChange = "2023-01-18 14:59:52 +0000";
layers = (
{
background = {
anchors = (
{
name = btm;
pos = (584,-170);
},
{
name = top;
pos = (584,1700);
}
);
shapes = (
{
closed = 1;
nodes = (
(999,1486,o),
(1012,1498,o),
(1012,1578,cs),
(1012,1676,o),
(1014,1690,o),
(923,1690,cs),
(625,1690,ls),
(260,1690,o),
(120,1551,o),
(125,1357,cs),
(153,305,ls),
(158,131,o),
(280,-12,o),
(589,-12,cs),
(898,-12,o),
(1020,129,o),
(1025,303,cs),
(1043,938,ls),
(1045,1019,o),
(1025,1030,o),
(885,1030,cs),
(746,1030,o),
(710,1019,o),
(713,938,cs),
(731,296,ls),
(735,184,o),
(693,151,o),
(589,151,cs),
(485,151,o),
(445,184,o),
(447,296,cs),
(477,1355,ls),
(480,1472,o),
(525,1490,o),
(624,1486,cs),
(952,1486,l)
);
}
);
};
layerId = "3E12A9BE-1094-4827-ACE3-4E9390329AA7";
shapes = (
{
ref = G;
},
{
pos = (572,0);
ref = brevecomb.case;
}
);
width = 1145;
}
);
unicode = 286;
},
{
glyphname = Gcircumflex;
lastChange = "2023-01-18 14:59:52 +0000";
layers = (
{
background = {
anchors = (
{
name = btm;
pos = (584,-170);
},
{
name = top;
pos = (584,1700);
}
);
shapes = (
{
closed = 1;
nodes = (
(999,1486,o),
(1012,1498,o),
(1012,1578,cs),
(1012,1676,o),
(1014,1690,o),
(923,1690,cs),
(625,1690,ls),
(260,1690,o),
(120,1551,o),
(125,1357,cs),
(153,305,ls),
(158,131,o),
(280,-12,o),
(589,-12,cs),
(898,-12,o),
(1020,129,o),
(1025,303,cs),
(1043,938,ls),
(1045,1019,o),
(1025,1030,o),
(885,1030,cs),
(746,1030,o),
(710,1019,o),
(713,938,cs),
(731,296,ls),
(735,184,o),
(693,151,o),
(589,151,cs),
(485,151,o),
(445,184,o),
(447,296,cs),
(477,1355,ls),
(480,1472,o),
(525,1490,o),
(624,1486,cs),
(952,1486,l)
);
},
{
closed = 1;
nodes = (
(238,1848,o),
(220,1827,o),
(220,1806,cs),
(220,1780,o),
(240,1770,o),
(313,1770,cs),
(389,1770,o),
(398,1779,o),
(453,1832,cs),
(542,1917,ls),
(561,1935,o),
(573,1944,o),
(585,1944,cs),
(597,1944,o),
(609,1935,o),
(626,1918,cs),
(718,1832,ls),
(772,1781,o),
(786,1770,o),
(856,1770,cs),
(938,1770,o),
(949,1780,o),
(949,1806,cs),
(949,1827,o),
(932,1848,o),
(899,1894,cs),
(780,2056,ls),
(739,2112,o),
(711,2118,o),
(666,2118,cs),
(511,2118,ls),
(455,2118,o),
(426,2112,o),
(386,2056,cs),
(270,1894,ls)
);
}
);
};
layerId = "3E12A9BE-1094-4827-ACE3-4E9390329AA7";
shapes = (
{
ref = G;
},
{
pos = (572,0);
ref = circumflexcomb.case;
}
);
width = 1145;
}
);
unicode = 284;
},
{
glyphname = Gcommaaccent;
lastChange = "2023-01-19 09:35:28 +0000";
layers = (
{
background = {
anchors = (
{
name = btm;
pos = (584,-170);
},
{
name = top;
pos = (584,1700);
}
);
shapes = (
{
closed = 1;
nodes = (
(999,1486,o),
(1012,1498,o),
(1012,1578,cs),
(1012,1676,o),
(1014,1690,o),
(923,1690,cs),
(625,1690,ls),
(260,1690,o),
(120,1551,o),
(125,1357,cs),
(153,305,ls),
(158,131,o),
(280,-12,o),
(589,-12,cs),
(898,-12,o),
(1020,129,o),
(1025,303,cs),
(1043,938,ls),
(1045,1019,o),
(1025,1030,o),
(885,1030,cs),
(746,1030,o),
(710,1019,o),
(713,938,cs),
(731,296,ls),
(735,184,o),
(693,151,o),
(589,151,cs),
(485,151,o),
(445,184,o),
(447,296,cs),
(477,1355,ls),
(480,1472,o),
(525,1490,o),
(624,1486,cs),
(952,1486,l)
);
},
{
closed = 1;
nodes = (
(466,-433,o),
(486,-442,o),
(511,-442,cs),
(593,-442,ls),
(632,-442,o),
(648,-433,o),
(676,-394,cs),
(756,-283,ls),
(784,-244,o),
(786,-215,o),
(786,-186,cs),
(786,-138,ls),
(786,-85,o),
(768,-73,o),
(637,-73,cs),
(469,-73,o),
(428,-87,o),
(428,-138,cs),
(428,-215,ls),
(428,-243,o),
(441,-270,o),
(481,-270,cs),
(533,-270,l),
(492,-352,ls),
(480,-377,o),
(466,-397,o),
(466,-417,cs)
);
}
);
};
layerId = "3E12A9BE-1094-4827-ACE3-4E9390329AA7";
shapes = (
{
ref = G;
},
{
pos = (262,0);
ref = commaaccentcomb;
}
);
width = 1145;
}
);
unicode = 290;
},
{
glyphname = Gdotaccent;
lastChange = "2023-01-18 14:59:52 +0000";
layers = (
{
background = {
anchors = (
{
name = btm;
pos = (584,-170);
},
{
name = top;
pos = (584,1700);
}
);
shapes = (
{
closed = 1;
nodes = (
(999,1486,o),
(1012,1498,o),
(1012,1578,cs),
(1012,1676,o),
(1014,1690,o),
(923,1690,cs),
(625,1690,ls),
(260,1690,o),
(120,1551,o),
(125,1357,cs),
(153,305,ls),
(158,131,o),
(280,-12,o),
(589,-12,cs),
(898,-12,o),
(1020,129,o),
(1025,303,cs),
(1043,938,ls),
(1045,1019,o),
(1025,1030,o),
(885,1030,cs),
(746,1030,o),
(710,1019,o),
(713,938,cs),
(731,296,ls),
(735,184,o),
(693,151,o),
(589,151,cs),
(485,151,o),
(445,184,o),
(447,296,cs),
(477,1355,ls),
(480,1472,o),
(525,1490,o),
(624,1486,cs),
(952,1486,l)
);
},
{
closed = 1;
nodes = (
(714,1788,o),
(734,1795,o),
(735,1845,c),
(746,2040,l),
(747,2097,o),
(729,2113,o),
(584,2113,cs),
(439,2113,o),
(421,2097,o),
(422,2040,c),
(434,1845,l),
(435,1795,o),
(454,1788,o),
(584,1788,cs)
);
}
);
};
layerId = "3E12A9BE-1094-4827-ACE3-4E9390329AA7";
shapes = (
{
ref = G;
},
{
pos = (573,0);
ref = dotaccentcomb.case;
}
);
width = 1145;
}
);
unicode = 288;
},
{
color = 5;
glyphname = Ghook;
lastChange = "2023-01-21 06:19:23 +0000";
layers = (
{
anchors = (
{
name = bottom;
pos = (573,0);
},
{
name = top;
pos = (573,1690);
}
);
layerId = "3E12A9BE-1094-4827-ACE3-4E9390329AA7";
shapes = (
{
closed = 1;
nodes = (
(898,-12,o),
(1020,129,o),
(1025,303,cs),
(1043,938,ls),
(1045,1019,o),
(1025,1030,o),
(885,1030,cs),
(746,1030,o),
(711,1019,o),
(713,938,cs),
(731,296,ls),
(734,184,o),
(693,151,o),
(589,151,cs),
(485,151,o),
(444,184,o),
(447,296,cs),
(477,1355,ls),
(480,1472,o),
(525,1486,o),
(624,1486,cs),
(952,1486,ls),
(999,1486,o),
(1012,1498,o),
(1012,1578,cs),
(1012,1628,o),
(1061,1666,o),
(1171,1666,cs),
(1231,1666,o),
(1233,1719,o),
(1233,1818,cs),
(1233,1920,o),
(1203,1911,o),
(1176,1911,cs),
(1036,1911,o),
(942,1837,o),
(893,1690,c),
(625,1690,ls),
(260,1690,o),
(120,1551,o),
(125,1357,cs),
(153,305,ls),
(158,131,o),
(280,-12,o),
(589,-12,cs)
);
}
);
width = 1145;
}
);
unicode = 403;
},
{
color = 5;
glyphname = Gstroke;
lastChange = "2023-01-21 06:54:55 +0000";
layers = (
{
anchors = (
{
name = bottom;
pos = (573,0);
},
{
name = hook;
pos = (1012,1372);
},
{
name = top;
pos = (573,1690);
}
);
layerId = "3E12A9BE-1094-4827-ACE3-4E9390329AA7";
shapes = (
{
closed = 1;
nodes = (
(898,-12,o),
(1020,129,o),
(1025,303,cs),
(1043,938,ls),
(1045,1019,o),
(1025,1030,o),
(885,1030,cs),
(746,1030,o),
(711,1019,o),
(713,938,cs),
(731,296,ls),
(734,184,o),
(693,151,o),
(589,151,cs),
(485,151,o),
(444,184,o),
(447,296,cs),
(477,1355,ls),
(480,1472,o),
(525,1486,o),
(624,1486,cs),
(952,1486,l),
(999,1486,o),
(1012,1498,o),
(1012,1578,cs),
(1012,1676,o),
(1014,1690,o),
(923,1690,cs),
(625,1690,ls),
(260,1690,o),
(120,1551,o),
(125,1357,cs),
(153,305,ls),
(158,131,o),
(280,-12,o),
(589,-12,cs)
);
},
{
closed = 1;
nodes = (
(1064,537,l),
(1121,537,o),
(1122,562,o),
(1122,624,cs),
(1122,694,o),
(1121,723,o),
(1064,723,cs),
(632,723,ls),
(575,723,o),
(574,695,o),
(574,625,cs),
(574,563,o),
(575,537,o),
(632,537,cs)
);
}
);
width = 1145;
}
);
metricLeft = G;
metricWidth = G;
unicode = 484;
},
{
glyphname = H;
lastChange = "2023-01-21 07:50:23 +0000";
layers = (
{
anchors = (
{
name = bottom;
pos = (616,0);
},
{
name = center;
pos = (616,1202);
},
{
name = hook;
pos = (148,1690);
},
{
name = top;
pos = (616,1690);
},
{
name = topleft;
pos = (20,1690);
}
);
background = {
anchors = (
{
name = btm;
pos = (615,-170);
},
{
name = top;
pos = (615,1700);
}
);
shapes = (
{
closed = 1;
nodes = (
(822,689,l),
(822,879,l),
(388,879,l),
(388,689,l)
);
},
{
closed = 1;
nodes = (
(430,0,o),
(444,7,o),
(445,68,cs),
(489,1607,ls),
(491,1676,o),
(465,1690,o),
(307,1690,cs),
(148,1690,o),
(123,1676,o),
(125,1607,cs),
(168,68,ls),
(170,7,o),
(184,0,o),
(307,0,cs)
);
},
{
closed = 1;
nodes = (
(1046,0,o),
(1060,7,o),
(1062,68,cs),
(1106,1607,ls),
(1108,1676,o),
(1082,1690,o),
(924,1690,cs),
(765,1690,o),
(740,1676,o),
(742,1607,cs),
(785,68,ls),
(787,7,o),
(801,0,o),
(924,0,cs)
);
}
);
};
layerId = "3E12A9BE-1094-4827-ACE3-4E9390329AA7";
shapes = (
{
closed = 1;
nodes = (
(1046,0,o),
(1060,7,o),
(1062,68,cs),
(1106,1607,ls),
(1108,1676,o),
(1082,1690,o),
(924,1690,cs),
(765,1690,o),
(740,1676,o),
(742,1607,cs),
(785,68,ls),
(787,7,o),
(801,0,o),
(924,0,cs)
);
},
{
closed = 1;
nodes = (
(430,0,o),
(443,7,o),
(445,68,cs),
(489,1607,ls),
(491,1676,o),
(465,1690,o),
(307,1690,cs),
(148,1690,o),
(123,1676,o),
(125,1607,cs),
(168,68,ls),
(170,7,o),
(184,0,o),
(307,0,cs)
);
},
{
closed = 1;
nodes = (
(822,689,l),
(822,879,l),
(388,879,l),
(388,689,l)
);
}
);
vertWidth = 0;
width = 1231;
}
);
unicode = 72;
userData = {
KernOnName = H;
};
},
{
color = 5;
glyphname = Hbar;
lastChange = "2023-01-21 06:43:45 +0000";
layers = (
{
background = {
anchors = (
{
name = btm;
pos = (674,-170);
},
{
name = top;
pos = (674,1700);
}
);
shapes = (
{
closed = 1;
nodes = (
(1290,1078,o),
(1292,1103,o),
(1292,1185,cs),
(1292,1275,o),
(1290,1304,o),
(1220,1304,cs),
(132,1304,ls),
(62,1304,o),
(60,1276,o),
(60,1186,cs),
(60,1104,o),
(62,1078,o),
(132,1078,cs),
(1220,1078,l)
);
},
{
closed = 1;
nodes = (
(881,689,l),
(881,879,l),
(447,879,l),
(447,689,l)
);
},
{
closed = 1;
nodes = (
(489,0,o),
(503,7,o),
(504,68,cs),
(548,1607,ls),
(550,1676,o),
(524,1690,o),
(366,1690,cs),
(207,1690,o),
(182,1676,o),
(184,1607,cs),
(227,68,ls),
(229,7,o),
(243,0,o),
(366,0,cs)
);
},
{
closed = 1;
nodes = (
(1105,0,o),
(1119,7,o),
(1121,68,cs),
(1165,1607,ls),
(1167,1676,o),
(1141,1690,o),
(983,1690,cs),
(824,1690,o),
(799,1676,o),
(801,1607,cs),
(844,68,ls),
(846,7,o),
(860,0,o),
(983,0,cs)
);
}
);
};
layerId = "3E12A9BE-1094-4827-ACE3-4E9390329AA7";
shapes = (
{
ref = H;
},
{
pos = (-73,527);
ref = strokelongcomb_part;
}
);
width = 1231;
}
);
unicode = 294;
},
{
glyphname = Hcircumflex;
lastChange = "2023-01-13 14:20:01 +0000";
layers = (
{
background = {
anchors = (
{
name = btm;
pos = (615,-170);
},
{
name = top;
pos = (615,1700);
}
);
shapes = (
{
closed = 1;
nodes = (
(822,689,l),
(822,879,l),
(388,879,l),
(388,689,l)
);
},
{
closed = 1;
nodes = (
(430,0,o),
(444,7,o),
(445,68,cs),
(489,1607,ls),
(491,1676,o),
(465,1690,o),
(307,1690,cs),
(148,1690,o),
(123,1676,o),
(125,1607,cs),
(168,68,ls),
(170,7,o),
(184,0,o),
(307,0,cs)
);
},
{
closed = 1;
nodes = (
(1046,0,o),
(1060,7,o),
(1062,68,cs),
(1106,1607,ls),
(1108,1676,o),
(1082,1690,o),
(924,1690,cs),
(765,1690,o),
(740,1676,o),
(742,1607,cs),
(785,68,ls),
(787,7,o),
(801,0,o),
(924,0,cs)
);
},
{
closed = 1;
nodes = (
(269,1848,o),
(251,1827,o),
(251,1806,cs),
(251,1780,o),
(271,1770,o),
(344,1770,cs),
(420,1770,o),
(429,1779,o),
(484,1832,cs),
(573,1917,ls),
(592,1935,o),
(604,1944,o),
(616,1944,cs),
(628,1944,o),
(640,1935,o),
(657,1918,cs),
(749,1832,ls),
(803,1781,o),
(817,1770,o),
(887,1770,cs),
(969,1770,o),
(980,1780,o),
(980,1806,cs),
(980,1827,o),
(963,1848,o),
(930,1894,cs),
(811,2056,ls),
(770,2112,o),
(742,2118,o),
(697,2118,cs),
(542,2118,ls),
(486,2118,o),
(457,2112,o),
(417,2056,cs),
(301,1894,ls)
);
}
);
};
layerId = "3E12A9BE-1094-4827-ACE3-4E9390329AA7";
shapes = (
{
ref = H;
},
{
pos = (615,0);
ref = circumflexcomb.case;
}
);
width = 1231;
}
);
unicode = 292;
},
{
color = 5;
glyphname = Hturned;
lastChange = "2023-01-21 07:22:33 +0000";
layers = (
{
background = {
shapes = (
{
closed = 1;
nodes = (
(452,-34,o),
(469,-27,o),
(470,23,cs),
(502,1617,ls),
(503,1674,o),
(485,1690,o),
(340,1690,cs),
(195,1690,o),
(177,1674,o),
(178,1617,cs),
(209,23,ls),
(210,-27,o),
(228,-34,o),
(340,-34,cs)
);
}
);
};
layerId = "3E12A9BE-1094-4827-ACE3-4E9390329AA7";
shapes = (
{
closed = 1;
nodes = (
(152,1690,o),
(123,1683,o),
(125,1617,cs),
(145,800,ls),
(150,598,o),
(224,476,o),
(409,476,cs),
(586,476,o),
(725,608,o),
(841,756,c),
(841,756,o),
(749,824,o),
(749,824,c),
(724,765,o),
(674,696,o),
(601,696,cs),
(486,696,o),
(435,724,o),
(437,829,cs),
(454,1617,ls),
(455,1683,o),
(430,1690,o),
(284,1690,cs)
);
},
{
closed = 1;
nodes = (
(984,-6,o),
(1001,1,o),
(1002,51,cs),
(1034,1617,ls),
(1035,1674,o),
(1017,1690,o),
(872,1690,cs),
(727,1690,o),
(709,1674,o),
(710,1617,cs),
(741,51,ls),
(742,1,o),
(760,-6,o),
(872,-6,cs)
);
}
);
width = 1159;
}
);
metricLeft = H;
metricRight = H;
unicode = 42893;
},
{
glyphname = I;
lastChange = "2023-01-19 09:11:44 +0000";
layers = (
{
anchors = (
{
name = bottom;
pos = (307,0);
},
{
name = center;
pos = (308,843);
},
{
name = ogonek;
pos = (553,10);
},
{
name = top;
pos = (307,1690);
},
{
name = topleft;
pos = (20,1690);
}
);
background = {
anchors = (
{
name = btm;
pos = (307,-170);
},
{
name = top;
pos = (307,1700);
}
);
shapes = (
{
closed = 1;
nodes = (
(430,0,o),
(444,7,o),
(445,68,cs),
(489,1607,ls),
(491,1676,o),
(465,1690,o),
(307,1690,cs),
(148,1690,o),
(123,1676,o),
(125,1607,cs),
(168,68,ls),
(170,7,o),
(184,0,o),
(307,0,cs)
);
}
);
};
layerId = "3E12A9BE-1094-4827-ACE3-4E9390329AA7";
shapes = (
{
closed = 1;
nodes = (
(430,0,o),
(443,7,o),
(445,68,cs),
(489,1607,ls),
(491,1676,o),
(465,1690,o),
(307,1690,cs),
(148,1690,o),
(123,1676,o),
(125,1607,cs),
(168,68,ls),
(170,7,o),
(184,0,o),
(307,0,cs)
);
}
);
vertWidth = 0;
width = 614;
}
);
unicode = 73;
},
{
glyphname = IJ;
lastChange = "2023-01-18 14:51:08 +0000";
layers = (
{
background = {
shapes = (
{
closed = 1;
nodes = (
(430,645,o),
(459,652,o),
(461,713,cs),
(488,1607,ls),
(490,1676,o),
(465,1690,o),
(307,1690,cs),
(148,1690,o),
(123,1676,o),
(125,1607,cs),
(152,713,ls),
(154,652,o),
(184,645,o),
(307,645,cs)
);
},
{
closed = 1;
nodes = (
(782,184,o),
(742,151,o),
(617,151,cs),
(502,151,o),
(446,179,o),
(451,280,cs),
(454,381,ls),
(458,462,o),
(440,473,o),
(301,473,cs),
(177,473,o),
(153,461,o),
(156,381,cs),
(159,292,ls),
(165,126,o),
(314,-12,o),
(617,-12,cs),
(941,-12,o),
(1066,131,o),
(1071,305,cs),
(1107,1607,ls),
(1109,1676,o),
(1083,1690,o),
(925,1690,cs),
(766,1690,o),
(741,1682,o),
(743,1607,cs),
(779,296,l)
);
}
);
};
layerId = "3E12A9BE-1094-4827-ACE3-4E9390329AA7";
shapes = (
{
closed = 1;
nodes = (
(941,-12,o),
(1066,131,o),
(1071,305,cs),
(1107,1607,ls),
(1109,1676,o),
(1083,1690,o),
(925,1690,cs),
(766,1690,o),
(741,1682,o),
(743,1607,cs),
(779,296,l),
(782,184,o),
(742,151,o),
(617,151,cs),
(502,151,o),
(446,179,o),
(451,280,cs),
(454,381,ls),
(458,462,o),
(440,473,o),
(301,473,cs),
(177,473,o),
(153,461,o),
(156,381,cs),
(159,292,ls),
(165,126,o),
(314,-12,o),
(617,-12,cs)
);
},
{
closed = 1;
nodes = (
(430,645,o),
(459,652,o),
(461,713,cs),
(488,1607,ls),
(490,1676,o),
(465,1690,o),
(307,1690,cs),
(148,1690,o),
(123,1676,o),
(125,1607,cs),
(152,713,ls),
(154,652,o),
(184,645,o),
(307,645,cs)
);
}
);
width = 1232;
}
);
unicode = 306;
},
{
glyphname = Iacute;
lastChange = "2023-01-18 14:59:52 +0000";
layers = (
{
background = {
anchors = (
{
name = btm;
pos = (307,-170);
},
{
name = top;
pos = (307,1700);
}
);
shapes = (
{
closed = 1;
nodes = (
(430,0,o),
(444,7,o),
(445,68,cs),
(489,1607,ls),
(491,1676,o),
(465,1690,o),
(307,1690,cs),
(148,1690,o),
(123,1676,o),
(125,1607,cs),
(168,68,ls),
(170,7,o),
(184,0,o),
(307,0,cs)
);
},
{
closed = 1;
nodes = (
(216,1861,o),
(190,1827,o),
(190,1804,cs),
(190,1778,o),
(220,1770,o),
(288,1770,cs),
(384,1770,o),
(390,1780,o),
(428,1827,cs),
(572,2005,ls),
(597,2037,o),
(617,2062,o),
(617,2083,cs),
(617,2110,o),
(587,2118,o),
(485,2118,cs),
(372,2118,o),
(356,2109,o),
(326,2056,cs),
(244,1910,l)
);
}
);
};
layerId = "3E12A9BE-1094-4827-ACE3-4E9390329AA7";
shapes = (
{
ref = I;
},
{
pos = (210,0);
ref = acutecomb.case;
}
);
width = 614;
}
);
unicode = 205;
},
{
glyphname = Ibreve;
lastChange = "2023-01-18 14:59:52 +0000";
layers = (
{
background = {
anchors = (
{
name = btm;
pos = (307,-170);
},
{
name = top;
pos = (307,1700);
}
);
shapes = (
{
closed = 1;
nodes = (
(430,0,o),
(444,7,o),
(445,68,cs),
(489,1607,ls),
(491,1676,o),
(465,1690,o),
(307,1690,cs),
(148,1690,o),
(123,1676,o),
(125,1607,cs),
(168,68,ls),
(170,7,o),
(184,0,o),
(307,0,cs)
);
},
{
closed = 1;
nodes = (
(178,2117,o),
(120,2118,o),
(32,2118,cs),
(-70,2118,o),
(-69,2088,o),
(-69,2061,cs),
(-69,1876,o),
(107,1776,o),
(298,1776,cs),
(315,1776,ls),
(507,1776,o),
(685,1835,o),
(685,2061,cs),
(685,2088,o),
(686,2118,o),
(584,2118,cs),
(493,2118,o),
(440,2116,o),
(440,2056,cs),
(440,1988,o),
(407,1957,o),
(308,1957,cs),
(207,1957,o),
(178,1989,o),
(178,2056,cs)
);
}
);
};
layerId = "3E12A9BE-1094-4827-ACE3-4E9390329AA7";
shapes = (
{
ref = I;
},
{
pos = (306,0);
ref = brevecomb.case;
}
);
width = 614;
}
);
unicode = 300;
},
{
glyphname = Icircumflex;
lastChange = "2023-01-18 14:59:52 +0000";
layers = (
{
background = {
anchors = (
{
name = btm;
pos = (307,-170);
},
{
name = top;
pos = (307,1700);
}
);
shapes = (
{
closed = 1;
nodes = (
(430,0,o),
(444,7,o),
(445,68,cs),
(489,1607,ls),
(491,1676,o),
(465,1690,o),
(307,1690,cs),
(148,1690,o),
(123,1676,o),
(125,1607,cs),
(168,68,ls),
(170,7,o),
(184,0,o),
(307,0,cs)
);
},
{
closed = 1;
nodes = (
(-39,1848,o),
(-57,1827,o),
(-57,1806,cs),
(-57,1780,o),
(-37,1770,o),
(36,1770,cs),
(112,1770,o),
(121,1779,o),
(176,1832,cs),
(265,1917,ls),
(284,1935,o),
(296,1944,o),
(308,1944,cs),
(320,1944,o),
(332,1935,o),
(349,1918,cs),
(441,1832,ls),
(495,1781,o),
(509,1770,o),
(579,1770,cs),
(661,1770,o),
(672,1780,o),
(672,1806,cs),
(672,1827,o),
(655,1848,o),
(622,1894,cs),
(503,2056,ls),
(462,2112,o),
(434,2118,o),
(389,2118,cs),
(234,2118,ls),
(178,2118,o),
(149,2112,o),
(109,2056,cs),
(-7,1894,ls)
);
}
);
};
layerId = "3E12A9BE-1094-4827-ACE3-4E9390329AA7";
shapes = (
{
ref = I;
},
{
pos = (306,0);
ref = circumflexcomb.case;
}
);
width = 614;
}
);
unicode = 206;
},
{
glyphname = Idieresis;
lastChange = "2023-01-13 14:20:01 +0000";
layers = (
{
background = {
anchors = (
{
name = btm;
pos = (307,-170);
},
{
name = top;
pos = (307,1700);
}
);
shapes = (
{
closed = 1;
nodes = (
(430,0,o),
(444,7,o),
(445,68,cs),
(489,1607,ls),
(491,1676,o),
(465,1690,o),
(307,1690,cs),
(148,1690,o),
(123,1676,o),
(125,1607,cs),
(168,68,ls),
(170,7,o),
(184,0,o),
(307,0,cs)
);
},
{
closed = 1;
nodes = (
(196,1817,o),
(212,1824,o),
(215,1874,cs),
(226,2037,ls),
(229,2094,o),
(211,2110,o),
(84,2110,cs),
(-43,2110,o),
(-62,2094,o),
(-58,2037,cs),
(-46,1874,ls),
(-43,1824,o),
(-28,1817,o),
(84,1817,cs)
);
},
{
closed = 1;
nodes = (
(642,1817,o),
(658,1824,o),
(661,1874,cs),
(672,2037,ls),
(675,2094,o),
(657,2110,o),
(530,2110,cs),
(403,2110,o),
(384,2094,o),
(388,2037,cs),
(400,1874,ls),
(403,1824,o),
(418,1817,o),
(530,1817,cs)
);
}
);
};
layerId = "3E12A9BE-1094-4827-ACE3-4E9390329AA7";
shapes = (
{
ref = I;
},
{
pos = (307,0);
ref = dieresiscomb.case;
}
);
width = 614;
}
);
unicode = 207;
},
{
glyphname = Idotaccent;
lastChange = "2023-01-13 14:20:01 +0000";
layers = (
{
background = {
anchors = (
{
name = btm;
pos = (307,-170);
},
{
name = top;
pos = (307,1700);
}
);
shapes = (
{
closed = 1;
nodes = (
(430,0,o),
(444,7,o),
(445,68,cs),
(489,1607,ls),
(491,1676,o),
(465,1690,o),
(307,1690,cs),
(148,1690,o),
(123,1676,o),
(125,1607,cs),
(168,68,ls),
(170,7,o),
(184,0,o),
(307,0,cs)
);
},
{
closed = 1;
nodes = (
(437,1788,o),
(457,1795,o),
(458,1845,c),
(469,2040,l),
(470,2097,o),
(452,2113,o),
(307,2113,cs),
(162,2113,o),
(144,2097,o),
(145,2040,c),
(157,1845,l),
(158,1795,o),
(177,1788,o),
(307,1788,cs)
);
}
);
};
layerId = "3E12A9BE-1094-4827-ACE3-4E9390329AA7";
shapes = (
{
ref = I;
},
{
pos = (307,0);
ref = dotaccentcomb.case;
}
);
width = 614;
}
);
unicode = 304;
},
{
glyphname = Igrave;
lastChange = "2023-01-18 15:24:44 +0000";
layers = (
{
background = {
anchors = (
{
name = btm;
pos = (307,-170);
},
{
name = top;
pos = (307,1700);
}
);
shapes = (
{
closed = 1;
nodes = (
(430,0,o),
(444,7,o),
(445,68,cs),
(489,1607,ls),
(491,1676,o),
(465,1690,o),
(307,1690,cs),
(148,1690,o),
(123,1676,o),
(125,1607,cs),
(168,68,ls),
(170,7,o),
(184,0,o),
(307,0,cs)
);
},
{
closed = 1;
nodes = (
(411,1861,o),
(437,1827,o),
(437,1804,cs),
(437,1778,o),
(407,1770,o),
(339,1770,cs),
(243,1770,o),
(237,1780,o),
(199,1827,cs),
(55,2005,ls),
(30,2037,o),
(10,2062,o),
(10,2083,cs),
(10,2110,o),
(40,2118,o),
(142,2118,cs),
(255,2118,o),
(271,2109,o),
(301,2056,cs),
(383,1910,l)
);
}
);
};
layerId = "3E12A9BE-1094-4827-ACE3-4E9390329AA7";
shapes = (
{
ref = I;
},
{
pos = (290,0);
ref = gravecomb.case;
}
);
width = 614;
}
);
unicode = 204;
},
{
glyphname = Imacron;
lastChange = "2023-01-18 14:59:52 +0000";
layers = (
{
background = {
anchors = (
{
name = btm;
pos = (307,-170);
},
{
name = top;
pos = (307,1700);
}
);
shapes = (
{
closed = 1;
nodes = (
(430,0,o),
(444,7,o),
(445,68,cs),
(489,1607,ls),
(491,1676,o),
(465,1690,o),
(307,1690,cs),
(148,1690,o),
(123,1676,o),
(125,1607,cs),
(168,68,ls),
(170,7,o),
(184,0,o),
(307,0,cs)
);
},
{
closed = 1;
nodes = (
(664,1839,o),
(666,1864,o),
(666,1946,cs),
(666,2036,o),
(664,2065,o),
(594,2065,cs),
(26,2065,ls),
(-44,2065,o),
(-46,2037,o),
(-46,1947,cs),
(-46,1865,o),
(-44,1839,o),
(26,1839,cs),
(594,1839,l)
);
}
);
};
layerId = "3E12A9BE-1094-4827-ACE3-4E9390329AA7";
shapes = (
{
ref = I;
},
{
pos = (304,0);
ref = macroncomb.case;
}
);
width = 614;
}
);
unicode = 298;
},
{
glyphname = Iogonek;
lastChange = "2023-01-19 08:54:57 +0000";
layers = (
{
background = {
anchors = (
{
name = btm;
pos = (307,-170);
},
{
name = top;
pos = (307,1700);
}
);
shapes = (
{
closed = 1;
nodes = (
(430,0,o),
(444,7,o),
(445,68,cs),
(489,1607,ls),
(491,1676,o),
(465,1690,o),
(307,1690,cs),
(148,1690,o),
(123,1676,o),
(125,1607,cs),
(168,68,ls),
(170,7,o),
(184,0,o),
(307,0,cs)
);
},
{
closed = 1;
nodes = (
(643,28,o),
(578,29,o),
(542,29,cs),
(485,29,o),
(395,-104,o),
(395,-226,cs),
(395,-380,o),
(498,-466,o),
(633,-466,cs),
(727,-466,o),
(812,-448,o),
(857,-396,cs),
(867,-383,o),
(866,-359,o),
(859,-333,cs),
(839,-266,o),
(831,-206,o),
(799,-206,cs),
(752,-206,o),
(738,-230,o),
(672,-230,cs),
(631,-230,o),
(582,-184,o),
(582,-112,cs),
(582,-60,o),
(609,7,o),
(702,28,c)
);
}
);
};
layerId = "3E12A9BE-1094-4827-ACE3-4E9390329AA7";
shapes = (
{
ref = I;
},
{
pos = (-40,-19);
ref = ogonekcomb;
}
);
width = 614;
}
);
unicode = 302;
},
{
color = 5;
glyphname = "Iota-latin";
lastChange = "2023-01-21 06:35:50 +0000";
layers = (
{
anchors = (
{
name = bottom;
pos = (307,0);
},
{
name = center;
pos = (308,843);
},
{
name = top;
pos = (307,1690);
}
);
layerId = "3E12A9BE-1094-4827-ACE3-4E9390329AA7";
shapes = (
{
closed = 1;
nodes = (
(629,-11,o),
(659,-12,o),
(659,90,cs),
(659,181,o),
(657,234,o),
(597,234,cs),
(487,234,o),
(434,267,o),
(438,366,cs),
(489,1607,ls),
(492,1676,o),
(465,1690,o),
(307,1690,cs),
(148,1690,o),
(123,1676,o),
(125,1607,cs),
(164,276,ls),
(170,64,o),
(328,-11,o),
(602,-11,cs)
);
}
);
width = 659;
}
);
unicode = 406;
},
{
glyphname = Itilde;
lastChange = "2023-01-18 14:59:52 +0000";
layers = (
{
background = {
anchors = (
{
name = btm;
pos = (307,-170);
},
{
name = top;
pos = (307,1700);
}
);
shapes = (
{
closed = 1;
nodes = (
(430,0,o),
(444,7,o),
(445,68,cs),
(489,1607,ls),
(491,1676,o),
(465,1690,o),
(307,1690,cs),
(148,1690,o),
(123,1676,o),
(125,1607,cs),
(168,68,ls),
(170,7,o),
(184,0,o),
(307,0,cs)
);
},
{
closed = 1;
nodes = (
(553,1781,o),
(577,1792,o),
(601,1840,cs),
(686,2008,ls),
(704,2044,o),
(714,2067,o),
(714,2087,cs),
(714,2116,o),
(684,2118,o),
(604,2118,cs),
(518,2118,o),
(507,2117,o),
(491,2073,cs),
(469,2012,ls),
(456,1977,o),
(447,1967,o),
(434,1967,cs),
(419,1967,o),
(403,1982,o),
(378,2007,cs),
(314,2074,ls),
(284,2104,o),
(270,2118,o),
(208,2118,cs),
(150,2118,ls),
(93,2118,o),
(56,2116,o),
(31,2060,cs),
(-47,1883,ls),
(-61,1852,o),
(-71,1833,o),
(-71,1815,cs),
(-71,1790,o),
(-50,1782,o),
(9,1782,cs),
(92,1782,o),
(104,1783,o),
(125,1823,cs),
(150,1871,ls),
(167,1903,o),
(174,1914,o),
(188,1914,cs),
(196,1914,o),
(202,1913,o),
(225,1890,cs),
(282,1834,ls),
(330,1786,o),
(347,1781,o),
(405,1781,cs),
(492,1781,l)
);
}
);
};
layerId = "3E12A9BE-1094-4827-ACE3-4E9390329AA7";
shapes = (
{
ref = I;
},
{
pos = (292,0);
ref = tildecomb.case;
}
);
width = 614;
}
);
unicode = 296;
},
{
glyphname = J;
lastChange = "2023-01-21 07:50:23 +0000";
layers = (
{
anchors = (
{
name = bottom;
pos = (508,0);
},
{
name = top;
pos = (708,1690);
}
);
background = {
anchors = (
{
name = btm;
pos = (470,-170);
},
{
name = top;
pos = (691,1700);
}
);
shapes = (
{
closed = 1;
nodes = (
(565,184,o),
(537,151,o),
(460,151,cs),
(384,151,o),
(355,184,o),
(358,296,cs),
(367,696,ls),
(369,777,o),
(343,788,o),
(204,788,cs),
(81,788,o),
(49,777,o),
(50,696,cs),
(61,303,ls),
(66,129,o),
(179,-12,o),
(460,-12,cs),
(742,-12,o),
(849,131,o),
(854,305,cs),
(890,1607,ls),
(892,1676,o),
(866,1690,o),
(708,1690,cs),
(549,1690,o),
(524,1676,o),
(526,1607,cs),
(562,296,l)
);
}
);
};
layerId = "3E12A9BE-1094-4827-ACE3-4E9390329AA7";
shapes = (
{
closed = 1;
nodes = (
(742,-12,o),
(849,131,o),
(854,305,cs),
(890,1607,ls),
(892,1676,o),
(866,1690,o),
(708,1690,cs),
(549,1690,o),
(524,1676,o),
(526,1607,cs),
(562,296,l),
(565,184,o),
(537,151,o),
(460,151,cs),
(384,151,o),
(355,184,o),
(358,296,cs),
(367,696,ls),
(369,777,o),
(343,788,o),
(204,788,cs),
(81,788,o),
(48,777,o),
(50,696,cs),
(61,303,ls),
(66,129,o),
(179,-12,o),
(460,-12,cs)
);
}
);
userData = {
com.typemytype.robofont.guides = (
{
angle = 90;
isGlobal = 0;
magnetic = 5;
x = 952;
y = 0;
}
);
};
vertWidth = 0;
width = 1015;
}
);
unicode = 74;
userData = {
KernOnName = J;
};
},
{
glyphname = Jcircumflex;
lastChange = "2023-01-19 09:31:50 +0000";
layers = (
{
background = {
anchors = (
{
name = btm;
pos = (470,-170);
},
{
name = top;
pos = (691,1700);
}
);
shapes = (
{
closed = 1;
nodes = (
(565,184,o),
(537,151,o),
(460,151,cs),
(384,151,o),
(355,184,o),
(358,296,cs),
(367,696,ls),
(369,777,o),
(343,788,o),
(204,788,cs),
(81,788,o),
(49,777,o),
(50,696,cs),
(61,303,ls),
(66,129,o),
(179,-12,o),
(460,-12,cs),
(742,-12,o),
(849,131,o),
(854,305,cs),
(890,1607,ls),
(892,1676,o),
(866,1690,o),
(708,1690,cs),
(549,1690,o),
(524,1676,o),
(526,1607,cs),
(562,296,l)
);
},
{
closed = 1;
nodes = (
(345,1848,o),
(327,1827,o),
(327,1806,cs),
(327,1780,o),
(347,1770,o),
(420,1770,cs),
(496,1770,o),
(505,1779,o),
(560,1832,cs),
(649,1917,ls),
(668,1935,o),
(680,1944,o),
(692,1944,cs),
(704,1944,o),
(716,1935,o),
(733,1918,cs),
(825,1832,ls),
(879,1781,o),
(893,1770,o),
(963,1770,cs),
(1045,1770,o),
(1056,1780,o),
(1056,1806,cs),
(1056,1827,o),
(1039,1848,o),
(1006,1894,cs),
(887,2056,ls),
(846,2112,o),
(818,2118,o),
(773,2118,cs),
(618,2118,ls),
(562,2118,o),
(533,2112,o),
(493,2056,cs),
(377,1894,ls)
);
}
);
};
layerId = "3E12A9BE-1094-4827-ACE3-4E9390329AA7";
shapes = (
{
ref = J;
},
{
pos = (707,0);
ref = circumflexcomb.case;
}
);
width = 1015;
}
);
unicode = 308;
},
{
glyphname = K;
lastChange = "2023-01-18 14:54:17 +0000";
layers = (
{
anchors = (
{
name = bottom;
pos = (550,0);
},
{
name = top;
pos = (550,1690);
}
);
background = {
anchors = (
{
name = btm;
pos = (595,-170);
},
{
name = top;
pos = (595,1700);
}
);
shapes = (
{
closed = 1;
nodes = (
(1044,0,o),
(1060,13,o),
(1060,45,cs),
(1060,66,o),
(1049,94,o),
(1031,142,cs),
(804,719,l),
(1049,1545,ls),
(1060,1581,o),
(1066,1598,o),
(1066,1632,cs),
(1066,1682,o),
(1010,1690,o),
(894,1690,cs),
(754,1690,o),
(729,1677,o),
(711,1600,cs),
(528,719,l),
(800,80,ls),
(828,15,o),
(841,0,o),
(934,0,cs)
);
},
{
closed = 1;
nodes = (
(430,0,o),
(444,7,o),
(445,68,cs),
(489,1607,ls),
(491,1676,o),
(465,1690,o),
(307,1690,cs),
(148,1690,o),
(123,1676,o),
(125,1607,cs),
(168,68,ls),
(170,7,o),
(184,0,o),
(307,0,cs)
);
}
);
};
layerId = "3E12A9BE-1094-4827-ACE3-4E9390329AA7";
shapes = (
{
closed = 1;
nodes = (
(1044,0,o),
(1060,13,o),
(1060,45,cs),
(1060,66,o),
(1049,94,o),
(1031,142,cs),
(804,719,l),
(1049,1545,ls),
(1060,1581,o),
(1066,1598,o),
(1066,1632,cs),
(1066,1682,o),
(1010,1690,o),
(894,1690,cs),
(754,1690,o),
(729,1677,o),
(711,1600,cs),
(528,719,l),
(800,80,ls),
(828,15,o),
(841,0,o),
(934,0,cs)
);
},
{
closed = 1;
nodes = (
(430,0,o),
(444,7,o),
(445,68,cs),
(489,1607,ls),
(491,1676,o),
(465,1690,o),
(307,1690,cs),
(148,1690,o),
(123,1676,o),
(125,1607,cs),
(168,68,ls),
(170,7,o),
(184,0,o),
(307,0,cs)
);
}
);
userData = {
com.typemytype.robofont.guides = (
{
angle = 90;
isGlobal = 0;
magnetic = 5;
x = 1069;
y = 0;
}
);
};
vertWidth = 0;
width = 1100;
}
);
metricLeft = H;
unicode = 75;
},
{
glyphname = Kcommaaccent;
lastChange = "2023-01-19 09:35:28 +0000";
layers = (
{
background = {
anchors = (
{
name = btm;
pos = (595,-170);
},
{
name = top;
pos = (595,1700);
}
);
shapes = (
{
closed = 1;
nodes = (
(1044,0,o),
(1060,13,o),
(1060,45,cs),
(1060,66,o),
(1049,94,o),
(1031,142,cs),
(804,719,l),
(1049,1545,ls),
(1060,1581,o),
(1066,1598,o),
(1066,1632,cs),
(1066,1682,o),
(1010,1690,o),
(894,1690,cs),
(754,1690,o),
(729,1677,o),
(711,1600,cs),
(528,719,l),
(800,80,ls),
(828,15,o),
(841,0,o),
(934,0,cs)
);
},
{
closed = 1;
nodes = (
(430,0,o),
(444,7,o),
(445,68,cs),
(489,1607,ls),
(491,1676,o),
(465,1690,o),
(307,1690,cs),
(148,1690,o),
(123,1676,o),
(125,1607,cs),
(168,68,ls),
(170,7,o),
(184,0,o),
(307,0,cs)
);
},
{
closed = 1;
nodes = (
(477,-433,o),
(497,-442,o),
(522,-442,cs),
(604,-442,ls),
(643,-442,o),
(659,-433,o),
(687,-394,cs),
(767,-283,ls),
(795,-244,o),
(797,-215,o),
(797,-186,cs),
(797,-138,ls),
(797,-85,o),
(779,-73,o),
(648,-73,cs),
(480,-73,o),
(439,-87,o),
(439,-138,cs),
(439,-215,ls),
(439,-243,o),
(452,-270,o),
(492,-270,cs),
(544,-270,l),
(503,-352,ls),
(491,-377,o),
(477,-397,o),
(477,-417,cs)
);
}
);
};
layerId = "3E12A9BE-1094-4827-ACE3-4E9390329AA7";
shapes = (
{
ref = K;
},
{
pos = (239,0);
ref = commaaccentcomb;
}
);
width = 1100;
}
);
unicode = 310;
},
{
color = 5;
glyphname = Khook;
lastChange = "2023-01-21 06:44:47 +0000";
layers = (
{
anchors = (
{
name = bottom;
pos = (550,0);
},
{
name = top;
pos = (550,1690);
}
);
layerId = "3E12A9BE-1094-4827-ACE3-4E9390329AA7";
shapes = (
{
closed = 1;
nodes = (
(1044,0,o),
(1060,13,o),
(1060,45,cs),
(1060,66,o),
(1050,94,o),
(1031,142,cs),
(804,719,l),
(952,1217,l),
(1037,1459,o),
(1046,1531,o),
(1156,1531,cs),
(1216,1531,o),
(1218,1584,o),
(1218,1675,cs),
(1218,1777,o),
(1188,1776,o),
(1143,1776,cs),
(1040,1776,ls),
(850,1776,o),
(737,1668,o),
(661,1288,c),
(528,719,l),
(800,80,ls),
(828,15,o),
(841,0,o),
(934,0,cs)
);
},
{
closed = 1;
nodes = (
(430,0,o),
(443,7,o),
(445,68,cs),
(489,1607,ls),
(491,1676,o),
(465,1690,o),
(307,1690,cs),
(148,1690,o),
(123,1676,o),
(125,1607,cs),
(168,68,ls),
(170,7,o),
(184,0,o),
(307,0,cs)
);
}
);
width = 1208;
}
);
unicode = 408;
},
{
glyphname = L;
lastChange = "2023-01-21 07:50:23 +0000";
layers = (
{
anchors = (
{
name = bottom;
pos = (446,0);
},
{
name = center;
pos = (364,845);
},
{
name = ldot;
pos = (739,904);
},
{
name = top;
pos = (410,1690);
},
{
name = topright;
pos = (800,1690);
}
);
background = {
anchors = (
{
name = btm;
pos = (451,-170);
},
{
name = top;
pos = (451,1700);
}
);
shapes = (
{
closed = 1;
nodes = (
(430,0,o),
(444,11,o),
(445,63,cs),
(489,1607,ls),
(491,1676,o),
(465,1690,o),
(307,1690,cs),
(148,1690,o),
(123,1676,o),
(125,1607,cs),
(168,68,ls),
(170,7,o),
(184,0,o),
(307,0,c)
);
},
{
closed = 1;
nodes = (
(709,0,ls),
(778,0,o),
(780,21,o),
(780,93,cs),
(780,166,o),
(778,186,o),
(709,186,cs),
(307,186,l),
(307,0,l)
);
}
);
};
layerId = "3E12A9BE-1094-4827-ACE3-4E9390329AA7";
shapes = (
{
closed = 1;
nodes = (
(709,0,ls),
(778,0,o),
(780,21,o),
(780,93,cs),
(780,166,o),
(778,186,o),
(709,186,cs),
(449,186,l),
(489,1607,ls),
(491,1676,o),
(465,1690,o),
(307,1690,cs),
(148,1690,o),
(123,1676,o),
(125,1607,cs),
(168,68,ls),
(170,7,o),
(184,0,o),
(307,0,cs)
);
}
);
userData = {
com.typemytype.robofont.guides = (
{
angle = 90;
isGlobal = 0;
magnetic = 5;
x = 841;
y = 0;
},
{
angle = 90;
isGlobal = 0;
magnetic = 5;
x = 781;
y = 0;
}
);
};
vertWidth = 0;
width = 820;
}
);
metricLeft = H;
unicode = 76;
userData = {
KernOnName = L;
};
},
{
glyphname = LJ;
lastChange = "2023-01-25 09:18:37 +0000";
layers = (
{
background = {
anchors = (
{
name = btm;
pos = (1290,-170);
},
{
name = top;
pos = (1511,1700);
}
);
shapes = (
{
closed = 1;
nodes = (
(430,0,o),
(444,11,o),
(445,63,cs),
(489,1607,ls),
(491,1676,o),
(465,1690,o),
(307,1690,cs),
(148,1690,o),
(123,1676,o),
(125,1607,cs),
(168,68,ls),
(170,7,o),
(184,0,o),
(307,0,c)
);
},
{
closed = 1;
nodes = (
(709,0,ls),
(778,0,o),
(780,21,o),
(780,93,cs),
(780,166,o),
(778,186,o),
(709,186,cs),
(307,186,l),
(307,0,l)
);
},
{
closed = 1;
nodes = (
(1385,184,o),
(1357,151,o),
(1280,151,cs),
(1204,151,o),
(1175,184,o),
(1178,296,cs),
(1187,696,ls),
(1189,777,o),
(1163,788,o),
(1024,788,cs),
(901,788,o),
(869,777,o),
(870,696,cs),
(881,303,ls),
(886,129,o),
(999,-12,o),
(1280,-12,cs),
(1562,-12,o),
(1669,131,o),
(1674,305,cs),
(1710,1607,ls),
(1712,1676,o),
(1686,1690,o),
(1528,1690,cs),
(1369,1690,o),
(1344,1676,o),
(1346,1607,cs),
(1382,296,l)
);
}
);
};
layerId = "3E12A9BE-1094-4827-ACE3-4E9390329AA7";
shapes = (
{
alignment = -1;
ref = L;
},
{
alignment = -1;
pos = (794,0);
ref = J;
}
);
width = 1809;
}
);
unicode = 455;
},
{
glyphname = Lacute;
lastChange = "2023-01-18 14:59:52 +0000";
layers = (
{
background = {
anchors = (
{
name = btm;
pos = (451,-170);
},
{
name = top;
pos = (451,1700);
}
);
shapes = (
{
closed = 1;
nodes = (
(430,0,o),
(444,11,o),
(445,63,cs),
(489,1607,ls),
(491,1676,o),
(465,1690,o),
(307,1690,cs),
(148,1690,o),
(123,1676,o),
(125,1607,cs),
(168,68,ls),
(170,7,o),
(184,0,o),
(307,0,c)
);
},
{
closed = 1;
nodes = (
(709,0,ls),
(778,0,o),
(780,21,o),
(780,93,cs),
(780,166,o),
(778,186,o),
(709,186,cs),
(307,186,l),
(307,0,l)
);
},
{
closed = 1;
nodes = (
(360,1861,o),
(334,1827,o),
(334,1804,cs),
(334,1778,o),
(364,1770,o),
(432,1770,cs),
(528,1770,o),
(534,1780,o),
(572,1827,cs),
(716,2005,ls),
(741,2037,o),
(761,2062,o),
(761,2083,cs),
(761,2110,o),
(731,2118,o),
(629,2118,cs),
(516,2118,o),
(500,2109,o),
(470,2056,cs),
(388,1910,l)
);
}
);
};
layerId = "3E12A9BE-1094-4827-ACE3-4E9390329AA7";
shapes = (
{
ref = L;
},
{
pos = (313,0);
ref = acutecomb.case;
}
);
width = 820;
}
);
unicode = 313;
},
{
color = 4;
glyphname = Lcaron;
lastChange = "2023-01-19 20:31:14 +0000";
layers = (
{
background = {
anchors = (
{
name = btm;
pos = (451,-170);
},
{
name = top;
pos = (451,1700);
}
);
shapes = (
{
closed = 1;
nodes = (
(797,1016,o),
(809,1023,o),
(823,1085,c),
(941,1640,l),
(953,1710,o),
(930,1724,o),
(805,1724,cs),
(680,1724,o),
(653,1710,o),
(645,1640,c),
(607,1085,ls),
(603,1023,o),
(613,1016,o),
(705,1016,cs)
);
},
{
closed = 1;
nodes = (
(430,0,o),
(444,11,o),
(445,63,cs),
(489,1607,ls),
(491,1676,o),
(465,1690,o),
(307,1690,cs),
(148,1690,o),
(123,1676,o),
(125,1607,cs),
(168,68,ls),
(170,7,o),
(184,0,o),
(307,0,c)
);
},
{
closed = 1;
nodes = (
(709,0,ls),
(778,0,o),
(780,21,o),
(780,93,cs),
(780,166,o),
(778,186,o),
(709,186,cs),
(307,186,l),
(307,0,l)
);
}
);
};
layerId = "3E12A9BE-1094-4827-ACE3-4E9390329AA7";
shapes = (
{
closed = 1;
nodes = (
(430,0,o),
(444,11,o),
(445,63,cs),
(489,1607,ls),
(491,1676,o),
(465,1690,o),
(307,1690,cs),
(148,1690,o),
(123,1676,o),
(125,1607,cs),
(168,68,ls),
(170,7,o),
(184,0,o),
(307,0,c)
);
},
{
closed = 1;
nodes = (
(709,0,ls),
(778,0,o),
(780,21,o),
(780,93,cs),
(780,166,o),
(778,186,o),
(709,186,cs),
(307,186,l),
(307,0,l)
);
},
{
closed = 1;
nodes = (
(797,1016,o),
(809,1023,o),
(823,1085,c),
(941,1640,l),
(953,1710,o),
(930,1724,o),
(805,1724,cs),
(680,1724,o),
(653,1710,o),
(645,1640,c),
(607,1085,ls),
(603,1023,o),
(613,1016,o),
(705,1016,cs)
);
}
);
width = 820;
}
);
metricLeft = L;
unicode = 317;
},
{
color = 4;
glyphname = Lcommaaccent;
lastChange = "2023-01-19 22:32:15 +0000";
layers = (
{
background = {
anchors = (
{
name = btm;
pos = (451,-170);
},
{
name = top;
pos = (451,1700);
}
);
shapes = (
{
closed = 1;
nodes = (
(430,0,o),
(444,11,o),
(445,63,cs),
(489,1607,ls),
(491,1676,o),
(465,1690,o),
(307,1690,cs),
(148,1690,o),
(123,1676,o),
(125,1607,cs),
(168,68,ls),
(170,7,o),
(184,0,o),
(307,0,c)
);
},
{
closed = 1;
nodes = (
(709,0,ls),
(778,0,o),
(780,21,o),
(780,93,cs),
(780,166,o),
(778,186,o),
(709,186,cs),
(307,186,l),
(307,0,l)
);
},
{
closed = 1;
nodes = (
(333,-433,o),
(353,-442,o),
(378,-442,cs),
(460,-442,ls),
(499,-442,o),
(515,-433,o),
(543,-394,cs),
(623,-283,ls),
(651,-244,o),
(653,-215,o),
(653,-186,cs),
(653,-138,ls),
(653,-85,o),
(635,-73,o),
(504,-73,cs),
(336,-73,o),
(295,-87,o),
(295,-138,cs),
(295,-215,ls),
(295,-243,o),
(308,-270,o),
(348,-270,cs),
(400,-270,l),
(359,-352,ls),
(347,-377,o),
(333,-397,o),
(333,-417,cs)
);
}
);
};
layerId = "3E12A9BE-1094-4827-ACE3-4E9390329AA7";
shapes = (
{
ref = L;
},
{
pos = (135,0);
ref = commaaccentcomb;
}
);
width = 820;
}
);
unicode = 315;
},
{
color = 3;
glyphname = Ldot;
lastChange = "2023-01-20 01:08:52 +0000";
layers = (
{
background = {
anchors = (
{
name = btm;
pos = (451,-170);
},
{
name = top;
pos = (451,1700);
}
);
shapes = (
{
closed = 1;
nodes = (
(862,738,o),
(879,745,o),
(882,795,cs),
(893,990,ls),
(896,1047,o),
(877,1063,o),
(741,1063,cs),
(605,1063,o),
(585,1047,o),
(589,990,cs),
(601,795,ls),
(604,745,o),
(620,738,o),
(741,738,cs)
);
},
{
closed = 1;
nodes = (
(430,0,o),
(444,11,o),
(445,63,cs),
(489,1607,ls),
(491,1676,o),
(465,1690,o),
(307,1690,cs),
(148,1690,o),
(123,1676,o),
(125,1607,cs),
(168,68,ls),
(170,7,o),
(184,0,o),
(307,0,c)
);
},
{
closed = 1;
nodes = (
(709,0,ls),
(778,0,o),
(780,21,o),
(780,93,cs),
(780,166,o),
(778,186,o),
(709,186,cs),
(307,186,l),
(307,0,l)
);
}
);
};
layerId = "3E12A9BE-1094-4827-ACE3-4E9390329AA7";
shapes = (
{
ref = L;
},
{
alignment = 1;
pos = (439,-138);
ref = periodcentered.loclCAT.case;
}
);
width = 820;
}
);
unicode = 319;
},
{
glyphname = Lj;
lastChange = "2023-01-25 09:18:37 +0000";
layers = (
{
background = {
anchors = (
{
name = btm;
pos = (1107,-170);
},
{
name = top;
pos = (1107,1700);
}
);
shapes = (
{
closed = 1;
nodes = (
(430,0,o),
(444,11,o),
(445,63,cs),
(489,1607,ls),
(491,1676,o),
(465,1690,o),
(307,1690,cs),
(148,1690,o),
(123,1676,o),
(125,1607,cs),
(168,68,ls),
(170,7,o),
(184,0,o),
(307,0,c)
);
},
{
closed = 1;
nodes = (
(709,0,ls),
(778,0,o),
(780,21,o),
(780,93,cs),
(780,166,o),
(778,186,o),
(709,186,cs),
(307,186,l),
(307,0,l)
);
},
{
closed = 1;
nodes = (
(1240,1360,o),
(1260,1367,o),
(1261,1417,cs),
(1272,1612,ls),
(1273,1669,o),
(1255,1685,o),
(1110,1685,cs),
(965,1685,o),
(947,1669,o),
(948,1612,cs),
(960,1417,ls),
(961,1367,o),
(980,1360,o),
(1110,1360,cs)
);
},
{
closed = 1;
nodes = (
(1216,-420,o),
(1234,-413,o),
(1235,-363,cs),
(1267,1129,ls),
(1269,1186,o),
(1250,1202,o),
(1105,1202,cs),
(960,1202,o),
(941,1186,o),
(943,1129,cs),
(976,-363,ls),
(977,-413,o),
(993,-420,o),
(1105,-420,cs)
);
}
);
};
layerId = "3E12A9BE-1094-4827-ACE3-4E9390329AA7";
shapes = (
{
alignment = -1;
ref = L;
},
{
alignment = -1;
pos = (765,0);
ref = j;
}
);
width = 1336;
}
);
unicode = 456;
},
{
color = 5;
glyphname = Lslash;
lastChange = "2023-01-21 07:08:22 +0000";
layers = (
{
anchors = (
{
name = bottom;
pos = (446,0);
},
{
name = center;
pos = (364,845);
},
{
name = ldot;
pos = (739,904);
},
{
name = top;
pos = (410,1690);
},
{
name = topright;
pos = (800,1690);
}
);
background = {
anchors = (
{
name = btm;
pos = (451,-170);
},
{
name = top;
pos = (451,1700);
}
);
shapes = (
{
closed = 1;
nodes = (
(22,750,o),
(13,731,o),
(13,679,cs),
(13,612,ls),
(13,566,o),
(20,553,o),
(43,553,cs),
(60,553,o),
(83,562,o),
(130,590,cs),
(733,946,ls),
(773,969,o),
(780,991,o),
(780,1047,cs),
(780,1135,ls),
(780,1167,o),
(769,1184,o),
(745,1184,cs),
(721,1184,o),
(701,1171,o),
(668,1150,cs),
(56,771,l)
);
},
{
closed = 1;
nodes = (
(430,0,o),
(444,11,o),
(445,63,cs),
(489,1607,ls),
(491,1676,o),
(465,1690,o),
(307,1690,cs),
(148,1690,o),
(123,1676,o),
(125,1607,cs),
(168,68,ls),
(170,7,o),
(184,0,o),
(307,0,c)
);
},
{
closed = 1;
nodes = (
(709,0,ls),
(778,0,o),
(780,21,o),
(780,93,cs),
(780,166,o),
(778,186,o),
(709,186,cs),
(307,186,l),
(307,0,l)
);
}
);
};
layerId = "3E12A9BE-1094-4827-ACE3-4E9390329AA7";
shapes = (
{
closed = 1;
nodes = (
(60,557,o),
(83,566,o),
(130,594,cs),
(306,699,l),
(387,762,l),
(733,966,ls),
(773,989,o),
(780,1011,o),
(780,1067,cs),
(780,1155,ls),
(780,1187,o),
(769,1204,o),
(745,1204,cs),
(721,1204,o),
(701,1191,o),
(668,1170,cs),
(402,1005,l),
(288,920,l),
(56,775,l),
(22,754,o),
(13,735,o),
(13,683,cs),
(13,616,ls),
(13,570,o),
(20,557,o),
(43,557,cs)
);
},
{
closed = 1;
nodes = (
(709,0,ls),
(778,0,o),
(780,21,o),
(780,93,cs),
(780,166,o),
(778,186,o),
(709,186,cs),
(449,186,l),
(489,1607,ls),
(491,1676,o),
(465,1690,o),
(307,1690,cs),
(148,1690,o),
(123,1676,o),
(125,1607,cs),
(168,68,ls),
(170,7,o),
(184,0,o),
(307,0,cs)
);
}
);
userData = {
com.typemytype.robofont.guides = (
{
angle = 90;
isGlobal = 0;
magnetic = 5;
x = 780;
y = 0;
}
);
};
vertWidth = 0;
width = 820;
}
);
unicode = 321;
},
{
glyphname = M;
lastChange = "2023-01-19 19:35:12 +0000";
layers = (
{
anchors = (
{
name = bottom;
pos = (773,0);
},
{
name = top;
pos = (773,1690);
}
);
background = {
anchors = (
{
name = btm;
pos = (772,-170);
},
{
name = top;
pos = (772,1700);
}
);
shapes = (
{
closed = 1;
nodes = (
(496,1635,ls),
(483,1679,o),
(440,1690,o),
(307,1690,cs),
(160,1690,o),
(123,1676,o),
(125,1607,cs),
(168,68,ls),
(170,7,o),
(183,0,o),
(297,0,cs),
(411,0,o),
(425,7,o),
(426,68,cs),
(421,1145,l),
(434,1145,l),
(661,346,ls),
(677,296,o),
(686,286,o),
(766,286,cs),
(857,286,o),
(868,295,o),
(884,346,cs),
(1114,1145,l),
(1127,1145,l),
(1120,68,ls),
(1121,7,o),
(1135,0,o),
(1248,0,cs),
(1362,0,o),
(1375,7,o),
(1377,68,cs),
(1421,1607,ls),
(1423,1676,o),
(1395,1690,o),
(1238,1690,cs),
(1113,1690,o),
(1071,1679,o),
(1059,1635,cs),
(785,785,l),
(774,785,l)
);
}
);
};
layerId = "3E12A9BE-1094-4827-ACE3-4E9390329AA7";
shapes = (
{
closed = 1;
nodes = (
(411,0,o),
(425,7,o),
(426,68,cs),
(421,1145,l),
(434,1145,l),
(661,346,ls),
(677,296,o),
(686,286,o),
(766,286,cs),
(857,286,o),
(868,295,o),
(884,346,cs),
(1114,1145,l),
(1127,1145,l),
(1120,68,ls),
(1121,7,o),
(1135,0,o),
(1248,0,cs),
(1362,0,o),
(1375,7,o),
(1377,68,cs),
(1421,1607,ls),
(1423,1676,o),
(1395,1690,o),
(1238,1690,cs),
(1113,1690,o),
(1071,1679,o),
(1059,1635,cs),
(785,785,l),
(774,785,l),
(496,1635,ls),
(483,1679,o),
(440,1690,o),
(307,1690,cs),
(160,1690,o),
(123,1676,o),
(125,1607,cs),
(168,68,ls),
(170,7,o),
(183,0,o),
(297,0,cs)
);
}
);
userData = {
com.typemytype.robofont.guides = (
{
angle = 90;
isGlobal = 0;
magnetic = 5;
x = 652;
y = 0;
}
);
};
vertWidth = 0;
width = 1546;
}
);
metricLeft = H;
metricRight = H;
unicode = 77;
},
{
glyphname = Mdotaccent;
lastChange = "2023-01-19 19:42:04 +0000";
layers = (
{
background = {
anchors = (
{
name = btm;
pos = (772,-170);
},
{
name = top;
pos = (772,1700);
}
);
shapes = (
{
closed = 1;
nodes = (
(496,1635,ls),
(483,1679,o),
(440,1690,o),
(307,1690,cs),
(160,1690,o),
(123,1676,o),
(125,1607,cs),
(168,68,ls),
(170,7,o),
(183,0,o),
(297,0,cs),
(411,0,o),
(425,7,o),
(426,68,cs),
(421,1145,l),
(434,1145,l),
(661,346,ls),
(677,296,o),
(686,286,o),
(766,286,cs),
(857,286,o),
(868,295,o),
(884,346,cs),
(1114,1145,l),
(1127,1145,l),
(1120,68,ls),
(1121,7,o),
(1135,0,o),
(1248,0,cs),
(1362,0,o),
(1375,7,o),
(1377,68,cs),
(1421,1607,ls),
(1423,1676,o),
(1395,1690,o),
(1238,1690,cs),
(1113,1690,o),
(1071,1679,o),
(1059,1635,cs),
(785,785,l),
(774,785,l)
);
},
{
closed = 1;
nodes = (
(902,1788,o),
(922,1795,o),
(923,1845,c),
(934,2040,l),
(935,2097,o),
(917,2113,o),
(772,2113,cs),
(627,2113,o),
(609,2097,o),
(610,2040,c),
(622,1845,l),
(623,1795,o),
(642,1788,o),
(772,1788,cs)
);
}
);
};
layerId = "3E12A9BE-1094-4827-ACE3-4E9390329AA7";
shapes = (
{
ref = M;
},
{
pos = (773,0);
ref = dotaccentcomb.case;
}
);
width = 1546;
}
);
unicode = 7744;
},
{
glyphname = N;
lastChange = "2023-01-21 07:50:23 +0000";
layers = (
{
anchors = (
{
name = bottom;
pos = (617,0);
},
{
name = hook;
pos = (168,68);
},
{
name = top;
pos = (617,1690);
}
);
background = {
anchors = (
{
name = btm;
pos = (617,-170);
},
{
name = top;
pos = (617,1700);
}
);
shapes = (
{
closed = 1;
nodes = (
(264,1518,l),
(847,28,l),
(983,146,l),
(432,1646,l)
);
},
{
closed = 1;
nodes = (
(409,0,o),
(421,7,o),
(423,68,cs),
(436,1607,ls),
(438,1676,o),
(414,1690,o),
(283,1690,cs),
(143,1690,o),
(123,1676,o),
(125,1607,cs),
(168,68,ls),
(170,7,o),
(185,0,o),
(304,0,cs)
);
},
{
closed = 1;
nodes = (
(1051,0,o),
(1063,37,o),
(1065,98,cs),
(1109,1607,ls),
(1111,1676,o),
(1088,1690,o),
(930,1690,cs),
(789,1690,o),
(765,1676,o),
(767,1607,cs),
(841,68,ls),
(843,7,o),
(877,0,o),
(946,0,cs)
);
},
{
closed = 1;
nodes = (
(499,1063,l),
(499,1120,l),
(414,1120,l),
(414,1063,l)
);
},
{
closed = 1;
nodes = (
(853,569,l),
(853,627,l),
(768,627,l),
(768,569,l)
);
}
);
};
layerId = "3E12A9BE-1094-4827-ACE3-4E9390329AA7";
shapes = (
{
closed = 1;
nodes = (
(983,146,l),
(432,1646,l),
(264,1518,l),
(847,28,l)
);
},
{
closed = 1;
nodes = (
(409,0,o),
(422,7,o),
(423,68,cs),
(436,1607,ls),
(437,1676,o),
(414,1690,o),
(283,1690,cs),
(143,1690,o),
(123,1676,o),
(125,1607,cs),
(168,68,ls),
(170,7,o),
(185,0,o),
(304,0,cs)
);
},
{
closed = 1;
nodes = (
(853,569,l),
(853,627,l),
(768,627,l),
(768,569,l)
);
},
{
closed = 1;
nodes = (
(499,1063,l),
(499,1120,l),
(414,1120,l),
(414,1063,l)
);
},
{
closed = 1;
nodes = (
(1051,0,o),
(1063,37,o),
(1065,98,cs),
(1109,1607,ls),
(1111,1676,o),
(1088,1690,o),
(930,1690,cs),
(789,1690,o),
(764,1676,o),
(767,1607,cs),
(841,68,ls),
(844,7,o),
(877,0,o),
(946,0,cs)
);
}
);
userData = {
com.typemytype.robofont.guides = (
{
angle = 90;
isGlobal = 0;
magnetic = 5;
x = 296;
y = 0;
}
);
};
vertWidth = 0;
width = 1234;
}
);
metricLeft = H;
metricRight = H;
unicode = 78;
userData = {
KernOnName = N;
};
},
{
glyphname = NJ;
lastChange = "2023-01-20 01:21:51 +0000";
layers = (
{
background = {
anchors = (
{
name = btm;
pos = (1704,-170);
},
{
name = top;
pos = (1925,1700);
}
);
shapes = (
{
closed = 1;
nodes = (
(264,1518,l),
(847,28,l),
(983,146,l),
(432,1646,l)
);
},
{
closed = 1;
nodes = (
(409,0,o),
(421,7,o),
(423,68,cs),
(436,1607,ls),
(438,1676,o),
(414,1690,o),
(283,1690,cs),
(143,1690,o),
(123,1676,o),
(125,1607,cs),
(168,68,ls),
(170,7,o),
(185,0,o),
(304,0,cs)
);
},
{
closed = 1;
nodes = (
(1051,0,o),
(1063,37,o),
(1065,98,cs),
(1109,1607,ls),
(1111,1676,o),
(1088,1690,o),
(930,1690,cs),
(789,1690,o),
(765,1676,o),
(767,1607,cs),
(841,68,ls),
(843,7,o),
(877,0,o),
(946,0,cs)
);
},
{
closed = 1;
nodes = (
(499,1063,l),
(499,1120,l),
(414,1120,l),
(414,1063,l)
);
},
{
closed = 1;
nodes = (
(853,569,l),
(853,627,l),
(768,627,l),
(768,569,l)
);
},
{
closed = 1;
nodes = (
(1799,184,o),
(1771,151,o),
(1694,151,cs),
(1618,151,o),
(1589,184,o),
(1592,296,cs),
(1601,696,ls),
(1603,777,o),
(1577,788,o),
(1438,788,cs),
(1315,788,o),
(1283,777,o),
(1284,696,cs),
(1295,303,ls),
(1300,129,o),
(1413,-12,o),
(1694,-12,cs),
(1976,-12,o),
(2083,131,o),
(2088,305,cs),
(2124,1607,ls),
(2126,1676,o),
(2100,1690,o),
(1942,1690,cs),
(1783,1690,o),
(1758,1676,o),
(1760,1607,cs),
(1796,296,l)
);
}
);
};
layerId = "3E12A9BE-1094-4827-ACE3-4E9390329AA7";
shapes = (
{
ref = N;
},
{
pos = (1234,0);
ref = J;
}
);
width = 2249;
}
);
unicode = 458;
},
{
glyphname = Nacute;
lastChange = "2023-01-18 14:59:52 +0000";
layers = (
{
background = {
anchors = (
{
name = btm;
pos = (617,-170);
},
{
name = top;
pos = (617,1700);
}
);
shapes = (
{
closed = 1;
nodes = (
(264,1518,l),
(847,28,l),
(983,146,l),
(432,1646,l)
);
},
{
closed = 1;
nodes = (
(409,0,o),
(421,7,o),
(423,68,cs),
(436,1607,ls),
(438,1676,o),
(414,1690,o),
(283,1690,cs),
(143,1690,o),
(123,1676,o),
(125,1607,cs),
(168,68,ls),
(170,7,o),
(185,0,o),
(304,0,cs)
);
},
{
closed = 1;
nodes = (
(1051,0,o),
(1063,37,o),
(1065,98,cs),
(1109,1607,ls),
(1111,1676,o),
(1088,1690,o),
(930,1690,cs),
(789,1690,o),
(765,1676,o),
(767,1607,cs),
(841,68,ls),
(843,7,o),
(877,0,o),
(946,0,cs)
);
},
{
closed = 1;
nodes = (
(499,1063,l),
(499,1120,l),
(414,1120,l),
(414,1063,l)
);
},
{
closed = 1;
nodes = (
(853,569,l),
(853,627,l),
(768,627,l),
(768,569,l)
);
},
{
closed = 1;
nodes = (
(526,1861,o),
(500,1827,o),
(500,1804,cs),
(500,1778,o),
(530,1770,o),
(598,1770,cs),
(694,1770,o),
(700,1780,o),
(738,1827,cs),
(882,2005,ls),
(907,2037,o),
(927,2062,o),
(927,2083,cs),
(927,2110,o),
(897,2118,o),
(795,2118,cs),
(682,2118,o),
(666,2109,o),
(636,2056,cs),
(554,1910,l)
);
}
);
};
layerId = "3E12A9BE-1094-4827-ACE3-4E9390329AA7";
shapes = (
{
ref = N;
},
{
pos = (520,0);
ref = acutecomb.case;
}
);
width = 1234;
}
);
unicode = 323;
},
{
glyphname = Ncaron;
lastChange = "2023-01-18 14:59:52 +0000";
layers = (
{
background = {
anchors = (
{
name = btm;
pos = (617,-170);
},
{
name = top;
pos = (617,1700);
}
);
shapes = (
{
closed = 1;
nodes = (
(264,1518,l),
(847,28,l),
(983,146,l),
(432,1646,l)
);
},
{
closed = 1;
nodes = (
(409,0,o),
(421,7,o),
(423,68,cs),
(436,1607,ls),
(438,1676,o),
(414,1690,o),
(283,1690,cs),
(143,1690,o),
(123,1676,o),
(125,1607,cs),
(168,68,ls),
(170,7,o),
(185,0,o),
(304,0,cs)
);
},
{
closed = 1;
nodes = (
(1051,0,o),
(1063,37,o),
(1065,98,cs),
(1109,1607,ls),
(1111,1676,o),
(1088,1690,o),
(930,1690,cs),
(789,1690,o),
(765,1676,o),
(767,1607,cs),
(841,68,ls),
(843,7,o),
(877,0,o),
(946,0,cs)
);
},
{
closed = 1;
nodes = (
(499,1063,l),
(499,1120,l),
(414,1120,l),
(414,1063,l)
);
},
{
closed = 1;
nodes = (
(853,569,l),
(853,627,l),
(768,627,l),
(768,569,l)
);
},
{
closed = 1;
nodes = (
(488,2114,o),
(473,2118,o),
(362,2118,cs),
(260,2118,o),
(241,2108,o),
(241,2081,cs),
(241,2060,o),
(272,2026,o),
(292,2005,cs),
(457,1830,ls),
(498,1786,o),
(514,1784,o),
(608,1784,cs),
(624,1784,ls),
(720,1784,o),
(735,1786,o),
(777,1830,cs),
(944,2005,ls),
(965,2027,o),
(995,2060,o),
(995,2081,cs),
(995,2108,o),
(976,2118,o),
(874,2118,cs),
(771,2118,o),
(756,2112,o),
(720,2064,cs),
(657,1981,ls),
(641,1960,o),
(630,1947,o),
(618,1947,cs),
(605,1947,o),
(595,1959,o),
(577,1985,cs),
(522,2064,l)
);
}
);
};
layerId = "3E12A9BE-1094-4827-ACE3-4E9390329AA7";
shapes = (
{
ref = N;
},
{
pos = (616,0);
ref = caroncomb.case;
}
);
width = 1234;
}
);
unicode = 327;
},
{
glyphname = Ncommaaccent;
lastChange = "2023-01-19 09:35:28 +0000";
layers = (
{
background = {
anchors = (
{
name = btm;
pos = (617,-170);
},
{
name = top;
pos = (617,1700);
}
);
shapes = (
{
closed = 1;
nodes = (
(264,1518,l),
(847,28,l),
(983,146,l),
(432,1646,l)
);
},
{
closed = 1;
nodes = (
(409,0,o),
(421,7,o),
(423,68,cs),
(436,1607,ls),
(438,1676,o),
(414,1690,o),
(283,1690,cs),
(143,1690,o),
(123,1676,o),
(125,1607,cs),
(168,68,ls),
(170,7,o),
(185,0,o),
(304,0,cs)
);
},
{
closed = 1;
nodes = (
(1051,0,o),
(1063,37,o),
(1065,98,cs),
(1109,1607,ls),
(1111,1676,o),
(1088,1690,o),
(930,1690,cs),
(789,1690,o),
(765,1676,o),
(767,1607,cs),
(841,68,ls),
(843,7,o),
(877,0,o),
(946,0,cs)
);
},
{
closed = 1;
nodes = (
(499,1063,l),
(499,1120,l),
(414,1120,l),
(414,1063,l)
);
},
{
closed = 1;
nodes = (
(853,569,l),
(853,627,l),
(768,627,l),
(768,569,l)
);
},
{
closed = 1;
nodes = (
(499,-433,o),
(519,-442,o),
(544,-442,cs),
(626,-442,ls),
(665,-442,o),
(681,-433,o),
(709,-394,cs),
(789,-283,ls),
(817,-244,o),
(819,-215,o),
(819,-186,cs),
(819,-138,ls),
(819,-85,o),
(801,-73,o),
(670,-73,cs),
(502,-73,o),
(461,-87,o),
(461,-138,cs),
(461,-215,ls),
(461,-243,o),
(474,-270,o),
(514,-270,cs),
(566,-270,l),
(525,-352,ls),
(513,-377,o),
(499,-397,o),
(499,-417,cs)
);
}
);
};
layerId = "3E12A9BE-1094-4827-ACE3-4E9390329AA7";
shapes = (
{
ref = N;
},
{
pos = (306,0);
ref = commaaccentcomb;
}
);
width = 1234;
}
);
unicode = 325;
},
{
color = 5;
glyphname = Nhookleft;
lastChange = "2023-01-21 06:07:51 +0000";
layers = (
{
anchors = (
{
name = bottom;
pos = (617,0);
},
{
name = top;
pos = (617,1690);
}
);
layerId = "3E12A9BE-1094-4827-ACE3-4E9390329AA7";
shapes = (
{
closed = 1;
nodes = (
(850,30,l),
(864,4,o),
(895,0,o),
(946,0,cs),
(1051,0,o),
(1063,37,o),
(1065,98,cs),
(1109,1607,ls),
(1111,1676,o),
(1088,1690,o),
(930,1690,cs),
(789,1690,o),
(764,1676,o),
(767,1607,cs),
(814,627,l),
(806,627,l),
(432,1646,l),
(421,1682,o),
(384,1690,o),
(283,1690,cs),
(143,1690,o),
(123,1676,o),
(125,1607,cs),
(168,68,l),
(168,-31,o),
(119,-64,o),
(9,-64,cs),
(-51,-64,o),
(-53,-117,o),
(-53,-208,cs),
(-53,-310,o),
(-23,-309,o),
(4,-309,cs),
(278,-309,o),
(422,-185,o),
(422,7,cs),
(431,1063,l),
(442,1063,l),
(847,28,l)
);
}
);
width = 1234;
}
);
unicode = 413;
},
{
glyphname = Nj;
lastChange = "2023-01-25 09:18:37 +0000";
layers = (
{
background = {
anchors = (
{
name = btm;
pos = (1521,-170);
},
{
name = top;
pos = (1521,1700);
}
);
shapes = (
{
closed = 1;
nodes = (
(264,1518,l),
(847,28,l),
(983,146,l),
(432,1646,l)
);
},
{
closed = 1;
nodes = (
(409,0,o),
(421,7,o),
(423,68,cs),
(436,1607,ls),
(438,1676,o),
(414,1690,o),
(283,1690,cs),
(143,1690,o),
(123,1676,o),
(125,1607,cs),
(168,68,ls),
(170,7,o),
(185,0,o),
(304,0,cs)
);
},
{
closed = 1;
nodes = (
(1051,0,o),
(1063,37,o),
(1065,98,cs),
(1109,1607,ls),
(1111,1676,o),
(1088,1690,o),
(930,1690,cs),
(789,1690,o),
(765,1676,o),
(767,1607,cs),
(841,68,ls),
(843,7,o),
(877,0,o),
(946,0,cs)
);
},
{
closed = 1;
nodes = (
(499,1063,l),
(499,1120,l),
(414,1120,l),
(414,1063,l)
);
},
{
closed = 1;
nodes = (
(853,569,l),
(853,627,l),
(768,627,l),
(768,569,l)
);
},
{
closed = 1;
nodes = (
(1654,1360,o),
(1674,1367,o),
(1675,1417,cs),
(1686,1612,ls),
(1687,1669,o),
(1669,1685,o),
(1524,1685,cs),
(1379,1685,o),
(1361,1669,o),
(1362,1612,cs),
(1374,1417,ls),
(1375,1367,o),
(1394,1360,o),
(1524,1360,cs)
);
},
{
closed = 1;
nodes = (
(1630,-420,o),
(1648,-413,o),
(1649,-363,cs),
(1681,1129,ls),
(1683,1186,o),
(1664,1202,o),
(1519,1202,cs),
(1374,1202,o),
(1355,1186,o),
(1357,1129,cs),
(1390,-363,ls),
(1391,-413,o),
(1407,-420,o),
(1519,-420,cs)
);
}
);
};
layerId = "3E12A9BE-1094-4827-ACE3-4E9390329AA7";
shapes = (
{
alignment = -1;
ref = N;
},
{
alignment = -1;
pos = (1236,0);
ref = j;
}
);
width = 1807;
}
);
unicode = 459;
},
{
glyphname = Ntilde;
lastChange = "2023-01-18 14:59:52 +0000";
layers = (
{
background = {
anchors = (
{
name = btm;
pos = (617,-170);
},
{
name = top;
pos = (617,1700);
}
);
shapes = (
{
closed = 1;
nodes = (
(264,1518,l),
(847,28,l),
(983,146,l),
(432,1646,l)
);
},
{
closed = 1;
nodes = (
(409,0,o),
(421,7,o),
(423,68,cs),
(436,1607,ls),
(438,1676,o),
(414,1690,o),
(283,1690,cs),
(143,1690,o),
(123,1676,o),
(125,1607,cs),
(168,68,ls),
(170,7,o),
(185,0,o),
(304,0,cs)
);
},
{
closed = 1;
nodes = (
(1051,0,o),
(1063,37,o),
(1065,98,cs),
(1109,1607,ls),
(1111,1676,o),
(1088,1690,o),
(930,1690,cs),
(789,1690,o),
(765,1676,o),
(767,1607,cs),
(841,68,ls),
(843,7,o),
(877,0,o),
(946,0,cs)
);
},
{
closed = 1;
nodes = (
(499,1063,l),
(499,1120,l),
(414,1120,l),
(414,1063,l)
);
},
{
closed = 1;
nodes = (
(853,569,l),
(853,627,l),
(768,627,l),
(768,569,l)
);
},
{
closed = 1;
nodes = (
(863,1781,o),
(887,1792,o),
(911,1840,cs),
(996,2008,ls),
(1014,2044,o),
(1024,2067,o),
(1024,2087,cs),
(1024,2116,o),
(994,2118,o),
(914,2118,cs),
(828,2118,o),
(817,2117,o),
(801,2073,cs),
(779,2012,ls),
(766,1977,o),
(757,1967,o),
(744,1967,cs),
(729,1967,o),
(713,1982,o),
(688,2007,cs),
(624,2074,ls),
(594,2104,o),
(580,2118,o),
(518,2118,cs),
(460,2118,ls),
(403,2118,o),
(366,2116,o),
(341,2060,cs),
(263,1883,ls),
(249,1852,o),
(239,1833,o),
(239,1815,cs),
(239,1790,o),
(260,1782,o),
(319,1782,cs),
(402,1782,o),
(414,1783,o),
(435,1823,cs),
(460,1871,ls),
(477,1903,o),
(484,1914,o),
(498,1914,cs),
(506,1914,o),
(512,1913,o),
(535,1890,cs),
(592,1834,ls),
(640,1786,o),
(657,1781,o),
(715,1781,cs),
(802,1781,l)
);
}
);
};
layerId = "3E12A9BE-1094-4827-ACE3-4E9390329AA7";
shapes = (
{
ref = N;
},
{
pos = (602,0);
ref = tildecomb.case;
}
);
width = 1234;
}
);
unicode = 209;
},
{
glyphname = Eng;
lastChange = "2023-01-21 06:11:32 +0000";
layers = (
{
anchors = (
{
name = bottom;
pos = (544,0);
},
{
name = top;
pos = (544,1202);
}
);
background = {
shapes = (
{
pos = (4,0);
ref = H;
}
);
};
layerId = "3E12A9BE-1094-4827-ACE3-4E9390329AA7";
shapes = (
{
closed = 1;
nodes = (
(1039,-420,o),
(1057,-413,o),
(1058,-363,cs),
(1102,1375,l),
(1108,1577,o),
(975,1699,o),
(762,1699,cs),
(585,1699,o),
(496,1567,o),
(412,1407,c),
(472,1351,l),
(497,1410,o),
(547,1479,o),
(620,1479,cs),
(685,1479,o),
(753,1451,o),
(754,1346,cs),
(777,-363,ls),
(778,-413,o),
(795,-420,o),
(927,-420,cs)
);
},
{
closed = 1;
nodes = (
(459,0,o),
(477,7,o),
(478,57,cs),
(506,1495,l),
(487,1520,l),
(489,1614,ls),
(490,1671,o),
(473,1687,o),
(297,1687,cs),
(141,1687,o),
(124,1671,o),
(125,1614,cs),
(157,57,ls),
(158,7,o),
(175,0,o),
(307,0,cs)
);
}
);
width = 1227;
}
);
metricLeft = H;
metricRight = H;
unicode = 330;
},
{
glyphname = O;
lastChange = "2023-01-21 07:50:23 +0000";
layers = (
{
anchors = (
{
name = bottom;
pos = (606,0);
},
{
name = center;
pos = (606,845);
},
{
name = ogonek;
pos = (943,10);
},
{
name = top;
pos = (606,1690);
},
{
name = topleft;
pos = (22,1690);
},
{
name = topright;
pos = (819,1740);
}
);
background = {
anchors = (
{
name = btm;
pos = (606,-170);
},
{
name = top;
pos = (606,1700);
}
);
shapes = (
{
closed = 1;
nodes = (
(488,151,o),
(442,184,o),
(445,296,cs),
(474,1396,ls),
(477,1513,o),
(521,1529,o),
(606,1529,cs),
(691,1529,o),
(735,1513,o),
(738,1396,cs),
(767,296,ls),
(770,184,o),
(724,151,o),
(606,151,cs)
);
},
{
closed = 1;
nodes = (
(929,-12,o),
(1056,131,o),
(1061,305,cs),
(1090,1365,ls),
(1095,1565,o),
(951,1701,o),
(606,1701,cs),
(260,1701,o),
(117,1565,o),
(122,1365,cs),
(150,305,ls),
(155,131,o),
(283,-12,o),
(606,-12,cs)
);
}
);
};
layerId = "3E12A9BE-1094-4827-ACE3-4E9390329AA7";
shapes = (
{
closed = 1;
nodes = (
(929,-12,o),
(1056,131,o),
(1061,305,cs),
(1090,1365,ls),
(1095,1565,o),
(951,1701,o),
(606,1701,cs),
(260,1701,o),
(117,1565,o),
(122,1365,cs),
(150,305,ls),
(155,131,o),
(283,-12,o),
(606,-12,cs)
);
},
{
closed = 1;
nodes = (
(488,151,o),
(442,184,o),
(445,296,cs),
(474,1396,ls),
(477,1513,o),
(521,1529,o),
(606,1529,cs),
(691,1529,o),
(735,1513,o),
(738,1396,cs),
(767,296,ls),
(770,184,o),
(724,151,o),
(606,151,cs)
);
}
);
userData = {
com.typemytype.robofont.guides = (
{
angle = 0;
isGlobal = 0;
magnetic = 5;
x = 0;
y = 1774;
},
{
angle = 90;
isGlobal = 0;
magnetic = 5;
x = 604;
y = 0;
}
);
};
vertWidth = 0;
width = 1212;
}
);
unicode = 79;
userData = {
KernOnName = O;
};
},
{
glyphname = Oacute;
lastChange = "2023-01-20 01:17:31 +0000";
layers = (
{
background = {
anchors = (
{
name = btm;
pos = (604,-170);
},
{
name = top;
pos = (604,1700);
}
);
shapes = (
{
closed = 1;
nodes = (
(486,151,o),
(440,184,o),
(443,296,cs),
(472,1396,ls),
(475,1513,o),
(519,1529,o),
(604,1529,cs),
(689,1529,o),
(733,1513,o),
(736,1396,cs),
(765,296,ls),
(768,184,o),
(722,151,o),
(604,151,cs)
);
},
{
closed = 1;
nodes = (
(927,-12,o),
(1054,131,o),
(1059,305,cs),
(1088,1365,ls),
(1093,1565,o),
(949,1701,o),
(604,1701,cs),
(258,1701,o),
(115,1565,o),
(120,1365,cs),
(148,305,ls),
(153,131,o),
(281,-12,o),
(604,-12,cs)
);
},
{
closed = 1;
nodes = (
(513,1861,o),
(487,1827,o),
(487,1804,cs),
(487,1778,o),
(517,1770,o),
(585,1770,cs),
(681,1770,o),
(687,1780,o),
(725,1827,cs),
(869,2005,ls),
(894,2037,o),
(914,2062,o),
(914,2083,cs),
(914,2110,o),
(884,2118,o),
(782,2118,cs),
(669,2118,o),
(653,2109,o),
(623,2056,cs),
(541,1910,l)
);
}
);
};
layerId = "3E12A9BE-1094-4827-ACE3-4E9390329AA7";
shapes = (
{
ref = O;
},
{
pos = (509,0);
ref = acutecomb.case;
}
);
width = 1212;
}
);
unicode = 211;
},
{
glyphname = Obreve;
lastChange = "2023-01-20 01:17:31 +0000";
layers = (
{
background = {
anchors = (
{
name = btm;
pos = (604,-170);
},
{
name = top;
pos = (604,1700);
}
);
shapes = (
{
closed = 1;
nodes = (
(486,151,o),
(440,184,o),
(443,296,cs),
(472,1396,ls),
(475,1513,o),
(519,1529,o),
(604,1529,cs),
(689,1529,o),
(733,1513,o),
(736,1396,cs),
(765,296,ls),
(768,184,o),
(722,151,o),
(604,151,cs)
);
},
{
closed = 1;
nodes = (
(927,-12,o),
(1054,131,o),
(1059,305,cs),
(1088,1365,ls),
(1093,1565,o),
(949,1701,o),
(604,1701,cs),
(258,1701,o),
(115,1565,o),
(120,1365,cs),
(148,305,ls),
(153,131,o),
(281,-12,o),
(604,-12,cs)
);
},
{
closed = 1;
nodes = (
(475,2117,o),
(417,2118,o),
(329,2118,cs),
(227,2118,o),
(228,2088,o),
(228,2061,cs),
(228,1876,o),
(404,1776,o),
(595,1776,cs),
(612,1776,ls),
(804,1776,o),
(982,1835,o),
(982,2061,cs),
(982,2088,o),
(983,2118,o),
(881,2118,cs),
(790,2118,o),
(737,2116,o),
(737,2056,cs),
(737,1988,o),
(704,1957,o),
(605,1957,cs),
(504,1957,o),
(475,1989,o),
(475,2056,cs)
);
}
);
};
layerId = "3E12A9BE-1094-4827-ACE3-4E9390329AA7";
shapes = (
{
ref = O;
},
{
pos = (605,0);
ref = brevecomb.case;
}
);
width = 1212;
}
);
unicode = 334;
},
{
glyphname = Ocircumflex;
lastChange = "2023-01-20 01:17:31 +0000";
layers = (
{
background = {
anchors = (
{
name = btm;
pos = (604,-170);
},
{
name = top;
pos = (604,1700);
}
);
shapes = (
{
closed = 1;
nodes = (
(486,151,o),
(440,184,o),
(443,296,cs),
(472,1396,ls),
(475,1513,o),
(519,1529,o),
(604,1529,cs),
(689,1529,o),
(733,1513,o),
(736,1396,cs),
(765,296,ls),
(768,184,o),
(722,151,o),
(604,151,cs)
);
},
{
closed = 1;
nodes = (
(927,-12,o),
(1054,131,o),
(1059,305,cs),
(1088,1365,ls),
(1093,1565,o),
(949,1701,o),
(604,1701,cs),
(258,1701,o),
(115,1565,o),
(120,1365,cs),
(148,305,ls),
(153,131,o),
(281,-12,o),
(604,-12,cs)
);
},
{
closed = 1;
nodes = (
(258,1848,o),
(240,1827,o),
(240,1806,cs),
(240,1780,o),
(260,1770,o),
(333,1770,cs),
(409,1770,o),
(418,1779,o),
(473,1832,cs),
(562,1917,ls),
(581,1935,o),
(593,1944,o),
(605,1944,cs),
(617,1944,o),
(629,1935,o),
(646,1918,cs),
(738,1832,ls),
(792,1781,o),
(806,1770,o),
(876,1770,cs),
(958,1770,o),
(969,1780,o),
(969,1806,cs),
(969,1827,o),
(952,1848,o),
(919,1894,cs),
(800,2056,ls),
(759,2112,o),
(731,2118,o),
(686,2118,cs),
(531,2118,ls),
(475,2118,o),
(446,2112,o),
(406,2056,cs),
(290,1894,ls)
);
}
);
};
layerId = "3E12A9BE-1094-4827-ACE3-4E9390329AA7";
shapes = (
{
ref = O;
},
{
pos = (605,0);
ref = circumflexcomb.case;
}
);
width = 1212;
}
);
unicode = 212;
},
{
glyphname = Odieresis;
lastChange = "2023-01-20 01:17:31 +0000";
layers = (
{
background = {
anchors = (
{
name = btm;
pos = (604,-170);
},
{
name = top;
pos = (604,1700);
}
);
shapes = (
{
closed = 1;
nodes = (
(486,151,o),
(440,184,o),
(443,296,cs),
(472,1396,ls),
(475,1513,o),
(519,1529,o),
(604,1529,cs),
(689,1529,o),
(733,1513,o),
(736,1396,cs),
(765,296,ls),
(768,184,o),
(722,151,o),
(604,151,cs)
);
},
{
closed = 1;
nodes = (
(927,-12,o),
(1054,131,o),
(1059,305,cs),
(1088,1365,ls),
(1093,1565,o),
(949,1701,o),
(604,1701,cs),
(258,1701,o),
(115,1565,o),
(120,1365,cs),
(148,305,ls),
(153,131,o),
(281,-12,o),
(604,-12,cs)
);
},
{
closed = 1;
nodes = (
(493,1817,o),
(509,1824,o),
(512,1874,cs),
(523,2037,ls),
(526,2094,o),
(508,2110,o),
(381,2110,cs),
(254,2110,o),
(235,2094,o),
(239,2037,cs),
(251,1874,ls),
(254,1824,o),
(269,1817,o),
(381,1817,cs)
);
},
{
closed = 1;
nodes = (
(939,1817,o),
(955,1824,o),
(958,1874,cs),
(969,2037,ls),
(972,2094,o),
(954,2110,o),
(827,2110,cs),
(700,2110,o),
(681,2094,o),
(685,2037,cs),
(697,1874,ls),
(700,1824,o),
(715,1817,o),
(827,1817,cs)
);
}
);
};
layerId = "3E12A9BE-1094-4827-ACE3-4E9390329AA7";
shapes = (
{
ref = O;
},
{
pos = (606,0);
ref = dieresiscomb.case;
}
);
width = 1212;
}
);
unicode = 214;
},
{
glyphname = Ograve;
lastChange = "2023-01-20 01:17:31 +0000";
layers = (
{
background = {
anchors = (
{
name = btm;
pos = (604,-170);
},
{
name = top;
pos = (604,1700);
}
);
shapes = (
{
closed = 1;
nodes = (
(486,151,o),
(440,184,o),
(443,296,cs),
(472,1396,ls),
(475,1513,o),
(519,1529,o),
(604,1529,cs),
(689,1529,o),
(733,1513,o),
(736,1396,cs),
(765,296,ls),
(768,184,o),
(722,151,o),
(604,151,cs)
);
},
{
closed = 1;
nodes = (
(927,-12,o),
(1054,131,o),
(1059,305,cs),
(1088,1365,ls),
(1093,1565,o),
(949,1701,o),
(604,1701,cs),
(258,1701,o),
(115,1565,o),
(120,1365,cs),
(148,305,ls),
(153,131,o),
(281,-12,o),
(604,-12,cs)
);
},
{
closed = 1;
nodes = (
(708,1861,o),
(734,1827,o),
(734,1804,cs),
(734,1778,o),
(704,1770,o),
(636,1770,cs),
(540,1770,o),
(534,1780,o),
(496,1827,cs),
(352,2005,ls),
(327,2037,o),
(307,2062,o),
(307,2083,cs),
(307,2110,o),
(337,2118,o),
(439,2118,cs),
(552,2118,o),
(568,2109,o),
(598,2056,cs),
(680,1910,l)
);
}
);
};
layerId = "3E12A9BE-1094-4827-ACE3-4E9390329AA7";
shapes = (
{
ref = O;
},
{
pos = (589,0);
ref = gravecomb.case;
}
);
width = 1212;
}
);
unicode = 210;
},
{
glyphname = Ohungarumlaut;
lastChange = "2023-01-20 01:17:31 +0000";
layers = (
{
background = {
anchors = (
{
name = btm;
pos = (604,-170);
},
{
name = top;
pos = (604,1700);
}
);
shapes = (
{
closed = 1;
nodes = (
(486,151,o),
(440,184,o),
(443,296,cs),
(472,1396,ls),
(475,1513,o),
(519,1529,o),
(604,1529,cs),
(689,1529,o),
(733,1513,o),
(736,1396,cs),
(765,296,ls),
(768,184,o),
(722,151,o),
(604,151,cs)
);
},
{
closed = 1;
nodes = (
(927,-12,o),
(1054,131,o),
(1059,305,cs),
(1088,1365,ls),
(1093,1565,o),
(949,1701,o),
(604,1701,cs),
(258,1701,o),
(115,1565,o),
(120,1365,cs),
(148,305,ls),
(153,131,o),
(281,-12,o),
(604,-12,cs)
);
},
{
closed = 1;
nodes = (
(303,1861,o),
(277,1827,o),
(277,1804,cs),
(277,1778,o),
(307,1770,o),
(375,1770,cs),
(471,1770,o),
(477,1780,o),
(515,1827,cs),
(659,2005,ls),
(684,2037,o),
(704,2062,o),
(704,2083,cs),
(704,2110,o),
(674,2118,o),
(572,2118,cs),
(459,2118,o),
(443,2109,o),
(413,2056,cs),
(331,1910,l)
);
},
{
closed = 1;
nodes = (
(687,1861,o),
(658,1827,o),
(656,1804,cs),
(654,1778,o),
(684,1770,o),
(752,1770,cs),
(848,1770,o),
(854,1780,o),
(896,1827,cs),
(1054,2005,ls),
(1081,2037,o),
(1103,2062,o),
(1105,2083,cs),
(1107,2110,o),
(1078,2118,o),
(976,2118,cs),
(863,2118,o),
(846,2109,o),
(812,2056,cs),
(718,1910,ls)
);
}
);
};
layerId = "3E12A9BE-1094-4827-ACE3-4E9390329AA7";
shapes = (
{
ref = O;
},
{
pos = (201,0);
ref = hungarumlautcomb.case;
}
);
width = 1212;
}
);
unicode = 336;
},
{
glyphname = Omacron;
lastChange = "2023-01-20 01:17:31 +0000";
layers = (
{
background = {
anchors = (
{
name = btm;
pos = (604,-170);
},
{
name = top;
pos = (604,1700);
}
);
shapes = (
{
closed = 1;
nodes = (
(486,151,o),
(440,184,o),
(443,296,cs),
(472,1396,ls),
(475,1513,o),
(519,1529,o),
(604,1529,cs),
(689,1529,o),
(733,1513,o),
(736,1396,cs),
(765,296,ls),
(768,184,o),
(722,151,o),
(604,151,cs)
);
},
{
closed = 1;
nodes = (
(927,-12,o),
(1054,131,o),
(1059,305,cs),
(1088,1365,ls),
(1093,1565,o),
(949,1701,o),
(604,1701,cs),
(258,1701,o),
(115,1565,o),
(120,1365,cs),
(148,305,ls),
(153,131,o),
(281,-12,o),
(604,-12,cs)
);
},
{
closed = 1;
nodes = (
(961,1839,o),
(963,1864,o),
(963,1946,cs),
(963,2036,o),
(961,2065,o),
(891,2065,cs),
(323,2065,ls),
(253,2065,o),
(251,2037,o),
(251,1947,cs),
(251,1865,o),
(253,1839,o),
(323,1839,cs),
(891,1839,l)
);
}
);
};
layerId = "3E12A9BE-1094-4827-ACE3-4E9390329AA7";
shapes = (
{
ref = O;
},
{
pos = (603,0);
ref = macroncomb.case;
}
);
width = 1212;
}
);
unicode = 332;
},
{
color = 4;
glyphname = Oopen;
lastChange = "2023-01-19 22:17:42 +0000";
layers = (
{
anchors = (
{
name = bottom;
pos = (599,0);
},
{
name = top;
pos = (599,1690);
}
);
layerId = "3E12A9BE-1094-4827-ACE3-4E9390329AA7";
shapes = (
{
closed = 1;
nodes = (
(917,-12,o),
(1045,131,o),
(1050,305,cs),
(1078,1365,ls),
(1083,1565,o),
(940,1701,o),
(594,1701,cs),
(249,1701,o),
(105,1565,o),
(110,1365,cs),
(122,879,ls),
(124,798,o),
(162,787,o),
(286,787,cs),
(411,787,o),
(447,798,o),
(449,879,cs),
(462,1396,l),
(465,1513,o),
(509,1529,o),
(594,1529,cs),
(679,1529,o),
(723,1513,o),
(726,1396,cs),
(755,296,ls),
(758,184,o),
(712,151,o),
(594,151,cs),
(476,151,o),
(429,184,o),
(433,296,cs),
(437,415,ls),
(440,496,o),
(401,507,o),
(278,507,cs),
(157,507,o),
(134,496,o),
(136,415,c),
(139,303,l),
(144,129,o),
(271,-12,o),
(594,-12,cs)
);
}
);
width = 1198;
}
);
unicode = 390;
},
{
glyphname = Oslash;
lastChange = "2023-01-18 14:51:08 +0000";
layers = (
{
background = {
anchors = (
{
name = btm;
pos = (604,-170);
},
{
name = top;
pos = (604,1700);
}
);
shapes = (
{
closed = 1;
nodes = (
(1076,1927,ls),
(1097,1979,o),
(1070,1996,o),
(956,1997,cs),
(841,1998,o),
(832,1979,o),
(814,1926,cs),
(725,1653,l),
(922,1542,l)
);
},
{
closed = 1;
nodes = (
(168,-207,l),
(147,-252,o),
(166,-264,o),
(254,-265,cs),
(325,-266,o),
(350,-262,o),
(369,-216,cs),
(495,91,l),
(292,175,l)
);
},
{
closed = 1;
nodes = (
(486,151,o),
(440,184,o),
(443,296,cs),
(472,1396,ls),
(475,1513,o),
(519,1529,o),
(604,1529,cs),
(689,1529,o),
(733,1513,o),
(736,1396,cs),
(765,296,ls),
(768,184,o),
(722,151,o),
(604,151,cs)
);
},
{
closed = 1;
nodes = (
(927,-12,o),
(1054,131,o),
(1059,305,cs),
(1088,1365,ls),
(1093,1565,o),
(949,1701,o),
(604,1701,cs),
(258,1701,o),
(115,1565,o),
(120,1365,cs),
(148,305,ls),
(153,131,o),
(281,-12,o),
(604,-12,cs)
);
}
);
};
layerId = "3E12A9BE-1094-4827-ACE3-4E9390329AA7";
shapes = (
{
closed = 1;
nodes = (
(1076,1927,ls),
(1097,1979,o),
(1070,1996,o),
(956,1997,cs),
(841,1998,o),
(832,1979,o),
(814,1926,cs),
(725,1653,l),
(922,1542,l)
);
},
{
closed = 1;
nodes = (
(325,-266,o),
(350,-262,o),
(369,-216,cs),
(495,91,l),
(292,175,l),
(168,-207,l),
(147,-252,o),
(166,-264,o),
(254,-265,cs)
);
},
{
ref = O;
}
);
vertWidth = 0;
width = 1208;
}
);
unicode = 216;
},
{
glyphname = Otilde;
lastChange = "2023-01-20 01:17:31 +0000";
layers = (
{
background = {
anchors = (
{
name = btm;
pos = (604,-170);
},
{
name = top;
pos = (604,1700);
}
);
shapes = (
{
closed = 1;
nodes = (
(486,151,o),
(440,184,o),
(443,296,cs),
(472,1396,ls),
(475,1513,o),
(519,1529,o),
(604,1529,cs),
(689,1529,o),
(733,1513,o),
(736,1396,cs),
(765,296,ls),
(768,184,o),
(722,151,o),
(604,151,cs)
);
},
{
closed = 1;
nodes = (
(927,-12,o),
(1054,131,o),
(1059,305,cs),
(1088,1365,ls),
(1093,1565,o),
(949,1701,o),
(604,1701,cs),
(258,1701,o),
(115,1565,o),
(120,1365,cs),
(148,305,ls),
(153,131,o),
(281,-12,o),
(604,-12,cs)
);
},
{
closed = 1;
nodes = (
(850,1781,o),
(874,1792,o),
(898,1840,cs),
(983,2008,ls),
(1001,2044,o),
(1011,2067,o),
(1011,2087,cs),
(1011,2116,o),
(981,2118,o),
(901,2118,cs),
(815,2118,o),
(804,2117,o),
(788,2073,cs),
(766,2012,ls),
(753,1977,o),
(744,1967,o),
(731,1967,cs),
(716,1967,o),
(700,1982,o),
(675,2007,cs),
(611,2074,ls),
(581,2104,o),
(567,2118,o),
(505,2118,cs),
(447,2118,ls),
(390,2118,o),
(353,2116,o),
(328,2060,cs),
(250,1883,ls),
(236,1852,o),
(226,1833,o),
(226,1815,cs),
(226,1790,o),
(247,1782,o),
(306,1782,cs),
(389,1782,o),
(401,1783,o),
(422,1823,cs),
(447,1871,ls),
(464,1903,o),
(471,1914,o),
(485,1914,cs),
(493,1914,o),
(499,1913,o),
(522,1890,cs),
(579,1834,ls),
(627,1786,o),
(644,1781,o),
(702,1781,cs),
(789,1781,l)
);
}
);
};
layerId = "3E12A9BE-1094-4827-ACE3-4E9390329AA7";
shapes = (
{
ref = O;
},
{
pos = (591,0);
ref = tildecomb.case;
}
);
width = 1212;
}
);
unicode = 213;
},
{
glyphname = OE;
lastChange = "2023-01-20 01:13:05 +0000";
layers = (
{
background = {
shapes = (
{
closed = 1;
nodes = (
(488,162,o),
(442,195,o),
(445,307,cs),
(474,1387,ls),
(477,1503,o),
(521,1519,o),
(606,1519,cs),
(903,1519,l),
(903,1690,l),
(606,1690,ls),
(260,1690,o),
(117,1555,o),
(122,1355,cs),
(150,316,ls),
(155,142,o),
(283,-1,o),
(606,-1,c),
(881,-1,l),
(881,162,l),
(606,162,l)
);
},
{
closed = 1;
nodes = (
(982,0,o),
(996,11,o),
(998,63,cs),
(1041,1607,ls),
(1043,1676,o),
(1018,1690,o),
(859,1690,cs),
(701,1690,o),
(675,1676,o),
(677,1607,cs),
(721,68,ls),
(723,7,o),
(737,0,o),
(859,0,c)
);
},
{
closed = 1;
nodes = (
(1323,1494,ls),
(1392,1494,o),
(1394,1511,o),
(1394,1592,cs),
(1394,1672,o),
(1392,1690,o),
(1323,1690,cs),
(860,1690,l),
(860,1494,l)
);
},
{
closed = 1;
nodes = (
(1261,689,ls),
(1331,689,o),
(1333,706,o),
(1333,784,cs),
(1333,862,o),
(1331,879,o),
(1261,879,cs),
(799,879,l),
(799,689,l)
);
},
{
closed = 1;
nodes = (
(1285,0,ls),
(1354,0,o),
(1356,21,o),
(1356,93,cs),
(1356,166,o),
(1354,186,o),
(1285,186,cs),
(859,186,l),
(859,0,l)
);
}
);
};
layerId = "3E12A9BE-1094-4827-ACE3-4E9390329AA7";
shapes = (
{
closed = 1;
nodes = (
(881,-1,l),
(881,162,l),
(606,162,l),
(488,162,o),
(442,195,o),
(445,307,cs),
(474,1387,ls),
(477,1503,o),
(521,1519,o),
(606,1519,cs),
(903,1519,l),
(903,1690,l),
(606,1690,ls),
(260,1690,o),
(117,1555,o),
(122,1355,cs),
(150,316,ls),
(155,142,o),
(283,-1,o),
(606,-1,c)
);
},
{
closed = 1;
nodes = (
(1285,0,ls),
(1354,0,o),
(1356,21,o),
(1356,93,cs),
(1356,166,o),
(1354,186,o),
(1285,186,cs),
(859,186,l),
(859,0,l)
);
},
{
closed = 1;
nodes = (
(982,0,o),
(996,11,o),
(998,63,cs),
(1041,1607,ls),
(1043,1676,o),
(1018,1690,o),
(859,1690,cs),
(701,1690,o),
(675,1676,o),
(677,1607,cs),
(721,68,ls),
(723,7,o),
(737,0,o),
(859,0,c)
);
},
{
closed = 1;
nodes = (
(1261,689,ls),
(1331,689,o),
(1333,706,o),
(1333,784,cs),
(1333,862,o),
(1331,879,o),
(1261,879,cs),
(799,879,l),
(799,689,l)
);
},
{
closed = 1;
nodes = (
(1323,1494,ls),
(1392,1494,o),
(1394,1511,o),
(1394,1592,cs),
(1394,1672,o),
(1392,1690,o),
(1323,1690,cs),
(860,1690,l),
(860,1494,l)
);
}
);
userData = {
com.typemytype.robofont.guides = (
{
angle = 90;
isGlobal = 0;
magnetic = 5;
x = 604;
y = 0;
}
);
};
vertWidth = 0;
width = 1454;
}
);
metricLeft = O;
metricRight = E;
unicode = 338;
},
{
glyphname = P;
lastChange = "2023-01-21 07:50:23 +0000";
layers = (
{
anchors = (
{
name = bottom;
pos = (563,0);
},
{
name = hook;
pos = (148,1690);
},
{
name = top;
pos = (563,1690);
}
);
background = {
anchors = (
{
name = btm;
pos = (582,-170);
},
{
name = top;
pos = (582,1700);
}
);
shapes = (
{
closed = 1;
nodes = (
(583,570,ls),
(917,570,o),
(1023,737,o),
(1027,889,cs),
(1040,1364,ls),
(1047,1595,o),
(834,1690,o),
(560,1690,cs),
(332,1690,l),
(332,1517,l),
(528,1517,ls),
(656,1517,o),
(685,1499,o),
(688,1396,cs),
(702,881,ls),
(705,769,o),
(667,733,o),
(539,733,cs),
(238,733,l),
(238,570,l)
);
},
{
closed = 1;
nodes = (
(430,0,o),
(444,7,o),
(445,68,cs),
(489,1607,ls),
(491,1676,o),
(465,1690,o),
(307,1690,cs),
(148,1690,o),
(123,1676,o),
(125,1607,cs),
(168,68,ls),
(170,7,o),
(184,0,o),
(307,0,cs)
);
}
);
};
layerId = "3E12A9BE-1094-4827-ACE3-4E9390329AA7";
shapes = (
{
closed = 1;
nodes = (
(583,570,ls),
(917,570,o),
(1023,737,o),
(1027,889,cs),
(1040,1364,ls),
(1046,1595,o),
(834,1690,o),
(560,1690,cs),
(332,1690,l),
(332,1517,l),
(528,1517,ls),
(656,1517,o),
(685,1499,o),
(688,1396,cs),
(702,881,ls),
(705,769,o),
(667,733,o),
(539,733,cs),
(238,733,l),
(238,570,l)
);
},
{
closed = 1;
nodes = (
(430,0,o),
(443,7,o),
(445,68,cs),
(489,1607,ls),
(491,1676,o),
(465,1690,o),
(307,1690,cs),
(148,1690,o),
(123,1676,o),
(125,1607,cs),
(168,68,ls),
(170,7,o),
(184,0,o),
(307,0,cs)
);
}
);
userData = {
com.typemytype.robofont.guides = (
{
angle = 90;
isGlobal = 0;
magnetic = 5;
x = 591;
y = 0;
}
);
};
vertWidth = 0;
width = 1126;
}
);
metricLeft = H;
unicode = 80;
userData = {
KernOnName = P;
};
},
{
color = 4;
glyphname = Pdotaccent;
lastChange = "2023-01-19 20:33:06 +0000";
layers = (
{
background = {
anchors = (
{
name = btm;
pos = (582,-170);
},
{
name = top;
pos = (582,1700);
}
);
shapes = (
{
closed = 1;
nodes = (
(583,570,ls),
(917,570,o),
(1023,737,o),
(1027,889,cs),
(1040,1364,ls),
(1047,1595,o),
(834,1690,o),
(560,1690,cs),
(332,1690,l),
(332,1517,l),
(528,1517,ls),
(656,1517,o),
(685,1499,o),
(688,1396,cs),
(702,881,ls),
(705,769,o),
(667,733,o),
(539,733,cs),
(238,733,l),
(238,570,l)
);
},
{
closed = 1;
nodes = (
(430,0,o),
(444,7,o),
(445,68,cs),
(489,1607,ls),
(491,1676,o),
(465,1690,o),
(307,1690,cs),
(148,1690,o),
(123,1676,o),
(125,1607,cs),
(168,68,ls),
(170,7,o),
(184,0,o),
(307,0,cs)
);
},
{
closed = 1;
nodes = (
(712,1788,o),
(732,1795,o),
(733,1845,c),
(744,2040,l),
(745,2097,o),
(727,2113,o),
(582,2113,cs),
(437,2113,o),
(419,2097,o),
(420,2040,c),
(432,1845,l),
(433,1795,o),
(452,1788,o),
(582,1788,cs)
);
}
);
};
layerId = "3E12A9BE-1094-4827-ACE3-4E9390329AA7";
shapes = (
{
ref = P;
},
{
pos = (563,0);
ref = dotaccentcomb.case;
}
);
width = 1126;
}
);
unicode = 7766;
},
{
glyphname = Thorn;
lastChange = "2023-01-18 14:51:08 +0000";
layers = (
{
background = {
shapes = (
{
closed = 1;
nodes = (
(623,299,ls),
(956,299,o),
(1062,465,o),
(1066,617,cs),
(1080,1093,ls),
(1087,1324,o),
(873,1418,o),
(600,1418,cs),
(332,1418,l),
(332,1246,l),
(567,1246,ls),
(696,1246,o),
(725,1228,o),
(728,1124,cs),
(742,610,ls),
(744,498,o),
(707,462,o),
(578,462,cs),
(238,462,l),
(238,299,l)
);
},
{
closed = 1;
nodes = (
(430,0,o),
(444,7,o),
(445,68,cs),
(489,1607,ls),
(491,1676,o),
(465,1690,o),
(307,1690,cs),
(148,1690,o),
(123,1676,o),
(125,1607,cs),
(168,68,ls),
(170,7,o),
(184,0,o),
(307,0,cs)
);
}
);
};
layerId = "3E12A9BE-1094-4827-ACE3-4E9390329AA7";
shapes = (
{
closed = 1;
nodes = (
(623,299,ls),
(956,299,o),
(1062,465,o),
(1066,617,cs),
(1080,1093,ls),
(1087,1324,o),
(873,1418,o),
(600,1418,cs),
(332,1418,l),
(332,1246,l),
(567,1246,ls),
(696,1246,o),
(725,1228,o),
(728,1124,cs),
(742,610,ls),
(744,498,o),
(707,462,o),
(578,462,cs),
(238,462,l),
(238,299,l)
);
},
{
closed = 1;
nodes = (
(430,0,o),
(444,7,o),
(445,68,cs),
(489,1607,ls),
(491,1676,o),
(465,1690,o),
(307,1690,cs),
(148,1690,o),
(123,1676,o),
(125,1607,cs),
(168,68,ls),
(170,7,o),
(184,0,o),
(307,0,cs)
);
}
);
userData = {
com.typemytype.robofont.guides = (
{
angle = 90;
isGlobal = 0;
magnetic = 5;
x = 591;
y = 0;
}
);
};
vertWidth = 0;
width = 1180;
}
);
unicode = 222;
},
{
glyphname = Q;
lastChange = "2023-01-18 14:54:17 +0000";
layers = (
{
anchors = (
{
name = bottom;
pos = (604,0);
},
{
name = top;
pos = (604,1690);
}
);
background = {
anchors = (
{
name = btm;
pos = (604,-170);
},
{
name = top;
pos = (604,1700);
}
);
shapes = (
{
closed = 1;
nodes = (
(486,151,o),
(440,184,o),
(443,296,cs),
(472,1396,ls),
(475,1513,o),
(519,1529,o),
(604,1529,cs),
(689,1529,o),
(733,1513,o),
(736,1396,cs),
(765,296,ls),
(768,184,o),
(722,151,o),
(604,151,cs)
);
},
{
closed = 1;
nodes = (
(927,-12,o),
(1054,131,o),
(1059,305,cs),
(1088,1365,ls),
(1093,1565,o),
(949,1701,o),
(604,1701,cs),
(258,1701,o),
(115,1565,o),
(120,1365,cs),
(148,305,ls),
(153,131,o),
(281,-12,o),
(604,-12,cs)
);
},
{
closed = 1;
nodes = (
(783,-212,ls),
(831,-276,o),
(836,-286,o),
(939,-286,cs),
(1049,-286,o),
(1060,-273,o),
(1060,-241,cs),
(1060,-221,o),
(1038,-191,o),
(1006,-144,cs),
(874,54,l),
(588,54,l)
);
}
);
};
layerId = "3E12A9BE-1094-4827-ACE3-4E9390329AA7";
shapes = (
{
closed = 1;
nodes = (
(927,-12,o),
(1054,131,o),
(1059,305,cs),
(1088,1365,ls),
(1093,1565,o),
(949,1701,o),
(604,1701,cs),
(258,1701,o),
(115,1565,o),
(120,1365,cs),
(148,305,ls),
(153,131,o),
(281,-12,o),
(604,-12,cs)
);
},
{
closed = 1;
nodes = (
(1049,-286,o),
(1060,-273,o),
(1060,-241,cs),
(1060,-221,o),
(1038,-191,o),
(1006,-144,cs),
(874,54,l),
(588,54,l),
(783,-212,ls),
(831,-276,o),
(836,-286,o),
(939,-286,cs)
);
},
{
closed = 1;
nodes = (
(486,151,o),
(440,184,o),
(443,296,cs),
(472,1396,ls),
(475,1513,o),
(519,1529,o),
(604,1529,cs),
(689,1529,o),
(733,1513,o),
(736,1396,cs),
(765,296,ls),
(768,184,o),
(722,151,o),
(604,151,cs)
);
}
);
userData = {
com.typemytype.robofont.guides = (
{
angle = 90;
isGlobal = 0;
magnetic = 5;
x = 604;
y = 0;
},
{
angle = 90;
isGlobal = 0;
magnetic = 5;
x = 1061;
y = 0;
}
);
};
vertWidth = 0;
width = 1208;
}
);
unicode = 81;
},
{
glyphname = R;
lastChange = "2023-01-21 07:52:13 +0000";
layers = (
{
anchors = (
{
name = bottom;
pos = (570,0);
},
{
name = top;
pos = (570,1690);
}
);
background = {
anchors = (
{
name = btm;
pos = (591,-170);
},
{
name = top;
pos = (591,1700);
}
);
shapes = (
{
closed = 1;
nodes = (
(583,570,ls),
(917,570,o),
(1023,737,o),
(1027,889,cs),
(1040,1364,ls),
(1047,1595,o),
(834,1690,o),
(560,1690,cs),
(332,1690,l),
(332,1517,l),
(528,1517,ls),
(656,1517,o),
(685,1499,o),
(688,1396,cs),
(702,881,ls),
(705,769,o),
(667,733,o),
(539,733,cs),
(238,733,l),
(238,570,l)
);
},
{
closed = 1;
nodes = (
(518,689,l),
(778,80,ls),
(810,15,o),
(825,0,o),
(932,0,cs),
(1042,0,o),
(1058,13,o),
(1058,45,cs),
(1058,66,o),
(1047,94,o),
(1029,142,cs),
(814,689,l)
);
},
{
closed = 1;
nodes = (
(430,0,o),
(444,7,o),
(445,68,cs),
(489,1607,ls),
(491,1676,o),
(465,1690,o),
(307,1690,cs),
(148,1690,o),
(123,1676,o),
(125,1607,cs),
(168,68,ls),
(170,7,o),
(184,0,o),
(307,0,cs)
);
}
);
};
layerId = "3E12A9BE-1094-4827-ACE3-4E9390329AA7";
shapes = (
{
closed = 1;
nodes = (
(583,570,ls),
(917,570,o),
(1023,737,o),
(1027,889,cs),
(1040,1364,ls),
(1047,1595,o),
(834,1690,o),
(560,1690,cs),
(332,1690,l),
(332,1517,l),
(528,1517,ls),
(656,1517,o),
(685,1499,o),
(688,1396,cs),
(702,881,ls),
(705,769,o),
(667,733,o),
(539,733,cs),
(238,733,l),
(238,570,l)
);
},
{
closed = 1;
nodes = (
(1042,0,o),
(1058,13,o),
(1058,45,cs),
(1058,66,o),
(1047,94,o),
(1029,142,cs),
(814,689,l),
(518,689,l),
(778,80,ls),
(810,15,o),
(825,0,o),
(932,0,cs)
);
},
{
closed = 1;
nodes = (
(430,0,o),
(444,7,o),
(445,68,cs),
(489,1607,ls),
(491,1676,o),
(465,1690,o),
(307,1690,cs),
(148,1690,o),
(123,1676,o),
(125,1607,cs),
(168,68,ls),
(170,7,o),
(184,0,o),
(307,0,cs)
);
}
);
userData = {
com.typemytype.robofont.guides = (
{
angle = 90;
isGlobal = 0;
magnetic = 5;
x = 591;
y = 0;
},
{
angle = 90;
isGlobal = 0;
magnetic = 5;
x = 1038;
y = 0;
}
);
};
vertWidth = 0;
width = 1140;
}
);
metricLeft = H;
unicode = 82;
userData = {
KernOnName = R;
};
},
{
glyphname = Racute;
lastChange = "2023-01-18 14:59:52 +0000";
layers = (
{
background = {
anchors = (
{
name = btm;
pos = (591,-170);
},
{
name = top;
pos = (591,1700);
}
);
shapes = (
{
closed = 1;
nodes = (
(583,570,ls),
(917,570,o),
(1023,737,o),
(1027,889,cs),
(1040,1364,ls),
(1047,1595,o),
(834,1690,o),
(560,1690,cs),
(332,1690,l),
(332,1517,l),
(528,1517,ls),
(656,1517,o),
(685,1499,o),
(688,1396,cs),
(702,881,ls),
(705,769,o),
(667,733,o),
(539,733,cs),
(238,733,l),
(238,570,l)
);
},
{
closed = 1;
nodes = (
(518,689,l),
(778,80,ls),
(810,15,o),
(825,0,o),
(932,0,cs),
(1042,0,o),
(1058,13,o),
(1058,45,cs),
(1058,66,o),
(1047,94,o),
(1029,142,cs),
(814,689,l)
);
},
{
closed = 1;
nodes = (
(430,0,o),
(444,7,o),
(445,68,cs),
(489,1607,ls),
(491,1676,o),
(465,1690,o),
(307,1690,cs),
(148,1690,o),
(123,1676,o),
(125,1607,cs),
(168,68,ls),
(170,7,o),
(184,0,o),
(307,0,cs)
);
},
{
closed = 1;
nodes = (
(500,1861,o),
(474,1827,o),
(474,1804,cs),
(474,1778,o),
(504,1770,o),
(572,1770,cs),
(668,1770,o),
(674,1780,o),
(712,1827,cs),
(856,2005,ls),
(881,2037,o),
(901,2062,o),
(901,2083,cs),
(901,2110,o),
(871,2118,o),
(769,2118,cs),
(656,2118,o),
(640,2109,o),
(610,2056,cs),
(528,1910,l)
);
}
);
};
layerId = "3E12A9BE-1094-4827-ACE3-4E9390329AA7";
shapes = (
{
ref = R;
},
{
pos = (473,0);
ref = acutecomb.case;
}
);
width = 1140;
}
);
unicode = 340;
},
{
glyphname = Rcaron;
lastChange = "2023-01-18 14:59:52 +0000";
layers = (
{
background = {
anchors = (
{
name = btm;
pos = (591,-170);
},
{
name = top;
pos = (591,1700);
}
);
shapes = (
{
closed = 1;
nodes = (
(583,570,ls),
(917,570,o),
(1023,737,o),
(1027,889,cs),
(1040,1364,ls),
(1047,1595,o),
(834,1690,o),
(560,1690,cs),
(332,1690,l),
(332,1517,l),
(528,1517,ls),
(656,1517,o),
(685,1499,o),
(688,1396,cs),
(702,881,ls),
(705,769,o),
(667,733,o),
(539,733,cs),
(238,733,l),
(238,570,l)
);
},
{
closed = 1;
nodes = (
(518,689,l),
(778,80,ls),
(810,15,o),
(825,0,o),
(932,0,cs),
(1042,0,o),
(1058,13,o),
(1058,45,cs),
(1058,66,o),
(1047,94,o),
(1029,142,cs),
(814,689,l)
);
},
{
closed = 1;
nodes = (
(430,0,o),
(444,7,o),
(445,68,cs),
(489,1607,ls),
(491,1676,o),
(465,1690,o),
(307,1690,cs),
(148,1690,o),
(123,1676,o),
(125,1607,cs),
(168,68,ls),
(170,7,o),
(184,0,o),
(307,0,cs)
);
},
{
closed = 1;
nodes = (
(462,2114,o),
(447,2118,o),
(336,2118,cs),
(234,2118,o),
(215,2108,o),
(215,2081,cs),
(215,2060,o),
(246,2026,o),
(266,2005,cs),
(431,1830,ls),
(472,1786,o),
(488,1784,o),
(582,1784,cs),
(598,1784,ls),
(694,1784,o),
(709,1786,o),
(751,1830,cs),
(918,2005,ls),
(939,2027,o),
(969,2060,o),
(969,2081,cs),
(969,2108,o),
(950,2118,o),
(848,2118,cs),
(745,2118,o),
(730,2112,o),
(694,2064,cs),
(631,1981,ls),
(615,1960,o),
(604,1947,o),
(592,1947,cs),
(579,1947,o),
(569,1959,o),
(551,1985,cs),
(496,2064,l)
);
}
);
};
layerId = "3E12A9BE-1094-4827-ACE3-4E9390329AA7";
shapes = (
{
ref = R;
},
{
pos = (569,0);
ref = caroncomb.case;
}
);
width = 1140;
}
);
unicode = 344;
},
{
glyphname = Rcommaaccent;
lastChange = "2023-01-19 09:35:28 +0000";
layers = (
{
background = {
anchors = (
{
name = btm;
pos = (591,-170);
},
{
name = top;
pos = (591,1700);
}
);
shapes = (
{
closed = 1;
nodes = (
(583,570,ls),
(917,570,o),
(1023,737,o),
(1027,889,cs),
(1040,1364,ls),
(1047,1595,o),
(834,1690,o),
(560,1690,cs),
(332,1690,l),
(332,1517,l),
(528,1517,ls),
(656,1517,o),
(685,1499,o),
(688,1396,cs),
(702,881,ls),
(705,769,o),
(667,733,o),
(539,733,cs),
(238,733,l),
(238,570,l)
);
},
{
closed = 1;
nodes = (
(518,689,l),
(778,80,ls),
(810,15,o),
(825,0,o),
(932,0,cs),
(1042,0,o),
(1058,13,o),
(1058,45,cs),
(1058,66,o),
(1047,94,o),
(1029,142,cs),
(814,689,l)
);
},
{
closed = 1;
nodes = (
(430,0,o),
(444,7,o),
(445,68,cs),
(489,1607,ls),
(491,1676,o),
(465,1690,o),
(307,1690,cs),
(148,1690,o),
(123,1676,o),
(125,1607,cs),
(168,68,ls),
(170,7,o),
(184,0,o),
(307,0,cs)
);
},
{
closed = 1;
nodes = (
(473,-433,o),
(493,-442,o),
(518,-442,cs),
(600,-442,ls),
(639,-442,o),
(655,-433,o),
(683,-394,cs),
(763,-283,ls),
(791,-244,o),
(793,-215,o),
(793,-186,cs),
(793,-138,ls),
(793,-85,o),
(775,-73,o),
(644,-73,cs),
(476,-73,o),
(435,-87,o),
(435,-138,cs),
(435,-215,ls),
(435,-243,o),
(448,-270,o),
(488,-270,cs),
(540,-270,l),
(499,-352,ls),
(487,-377,o),
(473,-397,o),
(473,-417,cs)
);
}
);
};
layerId = "3E12A9BE-1094-4827-ACE3-4E9390329AA7";
shapes = (
{
ref = R;
},
{
pos = (259,0);
ref = commaaccentcomb;
}
);
width = 1140;
}
);
unicode = 342;
},
{
color = 5;
glyphname = Rstroke;
lastChange = "2023-01-21 07:41:33 +0000";
layers = (
{
anchors = (
{
name = bottom;
pos = (570,0);
},
{
name = top;
pos = (570,1690);
}
);
layerId = "3E12A9BE-1094-4827-ACE3-4E9390329AA7";
shapes = (
{
closed = 1;
nodes = (
(583,570,ls),
(917,570,o),
(1023,737,o),
(1027,889,cs),
(1040,1364,ls),
(1046,1595,o),
(834,1690,o),
(560,1690,cs),
(307,1690,l),
(332,1517,l),
(528,1517,ls),
(656,1517,o),
(685,1499,o),
(688,1396,cs),
(702,881,ls),
(705,769,o),
(667,733,o),
(539,733,cs),
(238,733,l),
(238,570,l)
);
},
{
closed = 1;
nodes = (
(1042,0,o),
(1058,13,o),
(1058,45,cs),
(1058,66,o),
(1048,94,o),
(1029,142,cs),
(814,689,l),
(518,689,l),
(778,80,ls),
(807,13,o),
(825,0,o),
(932,0,cs)
);
},
{
closed = 1;
nodes = (
(430,0,o),
(443,7,o),
(445,68,cs),
(489,1607,l),
(307,1690,l),
(148,1690,o),
(123,1676,o),
(125,1607,cs),
(168,68,ls),
(170,7,o),
(184,0,o),
(307,0,cs)
);
},
{
closed = 1;
nodes = (
(367,556,l),
(424,556,o),
(404,581,o),
(404,643,cs),
(404,713,o),
(384,742,o),
(327,742,cs),
(84,742,ls),
(27,742,o),
(26,714,o),
(26,644,cs),
(26,582,o),
(27,556,o),
(84,556,cs)
);
}
);
width = 1140;
}
);
unicode = (588,589);
},
{
color = 5;
glyphname = Rtail;
lastChange = "2023-01-21 07:37:16 +0000";
layers = (
{
anchors = (
{
name = top;
pos = (570,1690);
}
);
layerId = "3E12A9BE-1094-4827-ACE3-4E9390329AA7";
shapes = (
{
closed = 1;
nodes = (
(636,-309,o),
(666,-310,o),
(666,-208,cs),
(666,-117,o),
(664,-64,o),
(604,-64,cs),
(494,-64,o),
(442,-31,o),
(445,68,cs),
(459,570,l),
(569,570,l),
(778,80,ls),
(807,13,o),
(825,0,o),
(932,0,cs),
(1042,0,o),
(1058,13,o),
(1058,45,cs),
(1058,66,o),
(1048,94,o),
(1029,142,cs),
(842,617,l),
(975,678,o),
(1024,787,o),
(1027,889,cs),
(1040,1364,ls),
(1046,1595,o),
(834,1690,o),
(560,1690,cs),
(307,1690,ls),
(148,1690,o),
(123,1676,o),
(125,1607,cs),
(168,68,l),
(168,-180,o),
(335,-309,o),
(609,-309,cs)
);
},
{
closed = 1;
nodes = (
(486,1517,l),
(528,1517,ls),
(656,1517,o),
(685,1499,o),
(688,1396,cs),
(702,881,ls),
(705,769,o),
(667,733,o),
(539,733,cs),
(464,733,l)
);
}
);
width = 1140;
}
);
unicode = 11364;
},
{
glyphname = S;
lastChange = "2023-01-21 07:50:23 +0000";
layers = (
{
anchors = (
{
name = bottom;
pos = (579,0);
},
{
name = top;
pos = (579,1690);
}
);
background = {
anchors = (
{
name = btm;
pos = (594,-170);
},
{
name = top;
pos = (594,1700);
}
);
shapes = (
{
closed = 1;
nodes = (
(1069,549,o),
(1023,615,o),
(882,674,cs),
(558,810,ls),
(471,847,o),
(448,897,o),
(450,997,cs),
(461,1396,ls),
(464,1513,o),
(509,1529,o),
(594,1529,cs),
(679,1529,o),
(724,1513,o),
(727,1396,cs),
(739,965,ls),
(741,884,o),
(779,873,o),
(904,873,cs),
(1028,873,o),
(1066,884,o),
(1068,965,cs),
(1078,1365,ls),
(1083,1565,o),
(940,1701,o),
(594,1701,cs),
(248,1701,o),
(104,1565,o),
(110,1365,cs),
(120,1026,ls),
(125,860,o),
(167,763,o),
(320,697,cs),
(667,549,ls),
(754,511,o),
(761,454,o),
(762,361,cs),
(763,296,ls),
(764,184,o),
(722,151,o),
(601,151,cs),
(483,151,o),
(437,184,o),
(441,296,cs),
(445,415,ls),
(447,496,o),
(409,507,o),
(286,507,cs),
(164,507,o),
(142,496,o),
(144,415,cs),
(147,305,ls),
(151,131,o),
(278,-12,o),
(601,-12,cs),
(924,-12,o),
(1051,127,o),
(1057,301,cs),
(1059,357,l)
);
}
);
};
layerId = "3E12A9BE-1094-4827-ACE3-4E9390329AA7";
shapes = (
{
closed = 1;
nodes = (
(924,-12,o),
(1051,127,o),
(1057,301,cs),
(1059,357,l),
(1069,549,o),
(1023,615,o),
(882,674,cs),
(558,810,ls),
(471,847,o),
(448,897,o),
(450,997,cs),
(461,1396,ls),
(464,1513,o),
(509,1529,o),
(594,1529,cs),
(679,1529,o),
(724,1513,o),
(727,1396,cs),
(739,965,ls),
(741,884,o),
(779,873,o),
(904,873,cs),
(1028,873,o),
(1066,884,o),
(1068,965,cs),
(1078,1365,ls),
(1083,1565,o),
(940,1701,o),
(594,1701,cs),
(248,1701,o),
(104,1565,o),
(110,1365,cs),
(120,1026,ls),
(125,860,o),
(167,763,o),
(320,697,cs),
(667,549,ls),
(754,511,o),
(761,454,o),
(762,361,cs),
(763,296,ls),
(764,184,o),
(722,151,o),
(601,151,cs),
(483,151,o),
(437,184,o),
(441,296,cs),
(445,415,ls),
(447,496,o),
(409,507,o),
(286,507,cs),
(164,507,o),
(142,496,o),
(144,415,cs),
(147,305,ls),
(151,131,o),
(278,-12,o),
(601,-12,cs)
);
}
);
vertWidth = 0;
width = 1158;
}
);
unicode = 83;
userData = {
KernOnName = S;
};
},
{
glyphname = Sacute;
lastChange = "2023-01-18 14:59:52 +0000";
layers = (
{
background = {
anchors = (
{
name = btm;
pos = (594,-170);
},
{
name = top;
pos = (594,1700);
}
);
shapes = (
{
closed = 1;
nodes = (
(1069,549,o),
(1023,615,o),
(882,674,cs),
(558,810,ls),
(471,847,o),
(448,897,o),
(450,997,cs),
(461,1396,ls),
(464,1513,o),
(509,1529,o),
(594,1529,cs),
(679,1529,o),
(724,1513,o),
(727,1396,cs),
(739,965,ls),
(741,884,o),
(779,873,o),
(904,873,cs),
(1028,873,o),
(1066,884,o),
(1068,965,cs),
(1078,1365,ls),
(1083,1565,o),
(940,1701,o),
(594,1701,cs),
(248,1701,o),
(104,1565,o),
(110,1365,cs),
(120,1026,ls),
(125,860,o),
(167,763,o),
(320,697,cs),
(667,549,ls),
(754,511,o),
(761,454,o),
(762,361,cs),
(763,296,ls),
(764,184,o),
(722,151,o),
(601,151,cs),
(483,151,o),
(437,184,o),
(441,296,cs),
(445,415,ls),
(447,496,o),
(409,507,o),
(286,507,cs),
(164,507,o),
(142,496,o),
(144,415,cs),
(147,305,ls),
(151,131,o),
(278,-12,o),
(601,-12,cs),
(924,-12,o),
(1051,127,o),
(1057,301,cs),
(1059,357,l)
);
},
{
closed = 1;
nodes = (
(503,1861,o),
(477,1827,o),
(477,1804,cs),
(477,1778,o),
(507,1770,o),
(575,1770,cs),
(671,1770,o),
(677,1780,o),
(715,1827,cs),
(859,2005,ls),
(884,2037,o),
(904,2062,o),
(904,2083,cs),
(904,2110,o),
(874,2118,o),
(772,2118,cs),
(659,2118,o),
(643,2109,o),
(613,2056,cs),
(531,1910,l)
);
}
);
};
layerId = "3E12A9BE-1094-4827-ACE3-4E9390329AA7";
shapes = (
{
ref = S;
},
{
pos = (482,0);
ref = acutecomb.case;
}
);
width = 1158;
}
);
unicode = 346;
},
{
color = 4;
glyphname = Saltillo;
lastChange = "2023-01-19 22:35:10 +0000";
layers = (
{
layerId = "3E12A9BE-1094-4827-ACE3-4E9390329AA7";
shapes = (
{
closed = 1;
nodes = (
(430,502,o),
(442,509,o),
(445,570,cs),
(489,1607,ls),
(492,1676,o),
(465,1690,o),
(307,1690,cs),
(148,1690,o),
(122,1676,o),
(125,1607,cs),
(168,570,ls),
(171,509,o),
(184,502,o),
(307,502,cs)
);
}
);
width = 614;
}
);
unicode = 42891;
},
{
glyphname = Scaron;
lastChange = "2023-01-18 14:59:52 +0000";
layers = (
{
background = {
anchors = (
{
name = btm;
pos = (594,-170);
},
{
name = top;
pos = (594,1700);
}
);
shapes = (
{
closed = 1;
nodes = (
(1069,549,o),
(1023,615,o),
(882,674,cs),
(558,810,ls),
(471,847,o),
(448,897,o),
(450,997,cs),
(461,1396,ls),
(464,1513,o),
(509,1529,o),
(594,1529,cs),
(679,1529,o),
(724,1513,o),
(727,1396,cs),
(739,965,ls),
(741,884,o),
(779,873,o),
(904,873,cs),
(1028,873,o),
(1066,884,o),
(1068,965,cs),
(1078,1365,ls),
(1083,1565,o),
(940,1701,o),
(594,1701,cs),
(248,1701,o),
(104,1565,o),
(110,1365,cs),
(120,1026,ls),
(125,860,o),
(167,763,o),
(320,697,cs),
(667,549,ls),
(754,511,o),
(761,454,o),
(762,361,cs),
(763,296,ls),
(764,184,o),
(722,151,o),
(601,151,cs),
(483,151,o),
(437,184,o),
(441,296,cs),
(445,415,ls),
(447,496,o),
(409,507,o),
(286,507,cs),
(164,507,o),
(142,496,o),
(144,415,cs),
(147,305,ls),
(151,131,o),
(278,-12,o),
(601,-12,cs),
(924,-12,o),
(1051,127,o),
(1057,301,cs),
(1059,357,l)
);
},
{
closed = 1;
nodes = (
(465,2114,o),
(450,2118,o),
(339,2118,cs),
(237,2118,o),
(218,2108,o),
(218,2081,cs),
(218,2060,o),
(249,2026,o),
(269,2005,cs),
(434,1830,ls),
(475,1786,o),
(491,1784,o),
(585,1784,cs),
(601,1784,ls),
(697,1784,o),
(712,1786,o),
(754,1830,cs),
(921,2005,ls),
(942,2027,o),
(972,2060,o),
(972,2081,cs),
(972,2108,o),
(953,2118,o),
(851,2118,cs),
(748,2118,o),
(733,2112,o),
(697,2064,cs),
(634,1981,ls),
(618,1960,o),
(607,1947,o),
(595,1947,cs),
(582,1947,o),
(572,1959,o),
(554,1985,cs),
(499,2064,l)
);
}
);
};
layerId = "3E12A9BE-1094-4827-ACE3-4E9390329AA7";
shapes = (
{
ref = S;
},
{
pos = (578,0);
ref = caroncomb.case;
}
);
width = 1158;
}
);
unicode = 352;
},
{
glyphname = Scedilla;
lastChange = "2023-01-19 08:54:57 +0000";
layers = (
{
background = {
anchors = (
{
name = btm;
pos = (594,-170);
},
{
name = top;
pos = (594,1700);
}
);
shapes = (
{
closed = 1;
nodes = (
(1069,549,o),
(1023,615,o),
(882,674,cs),
(558,810,ls),
(471,847,o),
(448,897,o),
(450,997,cs),
(461,1396,ls),
(464,1513,o),
(509,1529,o),
(594,1529,cs),
(679,1529,o),
(724,1513,o),
(727,1396,cs),
(739,965,ls),
(741,884,o),
(779,873,o),
(904,873,cs),
(1028,873,o),
(1066,884,o),
(1068,965,cs),
(1078,1365,ls),
(1083,1565,o),
(940,1701,o),
(594,1701,cs),
(248,1701,o),
(104,1565,o),
(110,1365,cs),
(120,1026,ls),
(125,860,o),
(167,763,o),
(320,697,cs),
(667,549,ls),
(754,511,o),
(761,454,o),
(762,361,cs),
(763,296,ls),
(764,184,o),
(722,151,o),
(601,151,cs),
(483,151,o),
(437,184,o),
(441,296,cs),
(445,415,ls),
(447,496,o),
(409,507,o),
(286,507,cs),
(164,507,o),
(142,496,o),
(144,415,cs),
(147,305,ls),
(151,131,o),
(278,-12,o),
(601,-12,cs),
(924,-12,o),
(1051,127,o),
(1057,301,cs),
(1059,357,l)
);
},
{
closed = 1;
nodes = (
(376,-330,o),
(386,-340,o),
(417,-340,cs),
(515,-340,ls),
(554,-340,o),
(567,-337,o),
(585,-292,cs),
(751,86,l),
(515,86,l),
(396,-249,ls),
(387,-276,o),
(376,-297,o),
(376,-309,cs)
);
}
);
};
layerId = "3E12A9BE-1094-4827-ACE3-4E9390329AA7";
shapes = (
{
ref = S;
},
{
pos = (127,0);
ref = cedillacomb;
}
);
width = 1158;
}
);
unicode = 350;
},
{
glyphname = Scircumflex;
lastChange = "2023-01-18 14:59:52 +0000";
layers = (
{
background = {
anchors = (
{
name = btm;
pos = (594,-170);
},
{
name = top;
pos = (594,1700);
}
);
shapes = (
{
closed = 1;
nodes = (
(1069,549,o),
(1023,615,o),
(882,674,cs),
(558,810,ls),
(471,847,o),
(448,897,o),
(450,997,cs),
(461,1396,ls),
(464,1513,o),
(509,1529,o),
(594,1529,cs),
(679,1529,o),
(724,1513,o),
(727,1396,cs),
(739,965,ls),
(741,884,o),
(779,873,o),
(904,873,cs),
(1028,873,o),
(1066,884,o),
(1068,965,cs),
(1078,1365,ls),
(1083,1565,o),
(940,1701,o),
(594,1701,cs),
(248,1701,o),
(104,1565,o),
(110,1365,cs),
(120,1026,ls),
(125,860,o),
(167,763,o),
(320,697,cs),
(667,549,ls),
(754,511,o),
(761,454,o),
(762,361,cs),
(763,296,ls),
(764,184,o),
(722,151,o),
(601,151,cs),
(483,151,o),
(437,184,o),
(441,296,cs),
(445,415,ls),
(447,496,o),
(409,507,o),
(286,507,cs),
(164,507,o),
(142,496,o),
(144,415,cs),
(147,305,ls),
(151,131,o),
(278,-12,o),
(601,-12,cs),
(924,-12,o),
(1051,127,o),
(1057,301,cs),
(1059,357,l)
);
},
{
closed = 1;
nodes = (
(248,1848,o),
(230,1827,o),
(230,1806,cs),
(230,1780,o),
(250,1770,o),
(323,1770,cs),
(399,1770,o),
(408,1779,o),
(463,1832,cs),
(552,1917,ls),
(571,1935,o),
(583,1944,o),
(595,1944,cs),
(607,1944,o),
(619,1935,o),
(636,1918,cs),
(728,1832,ls),
(782,1781,o),
(796,1770,o),
(866,1770,cs),
(948,1770,o),
(959,1780,o),
(959,1806,cs),
(959,1827,o),
(942,1848,o),
(909,1894,cs),
(790,2056,ls),
(749,2112,o),
(721,2118,o),
(676,2118,cs),
(521,2118,ls),
(465,2118,o),
(436,2112,o),
(396,2056,cs),
(280,1894,ls)
);
}
);
};
layerId = "3E12A9BE-1094-4827-ACE3-4E9390329AA7";
shapes = (
{
ref = S;
},
{
pos = (578,0);
ref = circumflexcomb.case;
}
);
width = 1158;
}
);
unicode = 348;
},
{
color = 4;
glyphname = Scommaaccent;
lastChange = "2023-01-19 20:33:06 +0000";
layers = (
{
background = {
anchors = (
{
name = btm;
pos = (594,-170);
},
{
name = top;
pos = (594,1700);
}
);
shapes = (
{
closed = 1;
nodes = (
(1069,549,o),
(1023,615,o),
(882,674,cs),
(558,810,ls),
(471,847,o),
(448,897,o),
(450,997,cs),
(461,1396,ls),
(464,1513,o),
(509,1529,o),
(594,1529,cs),
(679,1529,o),
(724,1513,o),
(727,1396,cs),
(739,965,ls),
(741,884,o),
(779,873,o),
(904,873,cs),
(1028,873,o),
(1066,884,o),
(1068,965,cs),
(1078,1365,ls),
(1083,1565,o),
(940,1701,o),
(594,1701,cs),
(248,1701,o),
(104,1565,o),
(110,1365,cs),
(120,1026,ls),
(125,860,o),
(167,763,o),
(320,697,cs),
(667,549,ls),
(754,511,o),
(761,454,o),
(762,361,cs),
(763,296,ls),
(764,184,o),
(722,151,o),
(601,151,cs),
(483,151,o),
(437,184,o),
(441,296,cs),
(445,415,ls),
(447,496,o),
(409,507,o),
(286,507,cs),
(164,507,o),
(142,496,o),
(144,415,cs),
(147,305,ls),
(151,131,o),
(278,-12,o),
(601,-12,cs),
(924,-12,o),
(1051,127,o),
(1057,301,cs),
(1059,357,l)
);
},
{
closed = 1;
nodes = (
(476,-433,o),
(496,-442,o),
(521,-442,cs),
(603,-442,ls),
(642,-442,o),
(658,-433,o),
(686,-394,cs),
(766,-283,ls),
(794,-244,o),
(796,-215,o),
(796,-186,cs),
(796,-138,ls),
(796,-85,o),
(778,-73,o),
(647,-73,cs),
(479,-73,o),
(438,-87,o),
(438,-138,cs),
(438,-215,ls),
(438,-243,o),
(451,-270,o),
(491,-270,cs),
(543,-270,l),
(502,-352,ls),
(490,-377,o),
(476,-397,o),
(476,-417,cs)
);
}
);
};
layerId = "3E12A9BE-1094-4827-ACE3-4E9390329AA7";
shapes = (
{
ref = S;
},
{
pos = (268,0);
ref = commaaccentcomb;
}
);
width = 1158;
}
);
unicode = 536;
},
{
glyphname = Sdotaccent;
lastChange = "2023-01-18 14:59:52 +0000";
layers = (
{
background = {
anchors = (
{
name = btm;
pos = (594,-170);
},
{
name = top;
pos = (594,1700);
}
);
shapes = (
{
closed = 1;
nodes = (
(1069,549,o),
(1023,615,o),
(882,674,cs),
(558,810,ls),
(471,847,o),
(448,897,o),
(450,997,cs),
(461,1396,ls),
(464,1513,o),
(509,1529,o),
(594,1529,cs),
(679,1529,o),
(724,1513,o),
(727,1396,cs),
(739,965,ls),
(741,884,o),
(779,873,o),
(904,873,cs),
(1028,873,o),
(1066,884,o),
(1068,965,cs),
(1078,1365,ls),
(1083,1565,o),
(940,1701,o),
(594,1701,cs),
(248,1701,o),
(104,1565,o),
(110,1365,cs),
(120,1026,ls),
(125,860,o),
(167,763,o),
(320,697,cs),
(667,549,ls),
(754,511,o),
(761,454,o),
(762,361,cs),
(763,296,ls),
(764,184,o),
(722,151,o),
(601,151,cs),
(483,151,o),
(437,184,o),
(441,296,cs),
(445,415,ls),
(447,496,o),
(409,507,o),
(286,507,cs),
(164,507,o),
(142,496,o),
(144,415,cs),
(147,305,ls),
(151,131,o),
(278,-12,o),
(601,-12,cs),
(924,-12,o),
(1051,127,o),
(1057,301,cs),
(1059,357,l)
);
},
{
closed = 1;
nodes = (
(724,1788,o),
(744,1795,o),
(745,1845,c),
(756,2040,l),
(757,2097,o),
(739,2113,o),
(594,2113,cs),
(449,2113,o),
(431,2097,o),
(432,2040,c),
(444,1845,l),
(445,1795,o),
(464,1788,o),
(594,1788,cs)
);
}
);
};
layerId = "3E12A9BE-1094-4827-ACE3-4E9390329AA7";
shapes = (
{
ref = S;
},
{
pos = (579,0);
ref = dotaccentcomb.case;
}
);
width = 1158;
}
);
unicode = 7776;
},
{
color = 4;
glyphname = Germandbls;
lastChange = "2023-01-19 22:17:35 +0000";
layers = (
{
layerId = "3E12A9BE-1094-4827-ACE3-4E9390329AA7";
shapes = (
{
closed = 1;
nodes = (
(410,0,o),
(423,7,o),
(425,68,cs),
(466,1492,l),
(952,1492,l),
(643,976,l),
(607,901,o),
(699,784,o),
(772,728,cs),
(1037,527,ls),
(1108,473,o),
(1127,435,o),
(1128,346,cs),
(1129,284,ls),
(1131,176,o),
(1090,144,o),
(974,144,cs),
(860,144,o),
(816,176,o),
(820,284,cs),
(824,398,ls),
(827,476,o),
(789,486,o),
(671,486,cs),
(554,486,o),
(533,476,o),
(535,398,cs),
(538,292,ls),
(543,125,o),
(664,-12,o),
(974,-12,cs),
(1284,-12,o),
(1405,121,o),
(1411,288,cs),
(1413,342,ls),
(1420,527,o),
(1366,566,o),
(1243,647,cs),
(894,877,l),
(1342,1504,l),
(1357,1521,o),
(1361,1549,o),
(1361,1592,cs),
(1361,1672,o),
(1359,1690,o),
(1289,1690,cs),
(287,1690,ls),
(148,1690,o),
(123,1676,o),
(125,1607,cs),
(168,68,ls),
(170,7,o),
(184,0,o),
(287,0,cs)
);
}
);
width = 1514;
}
);
metricLeft = H;
metricRight = B;
unicode = 7838;
},
{
glyphname = T;
lastChange = "2023-01-21 07:50:23 +0000";
layers = (
{
anchors = (
{
name = bottom;
pos = (477,0);
},
{
name = center;
pos = (477,845);
},
{
name = top;
pos = (477,1690);
}
);
background = {
anchors = (
{
name = btm;
pos = (477,-170);
},
{
name = top;
pos = (477,1700);
}
);
shapes = (
{
closed = 1;
nodes = (
(600,0,o),
(614,11,o),
(616,63,cs),
(659,1607,ls),
(661,1676,o),
(636,1690,o),
(477,1690,cs),
(319,1690,o),
(293,1676,o),
(295,1607,cs),
(339,68,ls),
(341,7,o),
(354,0,o),
(477,0,c)
);
},
{
closed = 1;
nodes = (
(913,1494,o),
(915,1511,o),
(915,1592,cs),
(915,1672,o),
(913,1690,o),
(843,1690,cs),
(111,1690,ls),
(42,1690,o),
(40,1672,o),
(40,1592,cs),
(40,1511,o),
(42,1494,o),
(111,1494,cs),
(843,1494,l)
);
}
);
};
layerId = "3E12A9BE-1094-4827-ACE3-4E9390329AA7";
shapes = (
{
closed = 1;
nodes = (
(600,0,o),
(615,11,o),
(616,63,cs),
(659,1607,ls),
(661,1676,o),
(636,1690,o),
(477,1690,cs),
(319,1690,o),
(293,1676,o),
(295,1607,cs),
(339,68,ls),
(341,7,o),
(354,0,o),
(477,0,c)
);
},
{
closed = 1;
nodes = (
(843,1494,l),
(913,1494,o),
(915,1511,o),
(915,1592,cs),
(915,1672,o),
(913,1690,o),
(843,1690,cs),
(111,1690,ls),
(42,1690,o),
(40,1672,o),
(40,1592,cs),
(40,1511,o),
(42,1494,o),
(111,1494,cs)
);
}
);
vertWidth = 0;
width = 954;
}
);
unicode = 84;
userData = {
KernOnName = T;
};
},
{
glyphname = Tbar;
lastChange = "2023-01-18 14:59:52 +0000";
layers = (
{
background = {
anchors = (
{
name = btm;
pos = (477,-170);
},
{
name = top;
pos = (477,1700);
}
);
shapes = (
{
closed = 1;
nodes = (
(600,0,o),
(614,11,o),
(616,63,cs),
(659,1607,ls),
(661,1676,o),
(636,1690,o),
(477,1690,cs),
(319,1690,o),
(293,1676,o),
(295,1607,cs),
(339,68,ls),
(341,7,o),
(354,0,o),
(477,0,c)
);
},
{
closed = 1;
nodes = (
(913,1494,o),
(915,1511,o),
(915,1592,cs),
(915,1672,o),
(913,1690,o),
(843,1690,cs),
(111,1690,ls),
(42,1690,o),
(40,1672,o),
(40,1592,cs),
(40,1511,o),
(42,1494,o),
(111,1494,cs),
(843,1494,l)
);
},
{
closed = 1;
nodes = (
(818,1439,o),
(820,1464,o),
(820,1546,cs),
(820,1636,o),
(818,1665,o),
(748,1665,cs),
(212,1665,ls),
(142,1665,o),
(140,1637,o),
(140,1547,cs),
(140,1465,o),
(142,1439,o),
(212,1439,cs),
(748,1439,l)
);
}
);
};
layerId = "3E12A9BE-1094-4827-ACE3-4E9390329AA7";
shapes = (
{
ref = T;
},
{
pos = (474,0);
ref = macroncomb.case;
}
);
width = 954;
}
);
unicode = 358;
},
{
glyphname = Tcaron;
lastChange = "2023-01-18 14:59:52 +0000";
layers = (
{
background = {
anchors = (
{
name = btm;
pos = (477,-170);
},
{
name = top;
pos = (477,1700);
}
);
shapes = (
{
closed = 1;
nodes = (
(600,0,o),
(614,11,o),
(616,63,cs),
(659,1607,ls),
(661,1676,o),
(636,1690,o),
(477,1690,cs),
(319,1690,o),
(293,1676,o),
(295,1607,cs),
(339,68,ls),
(341,7,o),
(354,0,o),
(477,0,c)
);
},
{
closed = 1;
nodes = (
(913,1494,o),
(915,1511,o),
(915,1592,cs),
(915,1672,o),
(913,1690,o),
(843,1690,cs),
(111,1690,ls),
(42,1690,o),
(40,1672,o),
(40,1592,cs),
(40,1511,o),
(42,1494,o),
(111,1494,cs),
(843,1494,l)
);
},
{
closed = 1;
nodes = (
(348,2114,o),
(333,2118,o),
(222,2118,cs),
(120,2118,o),
(101,2108,o),
(101,2081,cs),
(101,2060,o),
(132,2026,o),
(152,2005,cs),
(317,1830,ls),
(358,1786,o),
(374,1784,o),
(468,1784,cs),
(484,1784,ls),
(580,1784,o),
(595,1786,o),
(637,1830,cs),
(804,2005,ls),
(825,2027,o),
(855,2060,o),
(855,2081,cs),
(855,2108,o),
(836,2118,o),
(734,2118,cs),
(631,2118,o),
(616,2112,o),
(580,2064,cs),
(517,1981,ls),
(501,1960,o),
(490,1947,o),
(478,1947,cs),
(465,1947,o),
(455,1959,o),
(437,1985,cs),
(382,2064,l)
);
}
);
};
layerId = "3E12A9BE-1094-4827-ACE3-4E9390329AA7";
shapes = (
{
ref = T;
},
{
pos = (476,0);
ref = caroncomb.case;
}
);
width = 954;
}
);
unicode = 356;
},
{
glyphname = Tcedilla;
lastChange = "2023-01-19 08:54:57 +0000";
layers = (
{
background = {
anchors = (
{
name = btm;
pos = (477,-170);
},
{
name = top;
pos = (477,1700);
}
);
shapes = (
{
closed = 1;
nodes = (
(600,0,o),
(614,11,o),
(616,63,cs),
(659,1607,ls),
(661,1676,o),
(636,1690,o),
(477,1690,cs),
(319,1690,o),
(293,1676,o),
(295,1607,cs),
(339,68,ls),
(341,7,o),
(354,0,o),
(477,0,c)
);
},
{
closed = 1;
nodes = (
(913,1494,o),
(915,1511,o),
(915,1592,cs),
(915,1672,o),
(913,1690,o),
(843,1690,cs),
(111,1690,ls),
(42,1690,o),
(40,1672,o),
(40,1592,cs),
(40,1511,o),
(42,1494,o),
(111,1494,cs),
(843,1494,l)
);
},
{
closed = 1;
nodes = (
(259,-330,o),
(269,-340,o),
(300,-340,cs),
(398,-340,ls),
(437,-340,o),
(450,-337,o),
(468,-292,cs),
(634,86,l),
(398,86,l),
(279,-249,ls),
(270,-276,o),
(259,-297,o),
(259,-309,cs)
);
}
);
};
layerId = "3E12A9BE-1094-4827-ACE3-4E9390329AA7";
shapes = (
{
ref = T;
},
{
pos = (25,0);
ref = cedillacomb;
}
);
width = 954;
}
);
unicode = 354;
},
{
color = 4;
glyphname = Tcommaaccent;
lastChange = "2023-01-19 20:33:06 +0000";
layers = (
{
background = {
anchors = (
{
name = btm;
pos = (477,-170);
},
{
name = top;
pos = (477,1700);
}
);
shapes = (
{
closed = 1;
nodes = (
(600,0,o),
(614,11,o),
(616,63,cs),
(659,1607,ls),
(661,1676,o),
(636,1690,o),
(477,1690,cs),
(319,1690,o),
(293,1676,o),
(295,1607,cs),
(339,68,ls),
(341,7,o),
(354,0,o),
(477,0,c)
);
},
{
closed = 1;
nodes = (
(913,1494,o),
(915,1511,o),
(915,1592,cs),
(915,1672,o),
(913,1690,o),
(843,1690,cs),
(111,1690,ls),
(42,1690,o),
(40,1672,o),
(40,1592,cs),
(40,1511,o),
(42,1494,o),
(111,1494,cs),
(843,1494,l)
);
},
{
closed = 1;
nodes = (
(359,-433,o),
(379,-442,o),
(404,-442,cs),
(486,-442,ls),
(525,-442,o),
(541,-433,o),
(569,-394,cs),
(649,-283,ls),
(677,-244,o),
(679,-215,o),
(679,-186,cs),
(679,-138,ls),
(679,-85,o),
(661,-73,o),
(530,-73,cs),
(362,-73,o),
(321,-87,o),
(321,-138,cs),
(321,-215,ls),
(321,-243,o),
(334,-270,o),
(374,-270,cs),
(426,-270,l),
(385,-352,ls),
(373,-377,o),
(359,-397,o),
(359,-417,cs)
);
}
);
};
layerId = "3E12A9BE-1094-4827-ACE3-4E9390329AA7";
shapes = (
{
ref = T;
},
{
pos = (166,0);
ref = commaaccentcomb;
}
);
width = 954;
}
);
unicode = 538;
},
{
color = 4;
glyphname = Tdotaccent;
lastChange = "2023-01-19 20:33:06 +0000";
layers = (
{
background = {
anchors = (
{
name = btm;
pos = (477,-170);
},
{
name = top;
pos = (477,1700);
}
);
shapes = (
{
closed = 1;
nodes = (
(600,0,o),
(614,11,o),
(616,63,cs),
(659,1607,ls),
(661,1676,o),
(636,1690,o),
(477,1690,cs),
(319,1690,o),
(293,1676,o),
(295,1607,cs),
(339,68,ls),
(341,7,o),
(354,0,o),
(477,0,c)
);
},
{
closed = 1;
nodes = (
(913,1494,o),
(915,1511,o),
(915,1592,cs),
(915,1672,o),
(913,1690,o),
(843,1690,cs),
(111,1690,ls),
(42,1690,o),
(40,1672,o),
(40,1592,cs),
(40,1511,o),
(42,1494,o),
(111,1494,cs),
(843,1494,l)
);
},
{
closed = 1;
nodes = (
(607,1788,o),
(627,1795,o),
(628,1845,c),
(639,2040,l),
(640,2097,o),
(622,2113,o),
(477,2113,cs),
(332,2113,o),
(314,2097,o),
(315,2040,c),
(327,1845,l),
(328,1795,o),
(347,1788,o),
(477,1788,cs)
);
}
);
};
layerId = "3E12A9BE-1094-4827-ACE3-4E9390329AA7";
shapes = (
{
ref = T;
},
{
pos = (477,0);
ref = dotaccentcomb.case;
}
);
width = 954;
}
);
unicode = 7786;
},
{
color = 5;
glyphname = Thook;
lastChange = "2023-01-21 07:03:10 +0000";
layers = (
{
anchors = (
{
name = bottom;
pos = (603,0);
},
{
name = center;
pos = (603,845);
}
);
layerId = "3E12A9BE-1094-4827-ACE3-4E9390329AA7";
shapes = (
{
closed = 1;
nodes = (
(726,0,o),
(741,11,o),
(742,63,cs),
(782,1494,l),
(969,1494,ls),
(1039,1494,o),
(1041,1511,o),
(1041,1592,cs),
(1041,1672,o),
(1039,1690,o),
(969,1690,cs),
(417,1689,ls),
(225,1689,o),
(40,1621,o),
(40,1347,cs),
(40,1320,o),
(39,1290,o),
(141,1290,cs),
(232,1290,o),
(285,1292,o),
(285,1352,cs),
(285,1432,o),
(289,1494,o),
(424,1494,c),
(465,68,ls),
(467,7,o),
(480,0,o),
(603,0,cs)
);
}
);
width = 1080;
}
);
metricLeft = T;
metricRight = T;
unicode = 428;
},
{
color = 5;
glyphname = Tretroflexhook;
lastChange = "2023-01-21 06:39:30 +0000";
layers = (
{
anchors = (
{
name = bottom;
pos = (477,0);
},
{
name = center;
pos = (477,845);
},
{
name = top;
pos = (477,1690);
}
);
layerId = "3E12A9BE-1094-4827-ACE3-4E9390329AA7";
shapes = (
{
closed = 1;
nodes = (
(298,1494,l),
(341,7,ls),
(341,-6,o),
(342,-14,o),
(344,-18,c),
(362,-213,o),
(518,-309,o),
(781,-309,cs),
(808,-309,o),
(838,-310,o),
(838,-208,cs),
(838,-117,o),
(836,-64,o),
(776,-64,cs),
(666,-64,o),
(614,-31,o),
(617,68,c),
(616,68,l),
(656,1494,l),
(843,1494,ls),
(913,1494,o),
(915,1511,o),
(915,1592,cs),
(915,1672,o),
(913,1690,o),
(843,1690,cs),
(111,1690,ls),
(42,1690,o),
(40,1672,o),
(40,1592,cs),
(40,1511,o),
(42,1494,o),
(111,1494,cs)
);
}
);
width = 954;
}
);
unicode = 430;
},
{
glyphname = U;
lastChange = "2023-01-21 07:50:23 +0000";
layers = (
{
anchors = (
{
name = bottom;
pos = (601,0);
},
{
name = center;
pos = (601,839);
},
{
name = ogonek;
pos = (1081,10);
},
{
name = top;
pos = (601,1690);
},
{
name = topright;
pos = (982,1740);
}
);
background = {
anchors = (
{
name = btm;
pos = (600,-170);
},
{
name = top;
pos = (600,1700);
}
);
shapes = (
{
closed = 1;
nodes = (
(149,131,o),
(278,-12,o),
(601,-12,cs),
(924,-12,o),
(1051,131,o),
(1056,305,cs),
(1091,1607,ls),
(1093,1676,o),
(1067,1690,o),
(909,1690,cs),
(750,1690,o),
(725,1676,o),
(727,1607,cs),
(762,296,ls),
(765,184,o),
(719,151,o),
(601,151,cs),
(483,151,o),
(437,184,o),
(440,296,cs),
(474,1607,ls),
(476,1676,o),
(450,1690,o),
(292,1690,cs),
(134,1690,o),
(108,1676,o),
(110,1607,cs),
(146,305,l)
);
}
);
};
layerId = "3E12A9BE-1094-4827-ACE3-4E9390329AA7";
shapes = (
{
closed = 1;
nodes = (
(924,-12,o),
(1051,131,o),
(1056,305,cs),
(1091,1607,ls),
(1093,1676,o),
(1067,1690,o),
(909,1690,cs),
(750,1690,o),
(725,1676,o),
(727,1607,cs),
(762,296,ls),
(765,184,o),
(719,151,o),
(601,151,cs),
(483,151,o),
(437,184,o),
(440,296,cs),
(474,1607,ls),
(476,1676,o),
(450,1690,o),
(292,1690,cs),
(134,1690,o),
(108,1676,o),
(110,1607,cs),
(146,305,l),
(149,131,o),
(278,-12,o),
(601,-12,cs)
);
}
);
vertWidth = 0;
width = 1201;
}
);
unicode = 85;
userData = {
KernOnName = U;
};
},
{
glyphname = Uacute;
lastChange = "2023-01-18 14:59:52 +0000";
layers = (
{
background = {
anchors = (
{
name = btm;
pos = (600,-170);
},
{
name = top;
pos = (600,1700);
}
);
shapes = (
{
closed = 1;
nodes = (
(149,131,o),
(278,-12,o),
(601,-12,cs),
(924,-12,o),
(1051,131,o),
(1056,305,cs),
(1091,1607,ls),
(1093,1676,o),
(1067,1690,o),
(909,1690,cs),
(750,1690,o),
(725,1676,o),
(727,1607,cs),
(762,296,ls),
(765,184,o),
(719,151,o),
(601,151,cs),
(483,151,o),
(437,184,o),
(440,296,cs),
(474,1607,ls),
(476,1676,o),
(450,1690,o),
(292,1690,cs),
(134,1690,o),
(108,1676,o),
(110,1607,cs),
(146,305,l)
);
},
{
closed = 1;
nodes = (
(509,1861,o),
(483,1827,o),
(483,1804,cs),
(483,1778,o),
(513,1770,o),
(581,1770,cs),
(677,1770,o),
(683,1780,o),
(721,1827,cs),
(865,2005,ls),
(890,2037,o),
(910,2062,o),
(910,2083,cs),
(910,2110,o),
(880,2118,o),
(778,2118,cs),
(665,2118,o),
(649,2109,o),
(619,2056,cs),
(537,1910,l)
);
}
);
};
layerId = "3E12A9BE-1094-4827-ACE3-4E9390329AA7";
shapes = (
{
ref = U;
},
{
pos = (504,0);
ref = acutecomb.case;
}
);
width = 1201;
}
);
unicode = 218;
},
{
glyphname = Ubreve;
lastChange = "2023-01-13 14:20:01 +0000";
layers = (
{
background = {
anchors = (
{
name = btm;
pos = (600,-170);
},
{
name = top;
pos = (600,1700);
}
);
shapes = (
{
closed = 1;
nodes = (
(149,131,o),
(278,-12,o),
(601,-12,cs),
(924,-12,o),
(1051,131,o),
(1056,305,cs),
(1091,1607,ls),
(1093,1676,o),
(1067,1690,o),
(909,1690,cs),
(750,1690,o),
(725,1676,o),
(727,1607,cs),
(762,296,ls),
(765,184,o),
(719,151,o),
(601,151,cs),
(483,151,o),
(437,184,o),
(440,296,cs),
(474,1607,ls),
(476,1676,o),
(450,1690,o),
(292,1690,cs),
(134,1690,o),
(108,1676,o),
(110,1607,cs),
(146,305,l)
);
},
{
closed = 1;
nodes = (
(471,2117,o),
(413,2118,o),
(325,2118,cs),
(223,2118,o),
(224,2088,o),
(224,2061,cs),
(224,1876,o),
(400,1776,o),
(591,1776,cs),
(608,1776,ls),
(800,1776,o),
(978,1835,o),
(978,2061,cs),
(978,2088,o),
(979,2118,o),
(877,2118,cs),
(786,2118,o),
(733,2116,o),
(733,2056,cs),
(733,1988,o),
(700,1957,o),
(601,1957,cs),
(500,1957,o),
(471,1989,o),
(471,2056,cs)
);
}
);
};
layerId = "3E12A9BE-1094-4827-ACE3-4E9390329AA7";
shapes = (
{
ref = U;
},
{
pos = (600,0);
ref = brevecomb.case;
}
);
width = 1201;
}
);
unicode = 364;
},
{
glyphname = Ucircumflex;
lastChange = "2023-01-13 14:20:01 +0000";
layers = (
{
background = {
anchors = (
{
name = btm;
pos = (600,-170);
},
{
name = top;
pos = (600,1700);
}
);
shapes = (
{
closed = 1;
nodes = (
(149,131,o),
(278,-12,o),
(601,-12,cs),
(924,-12,o),
(1051,131,o),
(1056,305,cs),
(1091,1607,ls),
(1093,1676,o),
(1067,1690,o),
(909,1690,cs),
(750,1690,o),
(725,1676,o),
(727,1607,cs),
(762,296,ls),
(765,184,o),
(719,151,o),
(601,151,cs),
(483,151,o),
(437,184,o),
(440,296,cs),
(474,1607,ls),
(476,1676,o),
(450,1690,o),
(292,1690,cs),
(134,1690,o),
(108,1676,o),
(110,1607,cs),
(146,305,l)
);
},
{
closed = 1;
nodes = (
(254,1848,o),
(236,1827,o),
(236,1806,cs),
(236,1780,o),
(256,1770,o),
(329,1770,cs),
(405,1770,o),
(414,1779,o),
(469,1832,cs),
(558,1917,ls),
(577,1935,o),
(589,1944,o),
(601,1944,cs),
(613,1944,o),
(625,1935,o),
(642,1918,cs),
(734,1832,ls),
(788,1781,o),
(802,1770,o),
(872,1770,cs),
(954,1770,o),
(965,1780,o),
(965,1806,cs),
(965,1827,o),
(948,1848,o),
(915,1894,cs),
(796,2056,ls),
(755,2112,o),
(727,2118,o),
(682,2118,cs),
(527,2118,ls),
(471,2118,o),
(442,2112,o),
(402,2056,cs),
(286,1894,ls)
);
}
);
};
layerId = "3E12A9BE-1094-4827-ACE3-4E9390329AA7";
shapes = (
{
ref = U;
},
{
pos = (600,0);
ref = circumflexcomb.case;
}
);
width = 1201;
}
);
unicode = 219;
},
{
glyphname = Udieresis;
lastChange = "2023-01-18 14:59:52 +0000";
layers = (
{
background = {
anchors = (
{
name = btm;
pos = (600,-170);
},
{
name = top;
pos = (600,1700);
}
);
shapes = (
{
closed = 1;
nodes = (
(149,131,o),
(278,-12,o),
(601,-12,cs),
(924,-12,o),
(1051,131,o),
(1056,305,cs),
(1091,1607,ls),
(1093,1676,o),
(1067,1690,o),
(909,1690,cs),
(750,1690,o),
(725,1676,o),
(727,1607,cs),
(762,296,ls),
(765,184,o),
(719,151,o),
(601,151,cs),
(483,151,o),
(437,184,o),
(440,296,cs),
(474,1607,ls),
(476,1676,o),
(450,1690,o),
(292,1690,cs),
(134,1690,o),
(108,1676,o),
(110,1607,cs),
(146,305,l)
);
},
{
closed = 1;
nodes = (
(489,1817,o),
(505,1824,o),
(508,1874,cs),
(519,2037,ls),
(522,2094,o),
(504,2110,o),
(377,2110,cs),
(250,2110,o),
(231,2094,o),
(235,2037,cs),
(247,1874,ls),
(250,1824,o),
(265,1817,o),
(377,1817,cs)
);
},
{
closed = 1;
nodes = (
(935,1817,o),
(951,1824,o),
(954,1874,cs),
(965,2037,ls),
(968,2094,o),
(950,2110,o),
(823,2110,cs),
(696,2110,o),
(677,2094,o),
(681,2037,cs),
(693,1874,ls),
(696,1824,o),
(711,1817,o),
(823,1817,cs)
);
}
);
};
layerId = "3E12A9BE-1094-4827-ACE3-4E9390329AA7";
shapes = (
{
ref = U;
},
{
pos = (601,0);
ref = dieresiscomb.case;
}
);
width = 1201;
}
);
unicode = 220;
},
{
glyphname = Ugrave;
lastChange = "2023-01-18 15:24:44 +0000";
layers = (
{
background = {
anchors = (
{
name = btm;
pos = (600,-170);
},
{
name = top;
pos = (600,1700);
}
);
shapes = (
{
closed = 1;
nodes = (
(149,131,o),
(278,-12,o),
(601,-12,cs),
(924,-12,o),
(1051,131,o),
(1056,305,cs),
(1091,1607,ls),
(1093,1676,o),
(1067,1690,o),
(909,1690,cs),
(750,1690,o),
(725,1676,o),
(727,1607,cs),
(762,296,ls),
(765,184,o),
(719,151,o),
(601,151,cs),
(483,151,o),
(437,184,o),
(440,296,cs),
(474,1607,ls),
(476,1676,o),
(450,1690,o),
(292,1690,cs),
(134,1690,o),
(108,1676,o),
(110,1607,cs),
(146,305,l)
);
},
{
closed = 1;
nodes = (
(704,1861,o),
(730,1827,o),
(730,1804,cs),
(730,1778,o),
(700,1770,o),
(632,1770,cs),
(536,1770,o),
(530,1780,o),
(492,1827,cs),
(348,2005,ls),
(323,2037,o),
(303,2062,o),
(303,2083,cs),
(303,2110,o),
(333,2118,o),
(435,2118,cs),
(548,2118,o),
(564,2109,o),
(594,2056,cs),
(676,1910,l)
);
}
);
};
layerId = "3E12A9BE-1094-4827-ACE3-4E9390329AA7";
shapes = (
{
ref = U;
},
{
pos = (584,0);
ref = gravecomb.case;
}
);
width = 1201;
}
);
unicode = 217;
},
{
glyphname = Uhungarumlaut;
lastChange = "2023-01-19 19:32:32 +0000";
layers = (
{
background = {
anchors = (
{
name = btm;
pos = (600,-170);
},
{
name = top;
pos = (600,1700);
}
);
shapes = (
{
closed = 1;
nodes = (
(149,131,o),
(278,-12,o),
(601,-12,cs),
(924,-12,o),
(1051,131,o),
(1056,305,cs),
(1091,1607,ls),
(1093,1676,o),
(1067,1690,o),
(909,1690,cs),
(750,1690,o),
(725,1676,o),
(727,1607,cs),
(762,296,ls),
(765,184,o),
(719,151,o),
(601,151,cs),
(483,151,o),
(437,184,o),
(440,296,cs),
(474,1607,ls),
(476,1676,o),
(450,1690,o),
(292,1690,cs),
(134,1690,o),
(108,1676,o),
(110,1607,cs),
(146,305,l)
);
},
{
closed = 1;
nodes = (
(299,1861,o),
(273,1827,o),
(273,1804,cs),
(273,1778,o),
(303,1770,o),
(371,1770,cs),
(467,1770,o),
(473,1780,o),
(511,1827,cs),
(655,2005,ls),
(680,2037,o),
(700,2062,o),
(700,2083,cs),
(700,2110,o),
(670,2118,o),
(568,2118,cs),
(455,2118,o),
(439,2109,o),
(409,2056,cs),
(327,1910,l)
);
},
{
closed = 1;
nodes = (
(683,1861,o),
(654,1827,o),
(652,1804,cs),
(650,1778,o),
(680,1770,o),
(748,1770,cs),
(844,1770,o),
(850,1780,o),
(892,1827,cs),
(1050,2005,ls),
(1077,2037,o),
(1099,2062,o),
(1101,2083,cs),
(1103,2110,o),
(1074,2118,o),
(972,2118,cs),
(859,2118,o),
(842,2109,o),
(808,2056,cs),
(714,1910,ls)
);
}
);
};
layerId = "3E12A9BE-1094-4827-ACE3-4E9390329AA7";
shapes = (
{
ref = U;
},
{
pos = (196,0);
ref = hungarumlautcomb.case;
}
);
width = 1201;
}
);
unicode = 368;
},
{
glyphname = Umacron;
lastChange = "2023-01-18 14:59:52 +0000";
layers = (
{
background = {
anchors = (
{
name = btm;
pos = (600,-170);
},
{
name = top;
pos = (600,1700);
}
);
shapes = (
{
closed = 1;
nodes = (
(149,131,o),
(278,-12,o),
(601,-12,cs),
(924,-12,o),
(1051,131,o),
(1056,305,cs),
(1091,1607,ls),
(1093,1676,o),
(1067,1690,o),
(909,1690,cs),
(750,1690,o),
(725,1676,o),
(727,1607,cs),
(762,296,ls),
(765,184,o),
(719,151,o),
(601,151,cs),
(483,151,o),
(437,184,o),
(440,296,cs),
(474,1607,ls),
(476,1676,o),
(450,1690,o),
(292,1690,cs),
(134,1690,o),
(108,1676,o),
(110,1607,cs),
(146,305,l)
);
},
{
closed = 1;
nodes = (
(957,1839,o),
(959,1864,o),
(959,1946,cs),
(959,2036,o),
(957,2065,o),
(887,2065,cs),
(319,2065,ls),
(249,2065,o),
(247,2037,o),
(247,1947,cs),
(247,1865,o),
(249,1839,o),
(319,1839,cs),
(887,1839,l)
);
}
);
};
layerId = "3E12A9BE-1094-4827-ACE3-4E9390329AA7";
shapes = (
{
ref = U;
},
{
pos = (598,0);
ref = macroncomb.case;
}
);
width = 1201;
}
);
unicode = 362;
},
{
glyphname = Uogonek;
lastChange = "2023-01-19 08:54:57 +0000";
layers = (
{
background = {
anchors = (
{
name = btm;
pos = (600,-170);
},
{
name = top;
pos = (600,1700);
}
);
shapes = (
{
closed = 1;
nodes = (
(149,131,o),
(278,-12,o),
(601,-12,cs),
(924,-12,o),
(1051,131,o),
(1056,305,cs),
(1091,1607,ls),
(1093,1676,o),
(1067,1690,o),
(909,1690,cs),
(750,1690,o),
(725,1676,o),
(727,1607,cs),
(762,296,ls),
(765,184,o),
(719,151,o),
(601,151,cs),
(483,151,o),
(437,184,o),
(440,296,cs),
(474,1607,ls),
(476,1676,o),
(450,1690,o),
(292,1690,cs),
(134,1690,o),
(108,1676,o),
(110,1607,cs),
(146,305,l)
);
},
{
closed = 1;
nodes = (
(1230,28,o),
(1165,29,o),
(1129,29,cs),
(1072,29,o),
(982,-104,o),
(982,-226,cs),
(982,-380,o),
(1085,-466,o),
(1220,-466,cs),
(1314,-466,o),
(1399,-448,o),
(1444,-396,cs),
(1454,-383,o),
(1453,-359,o),
(1446,-333,cs),
(1426,-266,o),
(1418,-206,o),
(1386,-206,cs),
(1339,-206,o),
(1325,-230,o),
(1259,-230,cs),
(1218,-230,o),
(1169,-184,o),
(1169,-112,cs),
(1169,-60,o),
(1196,7,o),
(1289,28,c)
);
}
);
};
layerId = "3E12A9BE-1094-4827-ACE3-4E9390329AA7";
shapes = (
{
ref = U;
},
{
pos = (488,-19);
ref = ogonekcomb;
}
);
width = 1201;
}
);
unicode = 370;
},
{
color = 5;
glyphname = "Upsilon-latin";
lastChange = "2023-01-21 07:31:27 +0000";
layers = (
{
background = {
shapes = (
{
closed = 1;
nodes = (
(999,-12,o),
(1101,122,o),
(1105,278,c),
(1112,482,l),
(1116,624,o),
(1046,673,o),
(913,749,c),
(913,757,l),
(1088,831,o),
(1121,926,o),
(1125,1036,c),
(1139,1407,l),
(1144,1628,o),
(877,1701,o),
(668,1701,cs),
(461,1701,o),
(189,1628,o),
(194,1407,c),
(216,1044,l),
(218,962,o),
(251,952,o),
(368,952,cs),
(486,952,o),
(523,962,o),
(525,1044,c),
(538,1389,l),
(541,1493,o),
(577,1522,o),
(668,1522,cs),
(761,1522,o),
(796,1493,o),
(800,1389,cs),
(814,984,ls),
(818,872,o),
(773,838,o),
(670,838,cs),
(613,838,ls),
(542,838,o),
(540,815,o),
(540,750,cs),
(540,685,o),
(542,661,o),
(612,661,cs),
(668,661,l),
(776,661,o),
(826,640,o),
(828,536,cs),
(834,307,ls),
(837,200,o),
(784,161,o),
(670,161,cs),
(668,161,ls),
(554,161,o),
(501,200,o),
(504,307,cs),
(507,415,ls),
(510,496,o),
(476,507,o),
(368,507,cs),
(254,507,o),
(227,496,o),
(229,415,cs),
(233,278,ls),
(238,122,o),
(341,-12,o),
(668,-12,cs)
);
}
);
};
layerId = "3E12A9BE-1094-4827-ACE3-4E9390329AA7";
shapes = (
{
closed = 1;
nodes = (
(1089,-12,o),
(1213,122,o),
(1195,278,cs),
(1132,833,ls),
(1074,1341,o),
(968,1433,o),
(823,1433,cs),
(1147,1433,ls),
(1217,1433,o),
(1218,1450,o),
(1218,1591,cs),
(1218,1671,o),
(1217,1689,o),
(1147,1689,cs),
(764,1690,ls),
(715,1690,o),
(690,1676,o),
(692,1607,c),
(687,1464,o),
(708,1442,o),
(714,1411,cs),
(924,307,ls),
(944,200,o),
(874,161,o),
(640,161,cs),
(638,161,ls),
(404,161,o),
(334,200,o),
(354,307,cs),
(564,1411,ls),
(570,1442,o),
(591,1464,o),
(586,1607,c),
(588,1676,o),
(563,1690,o),
(514,1690,cs),
(111,1689,ls),
(41,1689,o),
(40,1671,o),
(40,1591,cs),
(40,1450,o),
(41,1433,o),
(111,1433,cs),
(455,1433,ls),
(310,1433,o),
(205,1341,o),
(148,845,cs),
(83,278,ls),
(65,122,o),
(189,-12,o),
(638,-12,cs),
(638,-12,o),
(639,-12,o),
(639,-12,cs),
(640,-12,ls)
);
}
);
width = 1257;
}
);
metricLeft = T;
metricRight = T;
unicode = 433;
},
{
glyphname = Uring;
lastChange = "2023-01-18 14:59:52 +0000";
layers = (
{
background = {
anchors = (
{
name = btm;
pos = (600,-170);
},
{
name = top;
pos = (600,1700);
}
);
shapes = (
{
closed = 1;
nodes = (
(149,131,o),
(278,-12,o),
(601,-12,cs),
(924,-12,o),
(1051,131,o),
(1056,305,cs),
(1091,1607,ls),
(1093,1676,o),
(1067,1690,o),
(909,1690,cs),
(750,1690,o),
(725,1676,o),
(727,1607,cs),
(762,296,ls),
(765,184,o),
(719,151,o),
(601,151,cs),
(483,151,o),
(437,184,o),
(440,296,cs),
(474,1607,ls),
(476,1676,o),
(450,1690,o),
(292,1690,cs),
(134,1690,o),
(108,1676,o),
(110,1607,cs),
(146,305,l)
);
},
{
closed = 1;
nodes = (
(286,1705,o),
(424,1643,o),
(600,1643,cs),
(776,1643,o),
(914,1705,o),
(914,1844,cs),
(914,1917,ls),
(914,2056,o),
(776,2118,o),
(600,2118,cs),
(424,2118,o),
(286,2056,o),
(286,1917,c),
(286,1844,l)
);
},
{
closed = 1;
nodes = (
(700,1794,o),
(668,1763,o),
(600,1763,cs),
(532,1763,o),
(500,1794,o),
(500,1845,cs),
(500,1916,ls),
(500,1967,o),
(532,1998,o),
(600,1998,cs),
(668,1998,o),
(700,1967,o),
(700,1916,c),
(700,1845,l)
);
}
);
};
layerId = "3E12A9BE-1094-4827-ACE3-4E9390329AA7";
shapes = (
{
ref = U;
},
{
pos = (601,0);
ref = ringcomb.case;
}
);
width = 1201;
}
);
unicode = 366;
},
{
glyphname = Utilde;
lastChange = "2023-01-19 20:30:06 +0000";
layers = (
{
background = {
anchors = (
{
name = btm;
pos = (600,-170);
},
{
name = top;
pos = (600,1700);
}
);
shapes = (
{
closed = 1;
nodes = (
(149,131,o),
(278,-12,o),
(601,-12,cs),
(924,-12,o),
(1051,131,o),
(1056,305,cs),
(1091,1607,ls),
(1093,1676,o),
(1067,1690,o),
(909,1690,cs),
(750,1690,o),
(725,1676,o),
(727,1607,cs),
(762,296,ls),
(765,184,o),
(719,151,o),
(601,151,cs),
(483,151,o),
(437,184,o),
(440,296,cs),
(474,1607,ls),
(476,1676,o),
(450,1690,o),
(292,1690,cs),
(134,1690,o),
(108,1676,o),
(110,1607,cs),
(146,305,l)
);
},
{
closed = 1;
nodes = (
(846,1781,o),
(870,1792,o),
(894,1840,cs),
(979,2008,ls),
(997,2044,o),
(1007,2067,o),
(1007,2087,cs),
(1007,2116,o),
(977,2118,o),
(897,2118,cs),
(811,2118,o),
(800,2117,o),
(784,2073,cs),
(762,2012,ls),
(749,1977,o),
(740,1967,o),
(727,1967,cs),
(712,1967,o),
(696,1982,o),
(671,2007,cs),
(607,2074,ls),
(577,2104,o),
(563,2118,o),
(501,2118,cs),
(443,2118,ls),
(386,2118,o),
(349,2116,o),
(324,2060,cs),
(246,1883,ls),
(232,1852,o),
(222,1833,o),
(222,1815,cs),
(222,1790,o),
(243,1782,o),
(302,1782,cs),
(385,1782,o),
(397,1783,o),
(418,1823,cs),
(443,1871,ls),
(460,1903,o),
(467,1914,o),
(481,1914,cs),
(489,1914,o),
(495,1913,o),
(518,1890,cs),
(575,1834,ls),
(623,1786,o),
(640,1781,o),
(698,1781,cs),
(785,1781,l)
);
}
);
};
layerId = "3E12A9BE-1094-4827-ACE3-4E9390329AA7";
shapes = (
{
ref = U;
},
{
pos = (586,0);
ref = tildecomb.case;
}
);
width = 1201;
}
);
unicode = 360;
},
{
glyphname = V;
lastChange = "2023-01-21 07:50:23 +0000";
layers = (
{
anchors = (
{
name = bottom;
pos = (561,0);
},
{
name = top;
pos = (561,1690);
}
);
background = {
anchors = (
{
name = btm;
pos = (560,-170);
},
{
name = top;
pos = (560,1700);
}
);
shapes = (
{
closed = 1;
nodes = (
(712,0,o),
(740,9,o),
(755,68,cs),
(1088,1607,ls),
(1102,1674,o),
(1065,1690,o),
(916,1690,cs),
(757,1690,o),
(742,1675,o),
(734,1607,cs),
(584,399,l),
(552,399,l),
(398,1607,ls),
(389,1675,o),
(373,1690,o),
(206,1690,cs),
(56,1690,o),
(19,1674,o),
(34,1607,cs),
(375,68,ls),
(392,9,o),
(421,0,o),
(570,0,cs)
);
}
);
};
layerId = "3E12A9BE-1094-4827-ACE3-4E9390329AA7";
shapes = (
{
closed = 1;
nodes = (
(712,0,o),
(740,9,o),
(755,68,cs),
(1088,1607,ls),
(1102,1674,o),
(1065,1690,o),
(916,1690,cs),
(757,1690,o),
(742,1675,o),
(734,1607,cs),
(584,399,l),
(552,399,l),
(398,1607,ls),
(389,1675,o),
(373,1690,o),
(206,1690,cs),
(56,1690,o),
(19,1674,o),
(34,1607,cs),
(375,68,ls),
(392,9,o),
(421,0,o),
(570,0,cs)
);
}
);
vertWidth = 0;
width = 1121;
}
);
unicode = 86;
userData = {
KernOnName = V;
};
},
{
color = 5;
glyphname = "Gamma-latin";
lastChange = "2023-01-21 07:19:31 +0000";
layers = (
{
background = {
shapes = (
{
closed = 1;
nodes = (
(532,161,ls),
(418,161,o),
(369,201,o),
(368,347,cs),
(367,507,o),
(408,567,o),
(534,697,c),
(638,567,o),
(698,507,o),
(698,347,cs),
(698,199,o),
(648,161,o),
(534,161,cs)
);
},
{
closed = 1;
nodes = (
(1118,1672,o),
(1065,1690,o),
(915,1690,cs),
(748,1690,o),
(745,1674,o),
(723,1607,cs),
(446,750,l),
(604,896,l),
(387,1607,ls),
(366,1677,o),
(364,1690,o),
(205,1690,cs),
(56,1690,o),
(4,1672,o),
(33,1607,cs),
(387,826,l),
(176,679,o),
(83,554,o),
(90,417,cs),
(97,278,ls),
(105,122,o),
(203,-12,o),
(534,-12,cs),
(861,-12,o),
(961,122,o),
(969,278,cs),
(976,417,ls),
(983,551,o),
(859,687,o),
(717,826,c),
(1087,1607,ls)
);
}
);
};
layerId = "3E12A9BE-1094-4827-ACE3-4E9390329AA7";
shapes = (
{
closed = 1;
nodes = (
(447,161,o),
(397,199,o),
(397,347,cs),
(397,467,o),
(462,643,o),
(561,747,c),
(676,642,o),
(728,467,o),
(727,347,cs),
(726,201,o),
(677,161,o),
(593,161,cs),
(531,161,ls)
);
},
{
closed = 1;
nodes = (
(396,876,l),
(254,737,o),
(130,511,o),
(138,377,cs),
(144,278,ls),
(152,122,o),
(249,-7,o),
(561,-7,cs),
(887,-7,o),
(988,122,o),
(996,278,cs),
(1002,377,ls),
(1010,514,o),
(917,729,o),
(726,876,c),
(1088,1607,ls),
(1118,1672,o),
(1065,1690,o),
(916,1690,cs),
(757,1690,o),
(757,1677,o),
(734,1607,cs),
(504,946,l),
(609,946,l),
(398,1607,ls),
(378,1674,o),
(373,1690,o),
(206,1690,cs),
(56,1690,o),
(4,1672,o),
(34,1607,cs)
);
}
);
width = 1121;
}
);
unicode = 404;
},
{
color = 5;
glyphname = Vhook;
lastChange = "2023-01-21 07:37:02 +0000";
layers = (
{
background = {
shapes = (
{
pos = (-1,0);
ref = U;
}
);
};
layerId = "3E12A9BE-1094-4827-ACE3-4E9390329AA7";
shapes = (
{
closed = 1;
nodes = (
(744,0,o),
(1051,54,o),
(1067,663,cs),
(1087,1417,ls),
(1092,1600,o),
(958,1702,o),
(692,1702,cs),
(642,1702,ls),
(582,1702,o),
(580,1665,o),
(580,1631,cs),
(580,1591,o),
(586,1550,o),
(637,1550,cs),
(710,1550,o),
(732,1515,o),
(734,1442,cs),
(751,697,ls),
(761,238,o),
(653,167,o),
(577,167,cs),
(516,167,o),
(449,197,o),
(451,313,cs),
(474,1621,ls),
(475,1678,o),
(427,1694,o),
(292,1694,cs),
(137,1694,o),
(109,1678,o),
(110,1621,cs),
(135,268,ls),
(138,85,o),
(308,0,o),
(560,0,cs)
);
}
);
width = 1187;
}
);
metricLeft = U;
unicode = 434;
},
{
glyphname = Vturned;
lastChange = "2023-01-19 09:00:46 +0000";
layers = (
{
layerId = "3E12A9BE-1094-4827-ACE3-4E9390329AA7";
shapes = (
{
closed = 1;
nodes = (
(409,1690,o),
(381,1681,o),
(366,1622,cs),
(33,83,ls),
(19,16,o),
(56,0,o),
(205,0,cs),
(364,0,o),
(379,15,o),
(387,83,cs),
(537,1291,l),
(569,1291,l),
(723,83,ls),
(732,15,o),
(748,0,o),
(915,0,cs),
(1065,0,o),
(1102,16,o),
(1087,83,cs),
(746,1622,ls),
(729,1681,o),
(700,1690,o),
(551,1690,cs)
);
}
);
width = 1121;
}
);
unicode = 581;
},
{
glyphname = W;
lastChange = "2023-01-21 07:50:23 +0000";
layers = (
{
anchors = (
{
name = bottom;
pos = (882,0);
},
{
name = top;
pos = (882,1690);
}
);
background = {
anchors = (
{
name = btm;
pos = (882,-170);
},
{
name = top;
pos = (882,1700);
}
);
shapes = (
{
closed = 1;
nodes = (
(1103,8,o),
(1136,0,o),
(1293,0,cs),
(1411,0,o),
(1435,9,o),
(1448,68,c),
(1713,1607,ls),
(1723,1675,o),
(1689,1690,o),
(1531,1690,cs),
(1372,1690,o),
(1351,1675,o),
(1348,1607,cs),
(1286,287,l),
(1256,287,l),
(1060,1607,ls),
(1049,1675,o),
(1038,1690,o),
(888,1690,cs),
(747,1690,o),
(735,1675,o),
(726,1607,cs),
(531,287,l),
(501,287,l),
(438,1607,ls),
(435,1676,o),
(413,1690,o),
(246,1690,cs),
(78,1690,o),
(37,1674,o),
(53,1607,cs),
(318,68,ls),
(333,9,o),
(359,0,o),
(493,0,cs),
(643,0,o),
(674,8,o),
(688,68,cs),
(944,1585,l),
(832,1585,l),
(1088,68,l)
);
},
{
closed = 1;
nodes = (
(943,1192,l),
(943,1289,l),
(840,1289,l),
(840,1192,l)
);
}
);
};
layerId = "3E12A9BE-1094-4827-ACE3-4E9390329AA7";
shapes = (
{
closed = 1;
nodes = (
(643,0,o),
(674,8,o),
(688,68,cs),
(944,1585,l),
(832,1585,l),
(1088,68,l),
(1103,8,o),
(1136,0,o),
(1293,0,cs),
(1411,0,o),
(1435,9,o),
(1448,68,c),
(1713,1607,ls),
(1723,1675,o),
(1689,1690,o),
(1531,1690,cs),
(1372,1690,o),
(1351,1675,o),
(1348,1607,cs),
(1286,287,l),
(1256,287,l),
(1060,1607,ls),
(1049,1675,o),
(1038,1690,o),
(888,1690,cs),
(747,1690,o),
(735,1675,o),
(726,1607,cs),
(531,287,l),
(501,287,l),
(438,1607,ls),
(435,1676,o),
(413,1690,o),
(246,1690,cs),
(78,1690,o),
(37,1674,o),
(53,1607,cs),
(318,68,ls),
(333,9,o),
(359,0,o),
(493,0,cs)
);
},
{
closed = 1;
nodes = (
(943,1192,l),
(943,1289,l),
(840,1289,l),
(840,1192,l)
);
}
);
vertWidth = 0;
width = 1764;
}
);
unicode = 87;
userData = {
KernOnName = W;
};
},
{
glyphname = Wacute;
lastChange = "2023-01-18 14:59:52 +0000";
layers = (
{
background = {
anchors = (
{
name = btm;
pos = (882,-170);
},
{
name = top;
pos = (882,1700);
}
);
shapes = (
{
closed = 1;
nodes = (
(1103,8,o),
(1136,0,o),
(1293,0,cs),
(1411,0,o),
(1435,9,o),
(1448,68,c),
(1713,1607,ls),
(1723,1675,o),
(1689,1690,o),
(1531,1690,cs),
(1372,1690,o),
(1351,1675,o),
(1348,1607,cs),
(1286,287,l),
(1256,287,l),
(1060,1607,ls),
(1049,1675,o),
(1038,1690,o),
(888,1690,cs),
(747,1690,o),
(735,1675,o),
(726,1607,cs),
(531,287,l),
(501,287,l),
(438,1607,ls),
(435,1676,o),
(413,1690,o),
(246,1690,cs),
(78,1690,o),
(37,1674,o),
(53,1607,cs),
(318,68,ls),
(333,9,o),
(359,0,o),
(493,0,cs),
(643,0,o),
(674,8,o),
(688,68,cs),
(944,1585,l),
(832,1585,l),
(1088,68,l)
);
},
{
closed = 1;
nodes = (
(943,1192,l),
(943,1289,l),
(840,1289,l),
(840,1192,l)
);
},
{
closed = 1;
nodes = (
(791,1861,o),
(765,1827,o),
(765,1804,cs),
(765,1778,o),
(795,1770,o),
(863,1770,cs),
(959,1770,o),
(965,1780,o),
(1003,1827,cs),
(1147,2005,ls),
(1172,2037,o),
(1192,2062,o),
(1192,2083,cs),
(1192,2110,o),
(1162,2118,o),
(1060,2118,cs),
(947,2118,o),
(931,2109,o),
(901,2056,cs),
(819,1910,l)
);
}
);
};
layerId = "3E12A9BE-1094-4827-ACE3-4E9390329AA7";
shapes = (
{
ref = W;
},
{
pos = (785,0);
ref = acutecomb.case;
}
);
width = 1764;
}
);
unicode = 7810;
},
{
glyphname = Wcircumflex;
lastChange = "2023-01-18 14:59:52 +0000";
layers = (
{
background = {
anchors = (
{
name = btm;
pos = (882,-170);
},
{
name = top;
pos = (882,1700);
}
);
shapes = (
{
closed = 1;
nodes = (
(1103,8,o),
(1136,0,o),
(1293,0,cs),
(1411,0,o),
(1435,9,o),
(1448,68,c),
(1713,1607,ls),
(1723,1675,o),
(1689,1690,o),
(1531,1690,cs),
(1372,1690,o),
(1351,1675,o),
(1348,1607,cs),
(1286,287,l),
(1256,287,l),
(1060,1607,ls),
(1049,1675,o),
(1038,1690,o),
(888,1690,cs),
(747,1690,o),
(735,1675,o),
(726,1607,cs),
(531,287,l),
(501,287,l),
(438,1607,ls),
(435,1676,o),
(413,1690,o),
(246,1690,cs),
(78,1690,o),
(37,1674,o),
(53,1607,cs),
(318,68,ls),
(333,9,o),
(359,0,o),
(493,0,cs),
(643,0,o),
(674,8,o),
(688,68,cs),
(944,1585,l),
(832,1585,l),
(1088,68,l)
);
},
{
closed = 1;
nodes = (
(943,1192,l),
(943,1289,l),
(840,1289,l),
(840,1192,l)
);
},
{
closed = 1;
nodes = (
(536,1848,o),
(518,1827,o),
(518,1806,cs),
(518,1780,o),
(538,1770,o),
(611,1770,cs),
(687,1770,o),
(696,1779,o),
(751,1832,cs),
(840,1917,ls),
(859,1935,o),
(871,1944,o),
(883,1944,cs),
(895,1944,o),
(907,1935,o),
(924,1918,cs),
(1016,1832,ls),
(1070,1781,o),
(1084,1770,o),
(1154,1770,cs),
(1236,1770,o),
(1247,1780,o),
(1247,1806,cs),
(1247,1827,o),
(1230,1848,o),
(1197,1894,cs),
(1078,2056,ls),
(1037,2112,o),
(1009,2118,o),
(964,2118,cs),
(809,2118,ls),
(753,2118,o),
(724,2112,o),
(684,2056,cs),
(568,1894,ls)
);
}
);
};
layerId = "3E12A9BE-1094-4827-ACE3-4E9390329AA7";
shapes = (
{
ref = W;
},
{
pos = (881,0);
ref = circumflexcomb.case;
}
);
width = 1764;
}
);
unicode = 372;
},
